<?xml version="1.0" encoding="utf-8"?>
<!-- Generator: Adobe Illustrator 21.0.0, SVG Export Plug-In . SVG Version: 6.00 Build 0)  -->
<svg version="1.1" id="Layer_1" xmlns="http://www.w3.org/2000/svg" xmlns:xlink="http://www.w3.org/1999/xlink" x="0px" y="0px"
	 viewBox="0 0 512 512" style="enable-background:new 0 0 512 512;" xml:space="preserve">
<style type="text/css">
	.st0{fill:#202827;}
	.st1{fill:#D0153A;}
</style>
<g>
	<path class="st0" d="M477.8,77.3c-1,2.7-1.9,5.5-3,8.2c-5.4,13-16.9,20.5-29.9,19.4c-8.4-0.7-14.9-5-20-11.5
		c-10.7-13.5-10.4-34.8,0.8-47.8c12.9-15.1,34-14,45.4,2.2c3.3,4.7,4.8,10.1,6.7,15.4C477.8,67.9,477.8,72.6,477.8,77.3z
		 M458.8,69.9c-0.1-7.3-1.9-13.9-4.7-18c-4.2-6-10.1-6.2-13.5,0.3c-6.2,11.7-6.2,23.8-0.1,35.6c3.5,6.7,9.5,6.6,13.7,0.3
		C457.9,82.4,458.7,76.1,458.8,69.9z"/>
	<path class="st0" d="M381.8,32.7c3.2,1.5,6.5,2.5,9.2,4.9c1.6,1.4,2.9,0.6,4.7-2.4c2.9,0,5.8,0,9,0c0,7.7,0,15.2,0,23
		c-2.9,0.7-5.8,0.3-8.5,0.3c-1.3-1-1.3-2.4-1.8-3.4c-2-4.1-5.5-6.3-10.1-6.2c-4.1,0.2-6.9,2.2-8.2,6.8c-2.7,9.5-2.7,19.1,0.7,28.5
		c1.8,4.9,5.4,6.8,9.9,5.7c4.8-1.1,7.5-4.6,7.4-9.8c-2.6-1.3-5.6,0-8.5-0.9c0-3.3,0-6.6,0-10.1c7.6,0,15.2,0,22.8,0
		c2.1,19.1-8.8,36.2-26.3,36.1c-11.4,0-18.9-6.4-23.4-16.1c-5.9-12.8-6.1-26.1-1-39.4c3-7.8,8.7-13.1,16.6-16c0.5-0.2,1.3,0,1.4-0.9
		C377.8,32.7,379.8,32.7,381.8,32.7z"/>
	<path class="st0" d="M244.9,32.7c3,1.3,6,2.5,8.6,4.7c2.7,2.2,3.9-0.4,5.2-2.3c2.8,0,5.6,0,8.8,0c0,9.1,0,18,0,27.2
		c-3,0-5.9,0-8.9,0c-0.8-2.5-1.4-5-2.4-7.4c-1.9-4.3-5-6.3-9.3-6.1c-4.3,0.2-6.9,2.8-8,6.6c-2.7,9.5-2.7,19.1,0.6,28.5
		c1.1,3.2,3.1,5.7,6.8,6.1c3.6,0.3,6.2-1.7,8-4.5c1.6-2.5,2.7-5.2,4.1-8.1c3.6,1,7,2.3,10.2,4.1c-1.3,6.1-3.5,11.5-7.7,16
		c-10.4,11.2-26.7,9.8-36.3-3.1c-9.3-12.5-10.2-35.8-2-49.1c3.9-6.3,9.7-9.9,16.2-12.6C240.9,32.7,242.9,32.7,244.9,32.7z"/>
	<path class="st0" d="M63.3,32.7c4.1,1.2,7.7,3.4,10.8,5.5c2.1-0.4,2.1-2.3,3.7-3.1c2.5,0,5.3,0,8.4,0c0,9.1,0,18,0,27.2
		c-2.9,0-5.7,0-8.6,0c-0.8-2.4-1.4-4.8-2.3-7c-1.9-4.7-5.2-6.7-9.8-6.4c-3.9,0.2-6.8,2.4-8,7c-2.5,9.4-2.5,18.9,0.9,28.1
		c1.1,3,2.9,5.6,6.5,6c3.7,0.4,6.3-1.6,8.4-4.5c1.8-2.4,2.6-5.3,4-8.1c3.6,0.7,6.8,2.2,10.3,4c-1.9,9.2-6.1,16.6-14.3,21.1
		c-8.3,4.5-16.3,3.1-23.7-2.2c-6.7-4.8-10.4-11.7-12.4-19.6c-0.4-1.6-0.1-3.4-1.4-4.8c0-5.5,0-10.9,0-16.4c1-0.3,0.7-1.2,0.9-1.8
		c2.6-12.3,9.3-21,21.4-25C59.9,32.7,61.6,32.7,63.3,32.7z"/>
	<path class="st0" d="M414.6,132.5c10.1,18.5,19,37.2,22.6,57.9c2.2,12.3,2.9,24.6-0.7,36.8c-5.3,17.8-17.6,29.1-33.8,36.8
		c-12.9,6.1-26.6,9.2-40.7,11.9c19.2,3.9,38.1,9,56.5,15.9c-11.6,17.1-34.9,30.5-70.3,16.2c-1.8,2.3-2.7,5.1-3.8,7.8
		c-11.9,30.2-25.9,59.4-40.2,88.4c-3.4,6.9-3.2,8,2.4,15.1c0.6,0.8,1.4,1.3,2.4,2.2c-0.7,9.8-3.6,19.2-7.5,28.3
		c-2.6,6.3-6,12.2-10.1,17.7c-1.5,2.1-3.4,3.4-5.9,4.3c-15.4,5.2-31.2,6.5-47.3,5.9c-10.8-0.4-21.4-2.4-31.6-5.9
		c-2.2-0.8-3.9-1.9-5.4-3.7c-10.8-13-17.2-32.8-16-49.9c2.7-2.4,5.6-4.7,6.7-8.5c-18.6-32.4-34.8-65.8-47.6-101
		c-8.4,3.7-17.2,5.5-26.2,6.9c-16.8,2.5-38.2-7.2-45.9-21.1c19.6-9.9,40.9-13.4,62.1-17.6c-13.3-1.2-26.5-2.2-39.1-7
		c-13.3-5.1-25.4-11.8-33.2-24.3c-5.4-8.6-8-18.1-8.5-28.1c-1.1-24.6,5.6-47.5,16-69.5c1.9-4,3.8-8,6.5-12c1,1.2,0.5,2.4,0.5,3.5
		c0.1,14.1,0,28.2,1.4,42.3c2.4,23.3,16.9,38.3,40.1,41.1c11.3,1.4,22.6,0.4,33.8-0.5c50.9-4.3,101.9-6.6,153-3.6
		c16.2,1,32.4,1.4,48.7,2.3c8.4,0.5,16.8-0.1,25.1-1.9c19.1-4,30.2-15.7,34.2-34.6c3.2-15.2,3-30.5,1.9-45.9
		c-0.1-1.6-0.3-3.2-0.4-4.8C414.5,133.7,414.6,133.1,414.6,132.5z M161.6,342.1c-0.1-0.3-0.2-0.6-0.6-0.2c0,0,0.2,0.3,0.4,0.4
		c1.9,6.4,8.7,10.8,14.8,9.5c5.1-1.1,9.5-8.3,8.5-14.3C177.6,342.2,170.1,345,161.6,342.1z M433.1,189c0.1,0.1,0.3,0.2,0.4,0.3
		c-0.1-0.1-0.2-0.3-0.3-0.4c-0.1-1.1,0-2.3-0.3-3.3c-2.7-9.4-5.4-18.8-9.1-27.9c-1.4-3.6-2.8-7.3-5.2-10.6c1.1,14-0.3,27.8-2.1,41.8
		c0.8,0,1.3,0.2,1.5,0C423.1,184.7,428.1,184.4,433.1,189z M166.7,354.1c-0.1-0.1-0.1-0.3-0.1-0.2
		C166.6,353.9,166.7,354,166.7,354.1c0.1,0.3,0.1,0.7,0.2,1c7.6,16.3,15.4,32.5,24.8,47.8c1,1.6,1.7,3.4,3.8,4.8
		c3.7-22.6,2.3-44-7.4-64.6c-1,0.5-1.1,1.2-1.4,1.9c-3.8,8.9-8.6,11.3-17.9,9.1C168.2,354.1,167.5,354.2,166.7,354.1z M198.7,410.6
		c12.2-5.2,24.8-8.9,38.2-9.8c18.1-1.3,35.5,1.3,52.1,8.8c2.3,1,4.6,2.1,7.5,3.5c-7.8-26.5-7.3-52.3,1.1-78.5
		c-19.1,7.7-36.8,10.7-51.2-7.4c-9,11.4-20.6,15.2-34.4,13.7c-5.2-0.6-10-2.6-15.2-3.3c-0.1-0.1-0.3-0.2-0.4-0.3
		c0.1,0.1,0.2,0.3,0.3,0.4c0.4,1.4,0.7,2.9,1.2,4.3c5.9,18,7.7,36.3,4.1,55C200.9,401.6,199,406,198.7,410.6c0,0.1-0.1,0.2-0.2,0.3
		C198.6,410.8,198.7,410.7,198.7,410.6z M338.6,304.7c-1.7,17.3-10.7,27.9-29.1,29.2c2,2.9,4.2,4,6.7,4.5c7.2,1.6,15.6-2.1,19.4-8.6
		c1.9-3.3,3.3-6.9,4.7-10.5c2.1-5.1,4-10.4,7-15.5c7.5,4,15.4,5.9,23.5,6.9c8.1,1,16.1,0.5,23.6-3.2c7.3-3.5,14.5-7.2,19.4-14.3
		c-25-10-50.5-15.5-76.9-16c-1.2-9.3-2.2-18.3-3.5-27.2c-1.4-9-3.3-18-6.6-26.4c-22.6-3.6-144-2.9-161.2,1
		c-6.4,17.3-10.3,35.4-12.1,53.8c-26.5,2.5-52,7.1-77.1,17.2c21.1,22.8,44.8,20.1,69.7,10.3c0.5,1,1,1.9,1.4,3
		c1.8,4.9,3.5,9.8,5.2,14.7c1.4,4,2.9,7.9,5.8,11.1c6.7,7.5,18.9,7,23.6-1.2c-17.2-1.2-26.8-10.3-28.1-27.4c-6.9-1.5-8.2-4-5.4-10
		c2.2-4.7,6.4-6.8,12-5.8c6,1.1,11.3,3.6,15.9,7.6c3.9,3.5,7.6,7.1,11.5,10.6c4.6,4.1,8.9,8.7,14.3,11.8c11.6,6.6,24.3,7.1,33.1-3.2
		c4.6-5.4,8-11.2,8.9-18.5c-15.7-0.9-31.1-1.9-46.4-4.7c0.6-3.5,2.6-3.1,4.2-2.9c12,1.7,24.1,2.6,36.2,3.4c2.1,0.1,4.4,0.7,6.6-0.4
		c0.1-3,0.4-6-0.3-9.1c-6.5-0.5-12.9-0.9-19.3-1.4c-8-0.6-16-1.8-23.9-3.3c-1.7-0.3-3.8-0.6-3.9-3.1c0.9-1.6,2.4-1.3,3.7-1
		c8,1.5,16.1,2.5,24.3,3.3c6.6,0.7,13.2,1.6,19.9,1c0-4,0-7.8,0-11.9c-5.3,0.1-10.4-0.1-15.4-0.6c-9.3-1-18.7-2.2-28-3.4
		c-1.4-0.2-3.4,0.1-3.7-3.3c15.8,0.4,31.3,4.2,46.9,2.8c1.6-4-1.1-8.6,1.7-12.2c0.4,0,0.8,0,1.3,0c0.5,4.1,0.9,8.1,1.4,12.3
		c0.9,0,1.7,0.1,2.4,0.1c12.1-0.3,24.2-1.6,36.2-3.3c2.2-0.3,4.5-1.4,6.5,0.5c-0.3,2.3-2.1,2.2-3.4,2.4c-7.9,1.2-15.9,2.2-23.9,3.4
		c-6.1,1-12.3,0.3-18.6,1.7c-0.1,3.9-0.1,7.7,0.9,11.5c14.1-0.6,28.1-0.9,41.9-3.8c1.8-0.4,3.4-0.6,4.5,1.1
		c-0.6,1.9-2.1,2.1-3.6,2.4c-9,1.6-18.1,2.5-27.2,3.6c-5.2,0.7-10.6,0.2-15.9,1.6c-0.1,3.2-0.4,6.2,0.4,9.3c1.5,0,2.8,0.1,4,0
		c13.6-0.8,27.2-2,40.7-3.8c1.7-0.2,3.2-0.6,4,1.6c-0.3,0.4-0.5,1-0.9,1.1c-15.5,3.3-31.3,3.8-47.3,5.1c1.5,7.7,3.1,15.1,9.6,20.1
		c9.3,7.3,23.7,6.4,34.1-1.9c6-4.8,11.2-10.5,16.7-15.8c4.2-4.1,8.9-7.6,14.3-9.8c4.7-1.9,9.6-2.4,14.6-1.1c4,1,6.3,4.4,6.4,8.6
		c0.1,4-2.8,4.8-5.9,5.4C339.7,304,339.4,304.2,338.6,304.7z M305,424c-33.7-27.5-85.6-25.8-116.5-3.3c-0.6,3.1,0.3,6.1,0.6,9.2
		c1.6,13.2,5.9,25.3,14.2,35.8c1.4,1.8,3.1,3,5.3,3.8c25.5,8.8,50.8,7.9,76.1-1c1.6-0.6,2.6-1.8,3.6-3.1
		C297.7,453.2,302.8,439.3,305,424z M67.4,187.9c-5.1,6.2-11.3,10.9-11.5,20.3c-0.3,22.2,6.9,43.5,31.2,55.3
		c20.1,9.8,41.4,10.6,63.3,10.1c2.2-16.7,6.5-32.7,11.7-48.9c-4.4,0.4-8.1,0.7-11.8,1c-11.7,0.9-23.5,2.2-35.2,0.3
		c-15.8-2.6-28.5-9.6-34.9-25.3c-0.8-1.9-2.2-3.6-3.8-5C73.6,193.2,70.5,190.6,67.4,187.9z M330.7,224.2c4.4,16.1,7.4,32.8,9.5,49.8
		c21.4-0.3,41.5-3.8,60.6-12.7c30-13.9,38.2-39.9,34.6-63.3c-0.2-1.2-0.1-2.7-1.2-3.4c-2.8-1.7-5.2-4.2-8.1-5.2
		c-7.5,3-13.3,7.1-17.3,14.2c-5.5,9.7-14.4,15.4-25.1,18.3c-9.1,2.4-18.3,2.5-27.7,2.4C347.7,224.1,339.3,224.2,330.7,224.2z
		 M298.8,407.7c9.9-17.9,18.9-35.9,26.5-55.3c-9.5,2.7-15.6-1.2-20.4-9.3C298.8,364.9,293.5,385.8,298.8,407.7z M67.3,183
		c3.2,2.8,6.1,5.4,9.7,8.5c-3.3-14.8-3.4-28.8-3.5-42.9c-6.9,13.6-11.7,27.8-14.7,43.2c2.2-1.3,3.2-3,4.4-4.3
		C64.5,186,65.8,184.6,67.3,183z M331.7,338.4c-7.9,4-15.5,5.1-23.4,0.8c0.6,5.7,4.6,10.1,9.2,10.5
		C323.4,350.2,329.5,345.6,331.7,338.4z M181,325.8c-15.8-1.4-18.5-8.2-19.7-18.4c-1-0.5-2.1-0.5-3.3,0.3c0,7.5,2.8,13.6,9.2,17.9
		c4.3,2.8,9.1,3.6,14.1,3.1C181.6,327.6,181.7,326.8,181,325.8z M311.3,329.3c13.4,0.7,23-9.8,21.3-22.9c-2.2-0.3-2.9,0.8-3.2,2.9
		c-1.6,12-4.7,15.3-16.4,17.5C311.5,327,310.7,327.5,311.3,329.3z"/>
	<path class="st0" d="M166.4,47.2c-2.1,0.2-3.7,0.3-5.4,0.4c0,14.6,0,29,0,43.7c1.8,0.1,3.3,0.2,5.2,0.3c0.6,4,0.4,7.8,0.2,12
		c-9.8,0-19.2,0-29,0c-0.6-4-0.2-7.9-0.2-11.9c1.7-0.2,3-0.3,4.6-0.5c0-5.5,0-11,0-17c-5.5-0.2-10.9-0.3-16.6,0.1
		c-0.9,5.7-0.3,11.1-0.4,16.3c1.6,1.2,3.1,0.4,4.6,1.1c0,3.7,0,7.6,0,11.8c-9.4,0-18.8,0-28.4,0c-0.6-4-0.2-7.9-0.2-11.6
		c1.9-1,3.6-0.3,5.5-0.9c0-14.3,0-28.7,0-43c-1.6-1.3-3.5-0.1-5.3-1.2c0-3.6,0-7.4,0-11.6c9.2,0,18.4,0,27.9,0
		c0.5,3.7,0.2,7.4,0.2,10.9c-1.2,1.1-2.6,0.3-4,1c0,5,0,10.3,0,15.8c5.6,0,11.3,0,17.1,0c0-5.4,0-10.6,0-16
		c-1.5-0.1-2.7-0.2-4.2-0.3c0-3.7,0-7.5,0-11.5c9.4,0,18.6,0,28.3,0C166.8,39.1,166.5,42.9,166.4,47.2z"/>
	<path class="st0" d="M102.2,134.1c-1.8-0.1-3.4-0.3-5.2-0.4c0-3.9,0-7.7,0-11.5c0.9-0.9,2-0.7,3.1-0.7c10.9,0,21.8-0.1,32.7,0
		c11.8,0.2,20.1,10.7,17.6,21.9c-1.2,5-4.8,8.2-8.4,11.6c0.9,1.9,2.8,2.5,4.1,3.7c7.6,6.8,8.2,18.8,1.3,26.3
		c-2.8,3-6.3,4.9-10.5,4.9c-12.8,0.1-25.5,0-38.3,0c-0.5,0-1-0.2-1.6-0.3c0-3.7,0-7.4,0-11c1.5-1.4,3.5-0.1,5.3-1.3
		C102.2,163.1,102.2,148.7,102.2,134.1z M121,133.1c0,5.6,0,11,0,16.8c4.8,0.3,9.4,0.6,12.8-3.3c2.2-2.4,2.2-5.6,0.6-8.4
		C131.6,133.3,126.6,133.2,121,133.1z M120.9,161c0,5.3,0,10.5,0,16c4.9,0.1,9.7,1.1,13.1-3.4c2-2.6,1.7-6.7-0.3-9.4
		C131.4,161,125.8,159.6,120.9,161z"/>
	<path class="st0" d="M332.1,46.7c-2.2,0.1-3.9,0.2-6.2,0.3c4.6,14.8,9.2,29.3,13.8,43.8c1.5,1,3.3,0.2,5.2,0.9
		c0.5,3.7,0.2,7.5,0.2,11.7c-9.9,0-19.5,0-29.4,0c0.1-4.1-0.4-7.9,0.4-11.8c1.8-0.2,3.3-0.3,5.1-0.5c-0.1-3.3-1.8-5.9-2.8-9
		c-6.3,0-12.5,0-18.8,0c-1.6,2.7-2.3,5.6-3.2,8.5c1.7,1.3,3.6,0.1,5.4,1.3c0.6,3.6,0.2,7.3,0.2,11.5c-7.1,0.6-14,0.2-21.1,0.3
		c0-4.2,0-8.1,0-12.5c5,1.4,5.8-1.9,6.9-5.5c3.6-11.8,7.3-23.6,11-35.4c0.3-0.8,0.4-1.6,0.6-2.5c-1.9-1.2-4.1,0.1-6-1.1
		c0-3.8,0-7.5,0-11.6c12.9,0,25.6,0,38.4,0C332.5,38.9,332,42.6,332.1,46.7z M315.7,72.5c-2.3-6.9-4.3-13.2-6.4-19.6
		c-0.3,0-0.6,0-0.8,0c-2.1,6.4-4.1,12.8-6.3,19.6C306.9,72.5,311,72.5,315.7,72.5z"/>
	<path class="st0" d="M167.1,134.1c-1.6-0.1-3-0.2-4.7-0.2c-0.7-4-0.2-7.9-0.3-12c9.6,0,18.8,0,28.2,0c0,3.9,0,7.4,0,11
		c-1.5,1.5-3.6,0.2-5.6,1.3c0,5.1,0,10.4,0,15.7c0,6.1,0,12.1,0,18.2c0.1,6.4,4.2,10.8,10.3,10.8c6.6,0.1,10.5-3.8,10.6-10.7
		c0-10.5,0-21.1,0-31.6c0-0.8-0.1-1.7-0.2-2.4c-1.7-1.1-3.6,0-5.3-1.2c-0.6-3.6-0.2-7.2-0.2-11.2c7.6,0,15,0,22.5,0
		c0,4,0,7.8,0,11.5c-2,1.2-4.1,0.1-5.9,0.9c-0.9,1.3-0.5,2.7-0.5,4c0,10.4,0,20.8,0,31.2c-0.1,14.4-8.1,22.6-22.1,22.7
		c-14.9,0.1-25.9-9.7-25.9-23.3c-0.1-10.2,0-20.3,0-30.5C167.7,137.1,168,135.7,167.1,134.1z"/>
	<path class="st0" d="M356.4,189.7c0-7.6,0-15,0-22.4c2.5-0.8,4.8-0.6,7.2-0.2c1.8,5.2,4.9,9.2,10.6,10.2c2.8,0.5,5.8,0.8,7.7-2.1
		c1.4-2.2,0-6.3-2.7-8.6c-2.6-2.2-5.8-3.3-8.6-5c-1.9-1.1-3.9-2.1-5.8-3.3c-7.7-4.9-11-13.2-9-22.6c1.5-7.6,8.9-14.5,16.9-15.8
		c4.4-0.7,8.3,0.7,12,3c4.4,2.8,4.6,2.8,7.4-1.7c1.9-0.2,3.9-0.3,6,0.1c0.7,3.8,0.2,7.6,0.3,11.4c0.1,3.8,0,7.6,0,11.4
		c-2.4,0.8-4.5,0.3-6.3,0.4c-1.5-0.9-1.5-2.3-2.1-3.3c-2.7-4.5-6.5-7.1-11.7-7.3c-4.3-0.1-6.3,3.2-4.4,7c0.9,1.8,2.4,3.1,4,4.3
		c3,2.1,6.3,3.4,9.5,5.1c10.8,5.6,15.5,15.5,12.5,26.1c-3.9,13.5-18.7,19.2-30.4,11.4c-2.1-1.4-3.7-1.8-5.3,0.5
		C362,191.2,359.2,189.8,356.4,189.7z"/>
	<path class="st0" d="M239.4,134.5c-1.7-1.1-3.4-0.1-5.2-1.1c0-3.6,0-7.4,0-11.5c9.2,0,18.3,0,28,0c0.6,3.6,0.3,7.3,0.2,10.9
		c-1.8,1.4-3.7,0.3-5.5,1.2c0,14.4,0,28.8,0,43.6c4.6,0,9.1,0,14,0c1.1-3.6-0.1-7.6,0.8-11.6c3.3-0.8,6.6-0.4,10.1-0.2
		c0,8.1,0,15.9,0,24c-16,0-31.6,0-47.5,0c-0.6-3.9-0.2-7.7-0.3-11.5c2.1-0.2,3.6-0.4,5.5-0.6C239.4,163.3,239.4,149,239.4,134.5z"/>
	<path class="st0" d="M294.8,178.7c1.9-1.3,3.7-0.3,5.5-1.3c0-14.2,0-28.5,0-42.8c-1.6-1.1-3.3-0.2-5.1-1c0-3.7,0-7.5,0-11.7
		c9.2,0,18.5,0,27.9,0c0,3.8,0,7.5,0,11.1c-1.5,1.3-3.4,0.2-5.2,1.1c0,14.3,0,28.8,0,43.6c4.6,0,9.2,0,14.3,0c0-3.8,0-7.6,0-11.5
		c3.7-0.7,6.9-0.5,10.5-0.2c0,8,0,15.8,0,23.9c-16,0-31.6,0-47.5,0C294.5,186,295,182.3,294.8,178.7z"/>
	<path class="st0" d="M202.7,91.2c1.8,0.1,3.2,0.2,4.8,0.3c0,3.9,0,7.8,0,12c-9.5,0-19,0-28.7,0c0-4,0-7.8,0-11.6
		c1.4-1.1,3.3,0,5.2-0.9c0-14.5,0-29,0-43.6c-1.5-1.1-3.4,0.1-5.1-0.9c-0.5-3.5-0.3-7.2-0.1-11.2c9.6,0,18.9,0,28.5,0
		c0.4,4,0.3,7.9,0.1,11.9c-1.7,0.2-3,0.3-4.5,0.5C202.7,62.1,202.7,76.5,202.7,91.2z"/>
	<path class="st1" d="M338.6,304.7c0.8-0.5,1.1-0.7,1.5-0.8c3-0.7,5.9-1.4,5.9-5.4c-0.1-4.2-2.4-7.6-6.4-8.6
		c-4.9-1.3-9.8-0.8-14.6,1.1c-5.5,2.2-10.1,5.7-14.3,9.8c-5.5,5.3-10.7,11-16.7,15.8c-10.3,8.3-24.8,9.1-34.1,1.9
		c-6.5-5-8.1-12.4-9.6-20.1c15.9-1.3,31.7-1.8,47.3-5.1c0.4-0.1,0.6-0.7,0.9-1.1c-0.8-2.2-2.3-1.8-4-1.6
		c-13.5,1.9-27.1,3.1-40.7,3.8c-1.2,0.1-2.5,0-4,0c-0.9-3.1-0.5-6.1-0.4-9.3c5.3-1.4,10.7-1,15.9-1.6c9.1-1.1,18.2-2,27.2-3.6
		c1.5-0.3,3-0.4,3.6-2.4c-1.2-1.7-2.7-1.5-4.5-1.1c-13.7,3-27.7,3.2-41.9,3.8c-1-3.8-1-7.6-0.9-11.5c6.3-1.4,12.5-0.7,18.6-1.7
		c7.9-1.2,15.9-2.3,23.9-3.4c1.4-0.2,3.2,0,3.4-2.4c-2-1.9-4.3-0.8-6.5-0.5c-12,1.8-24.1,3-36.2,3.3c-0.7,0-1.5-0.1-2.4-0.1
		c-0.5-4.2-1-8.2-1.4-12.3c-0.4,0-0.8,0-1.3,0c-2.9,3.6-0.2,8.2-1.7,12.2c-15.6,1.4-31.1-2.4-46.9-2.8c0.2,3.4,2.3,3.2,3.7,3.3
		c9.3,1.2,18.7,2.3,28,3.4c5,0.6,10.1,0.8,15.4,0.6c0,4.1,0,7.8,0,11.9c-6.7,0.7-13.3-0.3-19.9-1c-8.1-0.8-16.2-1.8-24.3-3.3
		c-1.3-0.2-2.8-0.6-3.7,1c0.1,2.5,2.2,2.7,3.9,3.1c7.9,1.5,15.8,2.7,23.9,3.3c6.4,0.5,12.8,0.9,19.3,1.4c0.7,3.1,0.3,6.1,0.3,9.1
		c-2.2,1.1-4.4,0.6-6.6,0.4c-12.1-0.8-24.2-1.7-36.2-3.4c-1.6-0.2-3.6-0.7-4.2,2.9c15.2,2.8,30.6,3.9,46.4,4.7
		c-0.9,7.3-4.3,13.2-8.9,18.5c-8.8,10.3-21.6,9.7-33.1,3.2c-5.4-3.1-9.7-7.6-14.3-11.8c-3.9-3.5-7.6-7.1-11.5-10.6
		c-4.5-4.1-9.9-6.5-15.9-7.6c-5.6-1.1-9.8,1-12,5.8c-2.8,6-1.5,8.6,5.4,10c1.3,17.1,10.9,26.2,28.1,27.4c-4.7,8.2-16.9,8.7-23.6,1.2
		c-2.9-3.2-4.4-7.1-5.8-11.1c-1.7-4.9-3.4-9.8-5.2-14.7c-0.4-1-0.9-2-1.4-3c-24.9,9.7-48.6,12.5-69.7-10.3
		c25.1-10.1,50.6-14.7,77.1-17.2c1.9-18.4,5.7-36.5,12.1-53.8c17.2-3.8,138.6-4.6,161.2-1c3.3,8.4,5.2,17.4,6.6,26.4
		c1.3,8.9,2.3,17.9,3.5,27.2c26.4,0.5,51.9,6.1,76.9,16c-4.9,7.1-12.1,10.8-19.4,14.3c-7.5,3.7-15.5,4.2-23.6,3.2
		c-8.1-1-16-3-23.5-6.9c-3,5.2-4.9,10.4-7,15.5c-1.4,3.6-2.8,7.2-4.7,10.5c-3.8,6.5-12.2,10.2-19.4,8.6c-2.5-0.6-4.7-1.6-6.7-4.5
		C327.9,332.6,336.9,322,338.6,304.7z"/>
	<path class="st1" d="M196.7,337.6c5.1,0.7,9.9,2.7,15.2,3.3c13.8,1.5,25.4-2.3,34.4-13.7c14.4,18,32.1,15.1,51.2,7.4
		c-8.4,26.2-8.8,52-1.1,78.5c-2.9-1.4-5.2-2.5-7.5-3.5c-16.6-7.5-33.9-10.1-52.1-8.8c-13.4,0.9-25.9,4.6-38.2,9.8l0.1,0.1
		c0.2-4.7,2.1-9.1,3-13.6c3.6-18.7,1.7-37-4.1-55c-0.5-1.4-0.8-2.8-1.2-4.3L196.7,337.6z M289.6,343.5c-1.4,1.9-1.5,4.1-2.2,6.2
		c-4.2,12.5-9.9,24.1-21.9,31.2c-13.4,7.9-35,8.8-47.5-7.9c-5.8-7.7-9-16.5-10.3-25.9c-0.2-1.7-0.2-3.4-2.9-2.2
		c0.4,5.6,1.8,11,3.7,16.2c9.6,26.5,39.1,36.2,61.3,19.9c11.9-8.7,17.5-21.4,21.2-35.2C291.2,345,291.3,344.1,289.6,343.5z"/>
	<path class="st1" d="M305,424c-2.2,15.3-7.3,29.2-16.7,41.4c-1,1.3-2,2.5-3.6,3.1c-25.3,8.9-50.6,9.8-76.1,1
		c-2.2-0.8-3.8-2-5.3-3.8c-8.4-10.5-12.6-22.6-14.2-35.8c-0.4-3-1.2-6.1-0.6-9.2C219.4,398.2,271.3,396.5,305,424z M260.1,436.7
		c0.8,0.8,1.3,1.3,1.8,1.9c6.4,6.5,16.5,6.5,23,0.1c5.7-5.5,4.8-13.5-1.9-17.7c-7-4.3-16.3-3.5-22.4,2.1c-3.6,3.3-5.8,7.5-5.1,12.6
		c0.5,3.4,1.1,6.9,4.4,9.3C261.6,442.1,258.7,439.7,260.1,436.7z M231.2,446.4c4.7-5,5.8-11.5,3.1-17c-3.8-7.8-13.9-11.5-22.7-8.3
		c-4.4,1.6-7.8,4.2-8.5,9.3c-0.7,5.5,1.8,9.4,6.2,12.2c5.8,3.7,13.7,3,19-1.5c1.1-0.9,1.8-2.3,3.4-2.7
		C232.3,441.1,229.8,443.4,231.2,446.4z M205,462.3c2.2,2,2.2,2,4.9,1c17.8-6.5,36-8.4,54.7-5.1c6.3,1.1,12.1,3.5,18.1,5.5
		c1.7,0.6,3.3,1.2,4.4-1.5C259.8,450.5,232.8,451.8,205,462.3z"/>
	<path class="st1" d="M166.7,354.1c0.7,0,1.5-0.1,2.2,0.1c9.3,2.2,14.1-0.2,17.9-9.1c0.3-0.7,0.4-1.4,1.4-1.9
		c9.7,20.6,11.1,42,7.4,64.6c-2.1-1.4-2.8-3.2-3.8-4.8c-9.4-15.3-17.2-31.5-24.8-47.8C166.8,354.9,166.9,354.4,166.7,354.1
		L166.7,354.1z"/>
	<path class="st1" d="M298.8,407.7c-5.4-22-0.1-42.9,6.1-64.6c4.8,8,10.9,12,20.4,9.3C317.7,371.8,308.7,389.9,298.8,407.7z"/>
	<path class="st1" d="M433.1,189c-5-4.5-10-4.2-15.1-0.1c-0.2,0.2-0.7,0-1.5,0c1.8-13.9,3.2-27.8,2.1-41.8c2.3,3.3,3.7,6.9,5.2,10.6
		c3.6,9.1,6.3,18.5,9.1,27.9c0.3,1,0.2,2.2,0.3,3.3L433.1,189z"/>
	<path class="st1" d="M67.3,183c-1.5,1.6-2.9,3.1-4.2,4.5c-1.2,1.4-2.2,3-4.4,4.3c3-15.4,7.9-29.6,14.7-43.2
		c0.1,14.1,0.2,28.2,3.5,42.9C73.4,188.3,70.5,185.8,67.3,183z"/>
	<path class="st1" d="M161.6,342.1c8.5,2.9,15.9,0.1,23.1-4.6c1,6-3.4,13.2-8.5,14.3c-6,1.3-12.8-3.1-14.8-9.5L161.6,342.1z"/>
	<path class="st1" d="M331.7,338.4c-2.3,7.2-8.3,11.9-14.2,11.3c-4.6-0.4-8.5-4.8-9.2-10.5C316.2,343.4,323.8,342.4,331.7,338.4z"/>
	<path class="st1" d="M161.4,342.3c-0.1-0.1-0.4-0.4-0.4-0.4c0.3-0.4,0.4-0.1,0.6,0.2L161.4,342.3z"/>
	<path class="st1" d="M166.8,354.1c-0.1-0.1-0.2-0.2-0.2-0.2C166.6,353.9,166.7,354,166.8,354.1L166.8,354.1z"/>
	<path class="st1" d="M196.5,337.8c-0.1-0.1-0.2-0.3-0.3-0.4c0.1,0.1,0.3,0.2,0.4,0.3L196.5,337.8z"/>
	<path class="st1" d="M198.7,410.6c-0.1,0.1-0.1,0.2-0.2,0.3C198.6,410.8,198.7,410.8,198.7,410.6
		C198.8,410.7,198.7,410.6,198.7,410.6z"/>
	<path class="st1" d="M433.2,188.8c0.1,0.1,0.2,0.3,0.3,0.4c-0.1-0.1-0.3-0.2-0.4-0.3C433.1,189,433.2,188.8,433.2,188.8z"/>
	<path class="st0" d="M289.6,343.5c1.7,0.5,1.6,1.5,1.4,2.3c-3.7,13.8-9.4,26.5-21.2,35.2c-22.2,16.3-51.7,6.6-61.3-19.9
		c-1.9-5.2-3.3-10.6-3.7-16.2c2.7-1.2,2.7,0.5,2.9,2.2c1.4,9.5,4.5,18.2,10.3,25.9c12.5,16.7,34,15.8,47.5,7.9
		c12-7.1,17.7-18.6,21.9-31.2C288,347.7,288.2,345.4,289.6,343.5z"/>
	<path class="st0" d="M260.1,436.7c-1.4,2.9,1.5,5.4-0.2,8.3c-3.3-2.4-4-5.9-4.4-9.3c-0.7-5,1.4-9.2,5.1-12.6
		c6.1-5.6,15.4-6.4,22.4-2.1c6.7,4.1,7.6,12.1,1.9,17.7c-6.5,6.4-16.6,6.3-23-0.1C261.3,438.1,260.9,437.5,260.1,436.7z"/>
	<path class="st0" d="M231.2,446.4c-1.4-3,1.1-5.3,0.5-8c-1.6,0.4-2.3,1.8-3.4,2.7c-5.3,4.5-13.3,5.3-19,1.5
		c-4.4-2.8-6.9-6.7-6.2-12.2c0.6-5.1,4.1-7.7,8.5-9.3c8.8-3.2,18.8,0.5,22.7,8.3C237,434.9,236,441.4,231.2,446.4z"/>
	<path class="st0" d="M205,462.3c27.7-10.6,54.8-11.9,82.1-0.1c-1.1,2.7-2.7,2-4.4,1.5c-6-2-11.8-4.4-18.1-5.5
		c-18.7-3.3-36.9-1.4-54.7,5.1C207.3,464.3,207.3,464.3,205,462.3z"/>
</g>
</svg>
