<?xml version="1.0" encoding="utf-8"?>
<!-- Generator: Adobe Illustrator 21.0.0, SVG Export Plug-In . SVG Version: 6.00 Build 0)  -->
<svg version="1.1" id="Layer_1" xmlns="http://www.w3.org/2000/svg" xmlns:xlink="http://www.w3.org/1999/xlink" x="0px" y="0px"
	 viewBox="0 0 512 512" style="enable-background:new 0 0 512 512;" xml:space="preserve">
<style type="text/css">
	.st0{fill:#018349;}
	.st1{fill:#0D834D;}
</style>
<g>
	<path class="st0" d="M512.5,512c-170,0-342,0-512,0c0-161.4,0-350.6,0-512c170,0,342,0,512,0C512.5,161.4,512.5,350.6,512.5,512z
		 M256.7,486.1c125.7,0.2,226.2-101.1,229.2-223.8c3.2-128.4-99-233.7-225.5-235.6C132.7,24.7,28,127.4,27.5,254.9
		C27,383.2,129.2,485.9,256.7,486.1z"/>
	<path class="st0" d="M290.4,442.2c-35.8-24.9-45.8-60.5-45.3-101.3c-1.7,0.9-2.4,2.2-3.2,3.3c-10.4,13.2-21.7,25.3-35.5,34.9
		c-15.8,11-32.9,14-51.1,6.4c-16.4-6.8-23.8-22.3-18.2-39.4c1.2-3.6,0.4-5.1-2.5-7.1c-23.2-16.3-20.1-51.5,5.7-65.1
		c11.2-5.9,23.1-6.7,35.4-5.8c15.5,1.1,30.4,5.4,45.3,9.5c1.7,0.5,3.3,0.9,5.5,1.5c-5-6.2-9.7-11.8-14-17.6
		c-8.5-11.1-15.9-22.8-19.2-36.6c-3.3-14-1.3-27,7.1-39.1c9.9-14.1,24.2-16.4,38.9-11.3c3.4,1.2,6.7,2.7,9.5,4.9
		c2.1,1.6,3.5,1.6,5.5-0.3c5.8-5.3,12.2-9.7,20.1-10.8c14-2,25.1,3.3,33.5,14.5c13.2,17.8,13.9,37,5.7,56.9
		c-5.5,13.3-12.7,25.5-22.5,36c-2.1,2.3-4.1,4.7-5.9,7.6c1.9-0.8,3.9-1.5,5.8-2.3c13.7-5.9,27.9-10.8,42.7-12.7
		c16.2-2.1,31.2,1.5,43.8,12.6c11.9,10.4,17.1,30,11.4,43.4c-2.4,5.6-6.4,9.9-11.4,13.3c-2.8,1.8-3.6,3.4-2.3,7
		c6.2,17.9-5.8,39.7-24.7,45c-15.7,4.4-30.2,1.1-42.9-9c-13.9-11.1-26.8-23.4-39.1-36.2c-1-1-1.6-2.2-2.8-3.1
		c-1.6,5.1-1,10-0.7,14.7c1.1,19,6,36.8,17.3,52.3c3.4,4.6,7.1,8.9,11.7,12.2c1.8,1.3,2.1,2.6,1.4,4.7
		C293.6,430.4,292.2,435.7,290.4,442.2z"/>
	<path class="st1" d="M367.5,211.5c-4.7-1.6-3.9-6.2-6.5-9.3c6.9-2.9,13.3-5.6,20-8.4c1.3,3.1,2.5,5.9,3.8,8.9
		c-3.2,2.7-7.5,3-10.9,5.5c1.8,4.3,3.6,8.6,5.5,13.1c8.8-3.7,17.4-7.3,26.6-11.2c-2.2-5.2-4.2-10.2-6.3-15.1
		c-1.7-3.9,0.5-9.4,4.4-11.1c6.6-2.8,13.2-5.4,19.7-8.4c4-1.9,7.7-1.8,12-0.7c4.3,1.1,7,3,8.1,7.2c0.4,1.6,1.2,3,1.8,4.5
		c1,2.2,2,4.4-0.1,6.6c5.6,0.3,4,5.7,7.1,8.5c-7.2,3-13.6,5.8-20.3,8.6c-2.1-2.7-2.8-5.9-4.2-8.9c3.4-2.3,7.3-3.1,11.1-5.2
		c-1.8-4.3-3.6-8.7-5.4-13.3c-8.2,3.4-16,6.8-24.4,10.2c2.1,5.1,4.2,10.1,6.2,15.1c1.6,3.9-0.6,9.5-4.5,11.2
		c-8.7,3.7-17.4,7.4-26.2,11c-4.4,1.8-12.9-2-14.6-6.3c-0.9-2.3-1.7-4.5-2.8-6.8C366.6,215.2,365.9,213.2,367.5,211.5z"/>
	<path class="st1" d="M105.4,140.6c-1.5,1.6-2.6,2.7-3.8,4c-2.7-1.6-4.9-3.7-7.2-6.1c8.2-9.3,16.1-18.5,24.3-27.8
		c5.6,4.9,10.9,9.5,16.4,14.4c-2.1,2.4-4.1,4.6-6.1,7.1c-3.7-1.8-6-5.4-9.7-7.6c-2.3,2.5-4.5,5.1-7.1,8c6.9,6,13.5,11.9,20.3,17.8
		c2.4-2.7,4.7-5.1,7.1-7.8c2.3,2.1,4.6,4,7.1,6.2c-2.3,2.7-4.4,5.2-6.8,8c7.1,6.2,14,12.2,21.2,18.6c2.5-2.8,4.9-5.6,7.4-8.4
		c-3-2.8-5.9-5.4-8.9-8.1c1.8-2.6,3.6-4.7,6-6.9c5.4,4.7,10.6,9.3,16.1,14.1c-8.2,9.4-16.1,18.6-24.3,27.9c-2.5-2.1-4.6-4-6.8-5.8
		c0.4-2.2,2.6-2.9,3.1-5C137.9,169,121.7,154.9,105.4,140.6z"/>
	<path class="st1" d="M265.7,132.6c1.9,0.1,3.5,0.2,5.3,0.4c0,3,0,5.8,0,9c-7,0-14,0-21.4,0c-0.6-2.8-0.4-5.8-0.1-8.6
		c0.4-0.2,0.6-0.4,0.8-0.5c5.1-0.5,5.1-0.5,5.1-5.7c0-18.3,0-36.6,0-54.9c0-1.4,0.3-2.8-0.4-4.2c-2.3-0.6-4.7-0.3-7.4-0.1
		c0,4.1,0,8,0,12.1c-3.4,0-6.5,0-9.7,0c0-7.2,0-14.2,0-21.4c14.9,0,29.8,0,44.9,0c0,7,0,14,0,21.3c-2.9,0.7-5.8,0.1-9.1,0.4
		c0-4.2,0-8.1,0-12.1c-2.8-0.6-5.3-0.4-8-0.2C265.7,89.4,265.7,110.8,265.7,132.6z"/>
	<path class="st1" d="M72.6,201.6c20.6,7,40.8,13.9,61.5,20.9c1.4-4.2,2.8-8.3,4.3-12.6c-4-1.4-7.7-2.7-11.6-4
		c1.1-3.2,2.1-6.1,3.1-9c9.1,0.3,13.9,5.8,17.8,12.9c0.5,1,0.1,1.8-0.2,2.7c-1.6,4.7-3.3,9.4-4.8,14.2c-0.5,1.7-1.6,2.5-3.2,3.3
		c-5.7,3-11.1,2.8-17.1,0.5c-16.1-6-32.5-11.3-48.7-16.7c-2.8-0.9-4.5-2.6-6.4-4.8c-4.3-5.1-5.1-10.1-2-16c1.3-2.4,1.1-5.9,5.1-6.3
		c-4.3-3.9,0.7-6.6,0.4-10.6c7.3,2.5,13.9,4.7,20.8,7.1c-0.5,3.2-1.7,6-2.9,9.2c-3.8-1.2-7.6-2.5-11.6-3.8
		C75.7,192.7,74.2,197,72.6,201.6z"/>
	<path class="st1" d="M387.9,118.9c-15,16-29.7,31.5-44.5,47.3c3.3,3.1,6.4,6.1,9.6,9.1c3-3,5.7-5.7,8.6-8.6c2.6,2.1,5,4.2,6.8,6.5
		c-3.9,8.1-11.2,9.8-18.9,10.6c-1.3,0.1-1.9-0.7-2.6-1.4c-3.5-3.2-6.9-6.6-10.4-9.7c-1.5-1.4-1.8-2.8-2-4.8
		c-0.5-6.6,2.3-11.2,6.8-15.7c12.3-12.4,24.1-25.3,35.9-38.1c2.3-2.5,4.9-2.8,7.8-3.1c2.6-0.3,5.6-2.1,7.7-0.6
		c3.6,2.6,6.7,6,9.8,9.3c0.6,0.7,0.3,2.2,0.5,3.3c5-2,5.4,3.7,9.3,4.9c-5.3,5.7-10.2,10.8-15.1,16.1c-2.7-1.9-4.8-4.1-7.2-6.5
		c2.7-3,5.4-5.8,8.2-9C394.6,125.4,391.3,122.2,387.9,118.9z"/>
	<path class="st1" d="M172.3,87c-1.8,0.6-3.3,1.1-5,1.7c-1.6-2.7-2.6-5.4-3.7-8.6c6.4-2.7,12.8-5.4,19.3-8.2
		c1.3,3.1,2.4,5.8,3.7,8.6c-1.7,0.9-3.1,1.6-4.9,2.5c8.4,19.9,16.6,39.6,25.1,59.8c3.2-1.4,6.1-2.6,9.3-3.9c-1.5-3.8-3-7.3-4.4-10.9
		c2.7-1.8,5.5-2.6,8.8-3.9c2.8,6.5,5.5,12.9,8.4,19.7c-10.9,4.6-21.6,9.1-32.4,13.7c-1.9-2.5-2.6-5.5-3.8-8c1.1-1.8,3.1-1.5,4.7-3.1
		C189.1,126.8,180.7,107,172.3,87z"/>
	<path class="st1" d="M342.7,76.7c-1.1,3.2-1.9,6.1-3.6,8.8c-1.5-0.5-2.9-1-4.7-1.6c-7.7,20.1-15.3,40.2-23,60.1
		c1.2,1.5,2.9,1.5,4.3,2.6c-0.5,2.8-1.9,5.5-3.2,8.6c-6.5-2.5-12.9-4.9-19.5-7.5c0.6-3.1,2-5.8,3-8.5c2-0.2,3.5,1.1,5.8,1.4
		c7.6-19.9,15.2-39.9,22.9-59.8c-1.2-2.1-3.6-1.6-5.1-3.3c1-2.6,2-5.3,3.2-8.5C329.4,71.6,335.9,74.1,342.7,76.7z"/>
</g>
</svg>
