<?xml version="1.0" encoding="utf-8"?>
<!-- Generator: Adobe Illustrator 21.0.0, SVG Export Plug-In . SVG Version: 6.00 Build 0)  -->
<svg version="1.1" id="Layer_1" xmlns="http://www.w3.org/2000/svg" xmlns:xlink="http://www.w3.org/1999/xlink" x="0px" y="0px"
	 viewBox="0 0 512 512" style="enable-background:new 0 0 512 512;" xml:space="preserve">
<style type="text/css">
	.st0{fill:#FDFDFE;}
	.st1{fill:#1D2A49;}
	.st2{fill:#5475AB;}
</style>
<g>
	<path class="st0" d="M481.8,482c-150,0-300,0-450,0c0-150,0-300,0-450c150,0,300,0,450,0C481.8,182,481.8,332,481.8,482z
		 M445,145.2c21.4-38.4,5.3-66.7-16-80.7c-28.2-18.6-56.2-13.4-81.4,15.1c-30.6-5.2-60.3-1-88.9,10.8c-28.6-12-58-15.7-87.9-11
		c-26-28.1-54-33-80.7-14.8C63,83.2,57,111.1,73.3,144.4c-32.5,48.4-49.8,99.1-20.6,156.7c2.2-2,3.4-3.1,4.8-4.2
		c1.5-1.2,2.3-3.3,4.9-3.4c13.6,43.4,40.4,76.3,79.5,100.6c1-4.7,1.8-8.3,2.8-13c14.8,15.7,31.3,27.7,49.4,37.5
		c23.5,12.7,47.5,24.5,65.8,45.9c16-18.6,36.8-29,57.5-39.4c22.3-11.2,42.8-24.6,59-44.1c0.2-0.3,0.9-0.1,2.1-0.3
		c0,4.6,0,9.1,0,14.4c21.2-10.4,37.4-24.6,50.3-42.9c12.9-18.3,20.4-38.8,24.7-61.1c3.6,2.7,3.5,7,7.5,9.2
		C492.8,244.8,477.8,194.3,445,145.2z"/>
	<path class="st1" d="M445,145.2c32.8,49.2,47.8,99.7,15.9,155.3c-4-2.2-3.9-6.5-7.5-9.2c-4.3,22.2-11.8,42.8-24.7,61.1
		c-12.9,18.3-29.2,32.6-50.3,42.9c0-5.4,0-9.9,0-14.4c-1.2,0.1-1.9,0-2.1,0.3c-16.1,19.4-36.7,32.8-59,44.1
		c-20.7,10.4-41.5,20.8-57.5,39.4c-18.2-21.4-42.3-33.3-65.8-45.9c-18.1-9.7-34.6-21.7-49.4-37.5c-1,4.8-1.8,8.4-2.8,13
		c-39-24.3-65.9-57.2-79.5-100.6c-2.7,0-3.4,2.2-4.9,3.4c-1.3,1.1-2.6,2.3-4.8,4.2c-29.2-57.6-11.9-108.3,20.6-156.7
		C57,111.1,63,83.2,90.2,64.5c26.7-18.3,54.6-13.3,80.7,14.8c29.9-4.6,59.2-0.9,87.9,11c28.6-11.7,58.3-16,88.9-10.8
		C372.8,51,400.8,45.8,429,64.4C450.2,78.5,466.4,106.8,445,145.2z M214,214.1c-6-5.9-12.9-10.3-20.7-13.5
		c-3.6-3.9-7.9-4.1-12.8-2.7c0.4,8.6,4.1,15.9,9.2,21.8c5.9,6.9,15,6.2,23.6,5.8c-21.9,60-6.9,124.1,5.7,147.9
		c2.4,0.4,4.8,0.7,7,1.1c6.4-1.8,12.5-5,20-2.2c3.2-4.5,8.7-1.5,12.2-3.4c5-18.4-6.5-28.2-17.6-38.2c-5.5,1.6-6.1,6.7-8.7,10.2
		c-3.3-2-4.7-5.3-6.3-8.3c-7.2-13.4-1-25.1,14.3-25.2c6.2-0.1,11.9-2.7,18.1-1.4c0-24.3,0-47.9,0-71.6c-11.5,0.1-21.3-3.8-30.2-10.2
		C223.1,221.1,218.6,217.6,214,214.1z M380.9,184c0.9,0.7,1.7,1.4,2.8,0c-0.7-0.3-1.4-0.6-2-0.9c-22.7-13.8-46.3-13.2-71.1-2.5
		c4.1-20.7,10.3-38,29.9-47c12-5.5,20.7-13.9,26.1-26.5c5.5-12.7,16.1-20.5,29.8-24.2c6.6-1.8,13.2-1.1,21.6-1.6
		c-8.4-4.5-15.8-6.2-23.5-5.6c-18.1,1.4-29.5,13-38.9,27.4c-33.7-12-65.8-5.4-96.5,6.6c-31.9-8.9-63.2-15.1-95.2-8.3
		c-2.6-3.5-4.5-6.4-6.8-9c-10.8-12.5-23.3-20.4-41-18.7c-13.4,1.3-30.6,18.3-30.5,31.9c0.1,14.1,3.3,26.9,9.2,38.7
		c-30.7,37.7-47.5,78.3-34.4,127.9c4-4.4,6.5-9.3,11.1-12.3c12.7,46.5,32.2,85.1,57.3,98.2c3.1-5,1.2-11.1,3.3-17.3
		c3.1,3.4,5.5,6.1,8,8.8c26.6,28.2,56.2,52.5,92,68.3c9.6,4.3,18.4,10.2,26.7,16.7c0-11.6,0-22.5,0-33.8c-4.9,0-9.1,0.2-13.4,0
		c-16.6-0.8-29.6-6.5-36.7-23.3c-6.2-14.7-13-29.2-17.4-44.6c-7.5-26.3-12-53-8.2-80.5c1.1-8.1,2.2-16.2,3.3-24.1
		c-12.7-7.9-12.7-7.9-23.4-36.9c-6.9-4-15.1-4.2-22.7-6.6c20.3-5.4,39.9-2.9,58.9,5c12.3,5.2,21,15.1,30.9,23.4
		c8.5,7.1,14.1,7.8,23.2,2.4c1.9-25.9,3.7-52,5.6-78.1c4.5,26.1,2.5,52.9,7.2,78.7c10.2,4.9,15.4,3.8,25.2-5
		c11.3-10.2,22.5-20.4,37.6-25.2C346.3,180.7,363.5,181.5,380.9,184z M290.4,226.1c1.5,1.9,3.1,1.1,4.5,1.2c1.7,0.1,3.4,0,6.1,0
		c20.8,45.9,19.9,92.6,6.3,140c23.4-45.7,21.5-92.4,5.5-139.6c20.7-8.3,28.6-17.2,27.4-31.1C318.9,199.1,306,214.7,290.4,226.1z
		 M228.3,390.1c5.2,0.6,10.1,1.5,14.9,1.6c11.7,0.2,23.5-0.3,35.2,0.2c7.7,0.3,12.6-3.4,18-9.5c-25.5-3.9-49.7-3.9-75.5,0.8
		C224.2,386.2,226.1,388,228.3,390.1z M279.1,308.5c10.9,3.2,17.7,9.1,15.7,21.9c4-4.6,5.8-9.3,2.8-13.9
		C293.5,309.8,286.6,307.9,279.1,308.5z M293.6,333c0.2-0.1,0.4-0.3,0.4-0.4c0-0.2-0.2-0.3-0.4-0.5c-0.1,0.1-0.4,0.3-0.4,0.5
		C293.2,332.7,293.5,332.9,293.6,333z M305.6,370.5c0.1-0.1,0.4-0.2,0.4-0.4c0-0.1-0.2-0.3-0.3-0.4c-0.1,0.1-0.4,0.3-0.4,0.4
		C305.3,370.3,305.5,370.4,305.6,370.5z"/>
	<path class="st2" d="M380.9,184c-17.4-2.5-34.7-3.3-51.9,2.1c-15.1,4.8-26.3,14.9-37.6,25.2c-9.8,8.9-15.1,10-25.2,5
		c-4.7-25.8-2.7-52.5-7.2-78.7c-1.9,26.1-3.8,52.2-5.6,78.1c-9.1,5.4-14.7,4.8-23.2-2.4c-9.9-8.3-18.7-18.3-30.9-23.4
		c-19-8-38.5-10.5-58.9-5c7.6,2.4,15.8,2.6,22.7,6.6c10.7,29,10.7,29,23.4,36.9c-1.1,7.9-2.2,16-3.3,24.1
		c-3.8,27.5,0.7,54.2,8.2,80.5c4.4,15.4,11.3,29.8,17.4,44.6c7.1,16.8,20.1,22.5,36.7,23.3c4.2,0.2,8.5,0,13.4,0
		c0,11.3,0,22.2,0,33.8c-8.3-6.5-17-12.4-26.7-16.7c-35.8-15.9-65.4-40.1-92-68.3c-2.5-2.7-5-5.4-8-8.8c-2.2,6.1-0.3,12.2-3.3,17.3
		c-25.1-13.1-44.7-51.7-57.3-98.2c-4.7,3-7.2,7.9-11.1,12.3c-13.1-49.6,3.7-90.2,34.4-127.9c-5.9-11.8-9.2-24.6-9.2-38.7
		c-0.1-13.6,17.1-30.7,30.5-31.9c17.6-1.7,30.2,6.2,41,18.7c2.3,2.6,4.2,5.5,6.8,9c32-6.8,63.3-0.7,95.2,8.3
		c30.7-12.1,62.7-18.6,96.5-6.6c9.4-14.5,20.8-26.1,38.9-27.4c7.7-0.6,15.1,1.1,23.5,5.6c-8.4,0.5-15-0.2-21.6,1.6
		c-13.6,3.7-24.3,11.5-29.8,24.2c-5.4,12.6-14.1,21-26.1,26.5c-19.6,9-25.8,26.3-29.9,47c24.9-10.7,48.4-11.3,71.1,2.5
		C381.5,183.4,381.2,183.7,380.9,184z M115.8,115.2c-6,6.3-12.2,12.1-12.8,22.6c15.1-13.6,29.8-25.2,48.1-31.3
		c-13-17.6-35.2-23.4-43.7-11.2c7.5,1.5,15.4,1.8,21.4,8.1c-18.7-1.2-21.2-0.3-24,8.8C108.6,112,112.3,111.8,115.8,115.2z"/>
	<path class="st0" d="M214,214.1c4.6,3.4,9.1,7,13.7,10.3c8.9,6.4,18.7,10.2,30.2,10.2c0,23.7,0,47.3,0,71.6
		c-6.3-1.3-11.9,1.4-18.1,1.4c-15.3,0.2-21.6,11.8-14.3,25.2c1.6,3,3,6.3,6.3,8.3c2.7-3.5,3.3-8.6,8.7-10.2
		c11.1,10,22.6,19.8,17.6,38.2c-3.5,1.9-9-1.2-12.2,3.4c-7.5-2.9-13.6,0.4-20,2.2c-2.2-0.3-4.6-0.7-7-1.1
		c-12.6-23.9-27.6-87.9-5.7-147.9c-8.5,0.4-17.6,1-23.6-5.8c-5.1-5.9-8.8-13.2-9.2-21.8c5-1.4,9.3-1.2,12.8,2.7
		c-3,9.1,1.7,15.5,7.3,21.7C207.3,222.9,209.8,217.1,214,214.1z"/>
	<path class="st2" d="M290.4,226.1c15.6-11.4,28.5-27,49.7-29.4c1.2,13.9-6.7,22.7-27.4,31.1c16,47.1,17.9,93.8-5.5,139.6
		c13.7-47.4,14.5-94.1-6.3-140c-2.6,0-4.4,0.1-6.1,0C293.5,227.2,291.9,228,290.4,226.1z"/>
	<path class="st0" d="M228.3,390.1c-2.2-2.1-4.1-3.9-7.3-6.9c25.8-4.7,50-4.7,75.5-0.8c-5.5,6.1-10.3,9.9-18,9.5
		c-11.7-0.5-23.5,0-35.2-0.2C238.3,391.6,233.5,390.7,228.3,390.1z"/>
	<path class="st2" d="M214,214.1c-4.2,2.9-6.7,8.7-13.5,8.2c-5.6-6.2-10.3-12.6-7.3-21.7C201.1,203.8,208,208.2,214,214.1z"/>
	<path class="st2" d="M279.1,308.5c7.5-0.6,14.4,1.3,18.6,7.9c2.9,4.6,1.2,9.4-2.8,13.9C296.8,317.6,290,311.7,279.1,308.5z"/>
	<path class="st2" d="M381.7,183.1c0.6,0.3,1.3,0.6,2,0.9c-1.1,1.4-1.9,0.7-2.8,0C381.2,183.7,381.5,183.4,381.7,183.1z"/>
	<path class="st2" d="M293.6,333c-0.1-0.1-0.4-0.3-0.4-0.5c0-0.2,0.3-0.3,0.4-0.5c0.1,0.2,0.4,0.3,0.4,0.5
		C294,332.8,293.7,332.9,293.6,333z"/>
	<path class="st2" d="M305.6,370.5c-0.1-0.1-0.3-0.3-0.3-0.4c0-0.1,0.2-0.3,0.4-0.4c0.1,0.1,0.3,0.3,0.3,0.4
		C305.9,370.3,305.7,370.4,305.6,370.5z"/>
	<path class="st1" d="M115.8,115.2c-3.5-3.4-7.2-3.2-10.9-3c2.8-9.1,5.3-10,24-8.8c-6-6.2-13.9-6.6-21.4-8.1
		c8.4-12.3,30.7-6.5,43.7,11.2c-18.3,6.1-33.1,17.7-48.1,31.3C103.6,127.3,109.7,121.5,115.8,115.2z"/>
</g>
</svg>
