<?xml version="1.0" encoding="utf-8"?>
<!-- Generator: Adobe Illustrator 21.0.0, SVG Export Plug-In . SVG Version: 6.00 Build 0)  -->
<svg version="1.1" id="Layer_1" xmlns="http://www.w3.org/2000/svg" xmlns:xlink="http://www.w3.org/1999/xlink" x="0px" y="0px"
	 viewBox="0 0 512 512" style="enable-background:new 0 0 512 512;" xml:space="preserve">
<style type="text/css">
	.st0{fill:#CE1141;}
	.st1{fill:#061922;}
	.st2{fill:#FFFFFF;}
	.st3{fill:#A1A1A4;}
</style>
<g id="Logos">
	<g>
		<path class="st0" d="M481.1,256.2c0,124.3-100.7,225-225,225s-225-100.7-225-225s100.7-225,225-225S481.1,131.9,481.1,256.2"/>
		<path class="st1" d="M256.1,469.5c-56.5,0-109.7-21.9-149.9-61.6C66,368.1,43.5,315.1,42.9,258.6c-0.7-56.9,20.9-110.8,60.8-151.5
			c39.8-40.8,93.1-63.5,150.1-64.1c0.8,0,1.6,0,2.4,0c56.5,0,109.7,21.9,149.9,61.6c40.2,39.8,62.7,92.8,63.3,149.3
			c0.7,56.9-20.9,110.8-60.8,151.5c-39.8,40.8-93.1,63.5-150.2,64.1C257.6,469.5,256.8,469.5,256.1,469.5"/>
		<g>
			<path class="st2" d="M277,109.7l-7.4,7.5h-20.8l-7.5-7.5V68.5l7.5-7.5h20.7l7.5,7.5V109.7z M255.4,73.3l-2.3,2.3v27.2l2.3,2.3
				h7.6l2.3-2.3V75.6l-2.3-2.3H255.4z"/>
			<path class="st2" d="M397.5,206.9l-9.9-3.5l-9-18.8l3.5-10l37.2-17.8l10,3.5l8.9,18.7l-3.5,10L397.5,206.9z M421,171.6l-3-1.1
				l-24.5,11.7l-1.1,3l3.3,6.8l3,1.1l24.5-11.7l1.1-3L421,171.6z"/>
			<path class="st2" d="M166.8,140.8l0.2,10.5l-14.5,15l-10.5,0.1l-29.5-28.7l-0.1-10.5l14.4-14.9l10.5-0.1L166.8,140.8z M125.6,131
				v3.1l19.5,19h3.1l5.3-5.4v-3.1l-19.5-19h-3.1L125.6,131z"/>
			<polygon class="st2" points="353.4,84.9 331.6,136.5 322.6,132.6 320.2,96 307.5,126.2 297.7,122.1 319.6,70.5 331.6,75.7 
				331.8,107.8 343.3,80.5 			"/>
			<path class="st2" d="M209.2,96.6l-2.5,8.7l15.6,15.4l-11,4.8l-14.5-13.9l-5.3,2.4l7.4,17l-10,4.3l-22.2-51.5l24-10.4l10.2,4.1
				L209.2,96.6z M186.3,101.7l8.9-3.9c0.1,0,1.2-2.9,1.2-2.9l-3-7l-2.9-1.2l-8.9,3.8L186.3,101.7z"/>
			<polygon class="st2" points="397.3,135.1 390.1,127.9 359.2,159.4 350.8,151.1 381.7,119.7 374.4,112.5 382.8,103.9 405.8,126.5 
							"/>
			<polygon class="st2" points="98.2,167.1 94.1,176.4 134.3,194.4 129.4,205.1 89.2,187.1 85.1,196.5 74,191.6 87.1,162.2 			"/>
			<path class="st2" d="M405.6,310.3l-5.5,10.5l-3.9-2.1l-1.1,2.1l-3.5,6.6l1,3l5.5,2.9l-0.7-0.4l3-0.9l6.6-12.6l10.3-3.1l16.8,8.9
				l3.1,10.1l-9.7,18.4c0,0-10.2,3.1-10.2,3l-8.5-4.4l5.5-10.4l4.2,2.3l4.6-8.7l-1-3l-4.4-2.4l-3,1l-6.5,12.3l-10.4,3.1v0.1
				l-16.8-8.9l-3.3-10.3l9.7-18.4l10.3-2.9L405.6,310.3z"/>
			<path class="st2" d="M117.4,348.9l-8.9-1.8l-14.3,16.7l-5.5-10.5l12.9-15.5l-2.7-5.1l-16.4,8.6l-5-9.7l49.8-25.8l12,23.2
				l-3.4,10.4L117.4,348.9z M110.6,326.4l4.4,8.6c0,0.1,3,1,3,1l6.8-3.6l1-3l-4.4-8.6L110.6,326.4z"/>
			<path class="st2" d="M190.9,416.7l-8.1,19.4l-9.8-4l21.6-51.8l23.7,9.9l3.9,10.2l-7.8,18.9l-7.8,4.1L190.9,416.7z M195,406.6
				l7.9,3.3c0.1,0,2.9-1.2,2.9-1.2l2.9-7l-1.2-2.9l-7.9-3.3L195,406.6z"/>
			<polygon class="st2" points="275.9,407 265.7,407.1 266.1,451.2 254.4,451.4 253.9,407.3 243.7,407.4 243.6,395.3 275.8,395 			
				"/>
			<path class="st2" d="M341.1,425.4l-4.2,9.7l-19.4,7.4l-9.7-4.3l-14.6-38.5l4.3-9.7l19.4-7.4l9.7,4.3L341.1,425.4z M308,398.9
				l-1.3,2.9l9.7,25.4l2.8,1.3l7-2.7l1.3-2.9l-9.7-25.4l-2.9-1.3L308,398.9z"/>
			<path class="st2" d="M382.2,371l0.1,9.1l19.4,10.2l-9,7.7l-17.9-9.1l-4.4,3.8l12,14.1l-8.2,7L337.8,371l20-16.9l11,1L382.2,371z
				 M361.8,382.5l7.4-6.3c0.1,0,0.2-3.1,0.2-3.1l-5-5.9l-3.1-0.2l-7.4,6.3L361.8,382.5z"/>
			<path class="st2" d="M144.5,417.1l-8.8-8.1l4.1-8.2l-12-11.1l-7.9,4.8l-8.8-8.1l50.7-30.4l8.8,8L144.5,417.1z M144.8,390.4
				l7.7-15.5l-14.9,8.9L144.8,390.4z"/>
		</g>
		<g>
			<path class="st3" d="M299.8,369c0.2,0.2,0.3,0.5,0.4,0.5c0.7,0,1.8-0.2,1.8-0.2l1.3-0.5l3.6-1.4c0,0,8.8-4.2,8.9-4.2l1.5-0.9
				l0.8-0.3l1-0.7l1.5-1l1.8-1l2.4-1.5l4.1-2.9l2.1-1.6l2.9-2.2l2.7-2l1.3-1l1.7-1.6l1.8-1.8l2.9-3.1l3.5-3.3l4-4.6l2.2-2.9l0.8-1.1
				l2.3-2.9l4.6-6.5l1.3-2.2l3-6l1.7-3.3l2.9-6l1.6-3.6l1.7-5.5c0,0,2.1-7.4,3.1-11.2c0.1-0.4,0.2-0.9-0.1-1.2c-0.7-0.9-1.1-2-1.7-3
				c-0.3-0.5-0.8-1.1-1.1-1.5c-0.3-0.4-1.1-1.4-1.4-1.7c-0.3-0.3-0.8-0.7-1.1-1c-1-0.9-1.7-1.7-2.6-2.4c-0.3-0.2-0.8-0.4-1.1-0.8
				c-2.5-2-5-3.5-7.8-4.7c-1.2-0.5-2.4-1-3.6-1.4c-0.9-0.3-2.3-0.7-3.1-0.8c-0.5-0.1-1-0.1-1.3,0.2c-0.4,0.2-0.4,0.9-0.4,1.4
				c-0.2,1.5-0.2,3.3-0.3,4.8c-0.1,1.6-0.2,3.1-0.4,4.8c-0.1,1.4-0.2,2.9-0.3,4.3c-0.2,1.8-0.4,3.8-0.9,5.6c-0.7,3.5-1.4,7-2.2,10.5
				c-0.2,1-0.3,2-0.8,2.8c-0.7,1.5-1.1,3-1.4,4.6c-0.7,3.4-1.8,6.4-3,9.7c-1,2.6-1.8,5.2-3.3,7.5c-0.1,0.1-0.1,0.3-0.2,0.5
				c-0.7,1.6-1.3,3.3-2.1,4.9c-0.4,1.1-1.1,2-1.5,3c-0.5,1.3-1.3,2.5-2.1,3.7c-1.2,1.8-2.5,3.7-3.6,5.7c-0.8,1.4-1.6,2.7-2.5,4
				c-0.2,0.3-0.4,0.7-0.7,1c-0.8,1.1-1.4,2.2-2.2,3.1c-1.5,2-3.1,3.9-4.8,5.7c-1,1.2-2.2,2.3-3.3,3.5c-1,1-2,2.1-2.9,3
				c-0.2,0.2-0.4,0.4-0.7,0.5c-0.5,0.5-1.2,1-1.7,1.5c-1.3,1.3-2.6,2.5-4.1,3.5c-0.7,0.4-1.3,0.9-1.8,1.3
				C303.5,366.9,301.8,367.9,299.8,369"/>
			<path class="st3" d="M378.6,274.6c0.1,0,0.1-0.1,0.1-0.2c0-0.3,0.1-0.9,0.1-0.9l0.9-7.7l0.5-7.2v-7.2v-1.1l-0.9-8
				c0,0-1-7.3-1.7-11.1c-0.3-1.3-1.1-2.1-2.2-2.5c-0.3-0.2-0.8-0.3-1.2-0.4c-0.8-0.2-1.6-0.7-2.5-0.9c-1.8-0.4-3.6-1.1-5.4-1.4
				c-2.2-0.3-4.3-0.7-6.6-0.8c-1.8-0.2-3.6-0.2-5.4-0.2c-1.4,0-2.3,0-3.8,0c-0.8,0-1.6,0-2,0.5c-0.3,0.4-0.1,1.3,0,2.2
				c0.3,1.7,0.5,2.6,0.9,4.4c0.9,5.2,1.8,10.4,2,15.6c0.1,2.4,0.2,4.8,0.3,7c0,0.7,0,1.1,0,1.8c0,0.4,0.1,0.9,0.3,1.2
				c0.2,0.3,0.5,0.4,1,0.5c0.4,0.1,0.9,0.2,1.3,0.3s1.3,0.3,1.8,0.4c2.1,0.7,4.3,1.4,6.4,2.3c1.4,0.5,2.8,1.4,4.2,2.2
				c0.2,0.1,0.3,0.2,0.4,0.3c0.8,0.7,1.6,1.2,2.4,1.8c2,1.4,3.9,2.7,5.3,4.7c0.3,0.3,0.7,0.7,1,1c0.5,0.5,1.5,2.3,2.3,3.1
				C378.4,274.5,378.5,274.6,378.6,274.6"/>
			<path class="st3" d="M324.5,188.4c0.8,0,1.4-0.1,2-0.1c0.4,0,0.8-0.1,1-0.5c0.2-0.4-0.1-0.9-0.2-1.1c-0.1-0.3-1.5-2.8-1.5-2.8
				l-1.3-2.1l-5.6-8.2l-1.2-1.4l-1.1-1.5l-1.8-2.1l-4.7-5.1l-2-2l-7.2-6.6l-5.9-4.6l-2.1-1.1l-6.8-4.2l-4.8-2.6l-1-0.4l-3.9-1.4
				l-5.9-2.2l-0.4-0.1l-1.8-0.4l-0.5-0.1l-1.6-0.4l-3.5-0.7l-1.6-0.1l-3-0.5l-3.7-0.2l-1.3-0.1h-2.3l-3.9,0.1l-3.8,0.4l-2.9,0.1
				l-2.6,0.3l-2.7,0.5l-2.1,0.7l-3.3,0.7h-0.8l-3,1.1l-1.8,0.5l-1.1,0.7l-2.7,0.8l-1.3,0.8l-1.6,0.7l-4,1.6l-5.1,2l-1.6,0.8l-3.6,2
				l-3,2.1l-2.9,1.5l-1.1,0.7l-3.1,1.6l-0.5,0.3l-3.6,2.8l-2.9,2.1l-0.5,0.4l-3.4,2.6l-1.2,1c0,0-1.8,1.5-1.8,1.7l1.3-0.3
				c0,0,2.3-0.9,2.4-0.9h0.4l3.4-1.3h0.4l3.7-1.4c0,0,2-0.7,2-0.5l2-0.8l2.7-1l6.6-2.5h0.7l3.4-1.2l2.7-1.1l0.3,0.3
				c0,0,5.1,0.1,5.2,0.1l3.3,0.2l0.1,0.1l6.6,0.5h0.1l9.1,0.4v0.2l3.3,2.8h0.2l3.4,3.1l0.3-0.1l4.6,0.1l0.2-0.2l11.4,0.7l0.1,0.2
				l5.1,2.9h0.2l9,4.3l0.1,0.4l5.1-2l7.5,2.5l1.3,2.1l2.7,0.2l2.6,3h0.3l2.2,2.4v0.1h0.3l5.9,1.3l2.2,3.4l5.4,2c0,0,5.9,1.5,8.9,1.8
				C319.3,188.8,322.4,188.5,324.5,188.4"/>
			<path class="st3" d="M375.4,223c-0.2-0.9-0.8-2.6-0.8-2.6l-0.3-1l-0.3-1.2l-1-2.9l-0.9-2.5l-2.8-6.3l-1.3-3l-1.6-3.6l-2-3.1
				l-0.4-0.9l-1.3-2.6l-1.2-2l-0.5-0.7l-8.1-11.1c0,0-0.8-1-1.2-1.4c-0.2-0.2-0.2-0.4-0.5-0.4c0,0,0,0-0.1,0c0,0-2.5,4.1-3.6,5.3
				s-3.1,3-3.1,3s-1.7,1.4-2.1,1.7c-0.3,0.2-1.6,1.1-1.6,1.1l-1.8,1.1c0,0-1.4,0.7-1.6,0.8c-0.2,0.1-0.5,0.2-0.7,0.3
				c-0.1,0.2-0.2,0.3-0.1,0.7c0.1,0.2,0.1,0.4,0.2,0.7c0.8,1.6,1.4,3.3,2.3,4.8c1.2,2.3,2.1,4.8,3,7.2c0.3,0.8,0.7,1.6,1,2.4
				c0.7,2.1,1.3,4.2,2.1,6.4c0.3,1,0.7,1.8,0.9,2.8c0.2,1,0.4,2,0.8,2.8c0.2,0.7,0.5,0.9,1.2,0.9s1.2,0,1.8-0.1
				c2.2-0.1,4.3-0.1,6.6-0.2c0.7,0,5,0.4,5,0.4s1.5,0.1,2.3,0.3c1.6,0.3,3.4,0.7,5,1c1.4,0.3,2.8,0.8,4.1,1.4c0.7,0.3,1.3,0.4,2,0.7
				c0.2,0.1,0.5,0.1,0.7,0.1C375.3,223.5,375.4,223.1,375.4,223"/>
			<path class="st3" d="M346.8,174.2c-0.1-0.3-0.7-1.2-0.7-1.2l-0.4-0.8l-1.2-1.4l-0.8-1.2l-1.5-1.5c0,0-0.3-0.3-0.5-0.4
				c-2.6-2.2-7.8-6.3-7.8-6.4l-1.4-1.2l-2.7-2.4l-13.6-8.1l-10.7-5.1l-5.6-2.2l-2.1-0.8l-6.9-2.4l-4.9-1.3l-4.8-1.1l-0.8-0.1
				l-0.4,0.4l0.2,0.2c0,0,0.4,0.2,0.8,0.3c1.5,0.5,3,1.1,4.4,1.7c1,0.4,1.8,0.9,2.9,1.2c0.7,0.2,1.3,0.4,2,0.8
				c2.3,1.3,4.6,2.6,6.8,4c1.3,0.8,2.6,1.7,3.8,2.8c0.9,0.8,1.8,1.6,2.8,2.2c0.4,0.2,0.9,0.7,1.3,1.1c0.2,0.2,0.4,0.4,0.7,0.5
				c1.3,1.1,2.7,2.1,3.9,3.4c1.3,1.3,2.6,2.6,3.9,3.9c1.3,1.2,2.5,2.4,3.6,3.8c0.9,1.2,1.8,2.3,2.8,3.4c2,2,3.5,4.2,5.2,6.3
				c0.2,0.2,0.3,0.5,0.5,0.9c1.2,1.8,2.2,3.7,3.6,5.4c1,1.2,1.8,2.4,2.5,3.8c0.4,0.9,1,1.6,1.5,2.4c0.3,0.4,0.8,0.7,1.1,0.7
				c0.2,0,0.8-0.2,0.8-0.2l1-0.4c0,0,1.3-0.5,1.7-0.8c0.4-0.2,1.3-0.7,1.6-1c0.3-0.3,1.6-1.2,2.3-1.8c0.8-0.7,2.2-2.4,2.2-2.4
				l1.1-1.4l1.8-3C346.5,175.2,346.8,174.6,346.8,174.2"/>
			<path class="st3" d="M341.2,219.3c-0.8-2.3-1.3-4.3-2.1-6.6c-0.7-1.8-1.2-3.7-2.1-5.4c-0.5-1.1-0.8-2.2-1.2-3.3
				c-0.2-0.5-0.4-1.1-0.7-1.6c-1-2.8-2.4-5.1-3.7-7.8c-0.1-0.1-0.1-0.3-0.2-0.5c-0.1-0.2-0.2-0.4-0.5-0.7c-0.3-0.2-0.7-0.1-1.2,0
				c-1.2,0.1-2.6,0.3-3.3,0.3c-0.5,0-2.8,0.2-4.7,0.3l-0.4-0.1H320h-1.1l-5.9-0.8c-2.2-0.3-7-1.5-7-1.5l-3.6-1.2L298,189l-0.3,0.2
				l-6.8-0.5l-0.2,0.1l-3.9-2.9h-0.4l-2.4-2.2l-0.1-0.4l-2.7-0.4l-0.2,0.1l-2.2-0.8l-0.2-0.2l-5.1,0.3l-4.6-1.8l-15.9,0.9l-0.2-0.2
				l-3,0.2l-0.3,0.2l-7.8,0.5l-0.2-0.2l-11.2,6.4l-0.1,0.4l-0.5,0.4l-0.2-0.2l-5.6-0.5l-0.3,0.1l-9.9,0.1l-0.2-0.1l-2.8-0.1l-1-0.4
				l-10.4,8v0.2l-3.7,2.8l-4.1-2l-0.2,0.1l-1.5-0.4c0,0-7.5,2-7.4,2c0.1,0-7-1.1-7-1.1l-0.4-0.4l-1.3,1.4l-2.8,1.3l-0.1,0.2
				l-5.6,4.2l-7.9,5.7l-8.9,6.6l-4,2.9l-0.2,1.7l-1.7,3.9l-0.8,3.4l-1.1,6.8l-0.7,2.9l-0.2,3.6l-1,7.4l-0.4,16.2l0.4,1l0.3,4.4
				c0,0,0.1,0.8,0.2,0.8l0,0l19.7-20.5l6.5-2.6l5.4-0.3l3.3-3.8l0.3-0.8l0.4,0.2l8.9-1l0.4-0.3h3.4l0.5,0.2l1.1-1.4l4-2.5l4.2-2.9
				l12,0.1l0.1,0.2l4.7,0.4l3.7-0.8l6.7-6.8h0.1l5.3-5.1l8-1l0.3-0.2l0.3,0.3l4.1,2l0.3-0.3l3.7-0.4l0.2-0.2l3.5-0.5l0.3-0.2
				l3.8,3.3l0.2-0.2l7.7-0.1l0.7-0.4l6.2,0.3l0.3,0.1l1-0.2l0.2-0.3l2.5-1.1h0.3l2.8-1.3l0.2-0.2l3-1.2l0.2-0.3l8.5-3.3l0.1-0.1
				l1.5-0.4l0.3-0.3l0.4,0.4l2.5,1.2h0.8l2.7,1.5l0.2-0.2l0.9-0.4h0.1l1.4-0.7l0.1-0.1l2-0.4l5.1,1.3l1.1-0.2l1,0.7l3.7,0.5l3.7,1.4
				c0,0,2.1-0.1,2.2-0.1l0.7,0.4l0.5-0.3c0,0,7.2-0.9,10.7-1.2c2.4-0.2,4.7-0.4,6.9-0.7c1.3-0.1,2.6-0.2,3.9-0.4
				C341.1,220.4,341.4,220.2,341.2,219.3"/>
			<path class="st3" d="M346.4,256.1c0-0.5-0.1-0.9-0.1-1.3c-0.1-1.4-0.1-2.7-0.2-4.1c0-0.4-0.1-0.9-0.1-1.4
				c-0.1-1.7-0.1-3.5-0.3-5.2c-0.2-2.2-0.5-4.3-0.9-6.5c-0.2-1.6-0.5-3.4-0.9-5c-0.3-1.7-0.7-3.4-1-5.1c-0.4-1.7-0.8-2-2.6-1.7
				c-0.1,0-0.3,0-0.4,0.1c-0.7,0.1-1.6,0.2-2.3,0.3c-3.5,0.4-6.8,0.7-10.3,1.1l-10.1,3.5l-14.5-0.4l-1.6-0.5v0.2l-4.3,3.1h-0.7
				l-3.4,3.1l-0.2,0.4l-8.7,1.2l-7.9,6.2H275l-4.2,2.5l-1.6,0.2l-1.6,1.4l-0.4-0.3l-8.1-0.5l-1.4,1.6v0.2l-7,7.7l-0.1,0.4l-0.2,0.1
				l-9,10.2h-2.5l-0.2,0.2l-7.4,1.3h-0.5c0,0-0.1,0.3-0.2,0.3l-12.1,6.7l-5.4-0.7l-1.2,0.4l-5.4-0.3l-5.3,5.7l-3.3,0.7l-1.8-0.1
				l-2,0.8l-1.1-0.1l0.1,0.2l-6.7,5.2l-0.7,0.1l-10.4,8.1l0.1,0.4l-6.4,15.6l0.2,0.7l-10.6,1l-3.5,3l-0.3,1.1l4.8,6.6l3.5,5.3l3,3.8
				l4.9,5.3c0,0,0,0.3,0.1,0.4c0.1,0,0.7,0.1,0.7,0.1l2.9,1l3.6,1.1c0,0,0,0.2,0.1,0.2h0.3l6,2.3h0.4l0.3,0.4h0.5l1.4,1l2.5-1.4h0.1
				l1.1-0.8l9.1,2.3l6.7-3.5l14.9-1.5l6.1-9.8c1-1,2.7-2.7,2.7-2.7h0.2c0,0,2.1-2,2.2-2V326l3.8-3.5l1.7-1.8l0.4-0.2l2.1-2.2
				l1.6-1.7l0.4-0.1l-0.4-1.5l1.7-6.3l3.4-1l0.1-0.1l1-0.2v-0.5l4.4-7.3l0.4-0.2l1.8-3.6l3-1.7l0.4-0.5l0.7,0.1c0,0,1.7-1.1,1.8-1
				h0.2l3.3-1.4l0.2-0.4l11-5l0.7-0.1l0.1-0.7l0.4-0.3l1.1-3.8l3.5-1.5l4-0.4l3.6-2.5l5.2,0.2l0.5,0.4l0.2-0.3l7.3-3.3v-1l1.7-3.3
				l3.6-1l0.2-0.2l4.9-1l1.8-2.2h0.2c0,0,1.1-1.1,1.2-1.1l3.4,0.4l0.2,0.1l1.8,0.2l1.1,0.1c0,0,4.9-2.3,6.9-3
				c0.9-0.3,1.7-0.5,2.5-0.9c1.1-0.4,2.3-0.8,3.4-1.2c0.5-0.2,1.1-0.3,1.7-0.5l2.3-0.4l2.6-0.4l1.6-0.1c0,0,0.8-0.1,1.1-0.1
				s0.8,0,1.1-0.3s0.3-0.7,0.3-1C346.4,256.6,346.4,256.5,346.4,256.1"/>
			<path class="st3" d="M346.3,265.6c0-0.4,0.1-1-0.2-1.4c-0.3-0.3-0.8-0.4-1-0.4c-0.2,0-1.5,0.2-1.5,0.2l-2.1,0.3
				c-0.2,0-0.4,0.1-0.7,0.1c-1.3,0.3-2.5,0.5-3.8,0.9c-1.4,0.4-2.8,0.8-4.1,1.3c-1.4,0.7-2.9,1.1-4.3,1.7c-0.5,0.2-5.2,2.5-7.3,3.6
				l-2.7,2.9l-0.1,0.7l-0.3-0.1l-1.7,0.1l-0.1,0.1l-5.5,1.8l0.1,0.7l-0.5,0.5v0.3l-2.6,4.6h-0.3l-0.1,0.4c0,0-0.5,0.9-1.1,1.8
				l-11.7,7.5h-0.2l-1.7,1.5l-1.2,5l-1.2,1.1l-4.6,16.9l0.7,2l-6.7,3.3h-1.1l-1.3,5.9l-0.2,0.2l-1.6,5.3l0.1,0.3l-0.7,4.7l-0.2,0.3
				l0.2,0.4l-6.5,10.3l-0.5,0.1l-1.6,2.5v0.5l-5.5,7.8l-5.9,3.5l0.3,0.5l-0.3,2.4l0.5,0.9l-0.9,0.2l-4.2,2.5l-0.4-0.1l-6.2,3.7
				l-0.8,1.2c0,0.1,2.4,0.3,2.4,0.3l4,0.3l2.7,0.1h3.1l1.5,0.1l2.4,0.1l2.4-0.1l8.7-1.1l5.2-0.9l3.9-1.1l4.2-1.2l5.4-2.2l0.4-0.2
				l1.5-0.9c0,0,4.3-2.3,6.3-3.8c3.4-2.5,6.8-5.1,9.9-8c1.1-1,2.1-2,3.1-3c1-1,2-2,2.9-2.9c0.2-0.2,0.4-0.3,0.4-0.5
				c0.3-0.8,1-1.3,1.5-2c0.4-0.4,0.9-0.9,1.2-1.3c0.7-1.1,1.6-1.8,2.5-2.7c0.7-0.7,1.3-1.4,1.8-2.3c1.1-1.4,2-2.9,2.9-4.4
				c1.3-2,2.7-3.9,3.8-6c1.2-2.2,2.4-4.4,3.7-6.6c1.1-1.8,2.2-3.8,3-5.7c1.3-3.3,2.8-6.5,4-9.9c1.3-3.5,2.4-7.2,3.4-10.7
				c0.8-2.7,1.2-5.5,2.2-8.1c0.1-0.3,0.2-0.8,0.2-1.1c0.3-2.2,0.8-4.4,1.1-6.6c0.3-2.1,0.7-4.2,1-6.3c0.2-1.4,0.4-2.8,0.5-4.3
				c0.2-2,0.2-4,0.3-6c0-0.2,0-0.7,0-0.7S346.3,266,346.3,265.6"/>
		</g>
	</g>
</g>
</svg>
