<?xml version="1.0" encoding="utf-8"?>
<!-- Generator: Adobe Illustrator 21.0.0, SVG Export Plug-In . SVG Version: 6.00 Build 0)  -->
<svg version="1.1" id="Layer_1" xmlns="http://www.w3.org/2000/svg" xmlns:xlink="http://www.w3.org/1999/xlink" x="0px" y="0px"
	 viewBox="0 0 512 512" style="enable-background:new 0 0 512 512;" xml:space="preserve">
<style type="text/css">
	.st0{fill:#D9042E;}
	.st1{fill:#F2C13C;}
</style>
<g>
	<path class="st0" d="M207.3,410.7c3.6,1,6.5,3.3,9.5,5.4c21.2,14.7,44.8,23.1,70.2,26.7c17.9,2.6,35.7,1.9,53.8-1.3
		c-0.3,1.8-1.6,1.8-2.5,2.2c-25.7,10.9-52.5,16.4-80.4,16.2c-46.2-0.2-87.9-14.1-124.5-42.3C91.5,385.4,65,343.1,56.1,290.8
		c-11.4-66.9,6-126,51.8-176.1c32.5-35.5,73.2-56.8,120.8-63.4c60.7-8.3,115,7.5,162.3,46.6c3.2,2.6,4.8,6.2,6.5,9.7
		c5.3,10.9,8.7,22.5,11.3,35.5c-20-14.5-41.3-24.1-64.6-29.1c-5.1-0.9-10-2.5-14.6-5c-7.9-4.2-16.2-7.6-25-9.5
		c-6.8-2.5-13.9-3.7-21-4.7c-16.8-2.7-33.7-3.2-50.6-0.9c-14.6,2-28.8,5.6-42.2,11.7c-0.6,0.3-1.4,0.1-1.5,1.1l-0.1-0.1
		c-6.6,2.1-12.6,5.5-18.3,9.4c-0.5,0.1-0.9,0.2-0.8,0.8c0,0,0,0,0,0c-1-0.3-1.5,0.4-2.2,0.8c-7.6,4.7-14.9,9.9-21.4,16
		c-47.2,44.6-63.7,98.7-49.1,161.9c3.9,16.7,10.8,32.4,20.5,46.7c2.8,5.1,6.1,9.8,10,14c10.8,14.4,24.2,26.1,39.2,35.8
		C179.6,400.2,192.9,406.7,207.3,410.7z M239.5,79.5c-0.2-2-0.3-4-0.5-6c-0.7-5.2-0.8-5.4-5.9-5.1c-5.8,0.4-11.5,1.2-17.3,1.9
		c-2.3,0.3-4.6,0.2-4.7-2.8c-0.1-2.4,2.4-2.5,3.9-2.8c5.9-1.1,11.9-2.3,17.8-2.9c3.6-0.4,2.9-2.6,3-4.7c0.2-3-1.9-2.6-3.6-2.4
		c-2.9,0.3-5.8,0.8-8.8,1.3c-7.3,1.3-14.6,2.7-21.7,5c-2.7,0.9-3.9,2.4-3.1,5.3c0.8,3.1,1.6,6.2,2.1,9.3c0.5,3.5,2.4,4.5,5.7,4
		c5.8-0.9,11.7-1.6,17.6-2.4c1.7-0.2,3.7-1.1,4.2,1.7c0.5,2.8-1.6,3-3.4,3.4c-5.6,1.2-11.3,2.3-16.8,4.2c-1.8,0.6-3.3,1.2-2.7,3.7
		c0.6,2.3,1.9,2.6,4,2.2c7.5-1.5,15.1-2.8,22.6-4.3C239.5,86.8,239.5,86.7,239.5,79.5z M315.3,68c0.2-4.3-1.6-6.6-5.4-7.6
		c-7.2-1.8-14.4-3.5-21.7-5c-5.4-1.2-8.5,1-9.4,6.4c-1,6.4-2,12.9-2.8,19.3c-0.4,3.1,0.8,5.3,4.1,6c8,1.7,15.9,3.5,23.9,5.2
		c2.5,0.5,4.8-0.3,5.6-2.7C312,82.3,313.9,74.8,315.3,68z M148.9,86.1c-1.1,0.2-2.3,0.6-3.4,1.4c-6.9,5.2-13.8,10.4-20.6,15.7
		c-3.9,3.1-4.1,6.3-0.7,10c4.2,4.5,8.5,8.9,12.9,13.3c2.7,2.7,5.2,3,8.2,0.8c6.2-4.5,12.4-9.2,18.5-13.8c2.7-2.1,3.1-4.6,1.3-7.4
		c-3.9-5.9-7.9-11.8-11.8-17.7C152.2,86.8,150.8,86.2,148.9,86.1z M328.3,81.9c1.9,5.2,3,10.4,3.6,15.5c0.6,5.1,3.5,7.1,7.5,8.7
		c2.9,1.2,4.9,0.8,6.4-2.1c3.6-6.7,7.2-13.3,11-19.8c1.6-2.7,1.2-4.4-1.8-5.4c-0.8-0.3-1.5-0.7-2.2-1.1c-2.3-1.3-3.8-1.1-5,1.6
		c-2.2,4.7-4.7,9.2-7.2,13.9c-0.3-0.5-0.5-0.7-0.5-0.8c-1.5-6.7-2.8-13.4-4.4-20c-0.7-3-6-6.2-9.5-6.1c-3.2,0.1-3.7,3-4.6,5.2
		c-2.6,6.6-4.8,13.3-7.5,19.8c-1.3,3.2,0.8,4,3,4.8c2.1,0.8,4.4,2.4,5.8-1.2C324.5,90.6,326.4,86.5,328.3,81.9z M188.7,90.5
		c0.3,2-0.5,3.4-2.5,4.1c-1.3,0.5-2.6,1.2-3.9,1.7c-4.1,1.9-5.5,1.5-7.7-2.5c-2.6-4.8-5.1-9.6-7.4-14.5c-1.1-2.2-2.6-2.5-4.6-1.7
		c-0.8,0.3-1.4,0.8-2.2,1.2c-4.5,2.4-4.6,2.6-1.9,7.2c3.3,5.7,6.7,11.4,10,17.2c2,3.5,4.2,4.3,7.9,2.7c7-3.1,14-6.3,20.9-9.5
		c3.7-1.7,4.6-3.2,3.3-7c-2.5-7.2-5.2-14.4-7.9-21.6c-0.6-1.7-1.8-2.3-3.3-1.4c-2.6,1.6-6.7,0.9-7.8,4.9c-0.1,0.6,0.5,1.3,0.7,2
		c1.8,4.5,3.6,9,5.4,13.5C188.4,87.9,189,89.1,188.7,90.5z M97.5,134.3c-2.2,0.8-3.2,2.9-4.4,4.7c-1.3,1.8-0.9,3.2,0.9,4.5
		c6.5,4.6,12.9,9.2,19.4,13.8c3.2,2.3,4.4-0.7,5.9-2.4c1.6-1.8,1.9-3.6-0.4-5.4c-6.2-4.9-6.2-5-0.8-10.9c4.7-5.2,4.7-5.2,9.9-0.3
		c1.1,1,2.2,2.3,4,1.3c4.4-2.4,4.8-5,1.3-8.4c-0.8-0.8-1.5-1.5-2.2-2.3c-4.5-4.7-9-9.5-13.4-14.2c-1.5-1.6-2.8-1.8-4.5-0.1
		c-4.9,4.8-4.9,6.2,0.4,10.7c0.4,0.3,0.7,0.6,1.1,0.9c1.8,1.5,2,3,0.3,4.8c-1.9,2-3.8,4-5.3,6.2c-2.1,3-4.1,2.9-6.7,0.7
		C101.4,136.4,100,134.7,97.5,134.3z M262.9,60.3c3.5,0,6.1,0,8.7,0c1.7,0,3.4,0.1,3.5-2.4c0.1-2.2-0.7-3.1-3-3.4
		c-9.5-1.1-18.9-1-28.4-0.6c-2,0.1-2.9,1-2.9,3.1c0,2.2,1.2,2.6,2.9,2.8c2.8,0.3,5.7-0.5,8.5,0.6c0,6.7,0,13.4,0,20
		c0,1.7-0.3,3.8,1.4,4.4c2.4,0.8,5.2,1.2,7.6,0.2c2.1-0.8,1.7-3.1,1.7-5C262.9,73.5,262.9,67.1,262.9,60.3z"/>
	<path class="st1" d="M372,365.6c-5.1,1.3-9.6,3.9-14.7,5.2c-17.5,4.2-34.6,2.2-51.5-3.2c-20.3-6.5-38.2-17.3-54.4-31
		c-18.6-15.7-38.9-28.3-62-36.3c2.6-2.1,4.3-4.7,5-7.9c2.8-12.1,5.7-24.2,8.5-36.3c2.4-10.1,4.7-20.3,6.9-30.5
		c1.6-7.4-1.7-11.7-9-11.8c-5.5-0.1-10.9,0-16.4,0c1.3-6.4,4.9-11.7,7.4-17.6c9.6,2.9,19.1,4.2,28.9,4.1c17.6-0.1,34.3-3.9,50-11.8
		c15.2-7.7,31.2-12.2,48.1-14c25-2.7,49.2,0.3,72.4,10.2c3.9,1.7,7.7,3.7,11.5,5.6c0.6,1.2,1.3,2.3,1.8,3.5
		c9.5,23.7,13.4,48.3,11.3,73.9c-2.1,25.4-9.7,49-22.9,70.8C387,348.2,380.3,357.5,372,365.6z M272.5,290.3
		c-1.4-9-2.8-18.4-4.4-27.7c-0.6-3.7-0.1-6.7,1.8-10c6.7-11.3,13.1-22.9,19.6-34.3c0.7-1.2,1.8-2.2,1.5-4c-2.2,0-4.4,0.3-6.4-0.1
		c-7.5-1.5-11.8,1.8-14.7,8.6c-1.9,4.6-4.9,8.8-7.4,13.2c-0.2-0.1-0.4-0.2-0.7-0.3c1.7-7,3.3-14,5-21.4c-3.8,0-7,0.1-10.2,0
		c-2.4-0.1-3.5,0.6-4.1,3.1c-5.3,21.9-10.8,43.8-16.3,65.6c-1.5,6.1-3,12.1-4.6,18.6c3.9,0,7.4-0.2,10.8,0.1c2.6,0.2,3.4-0.9,4-3.3
		c1.3-5.9,2.8-11.8,4.4-17.6c0.3-1.1,0.2-2.5,1.6-3.5c1.3,7.3,2.6,14.3,3.8,21.3c0.2,1.3,0.1,2.8,1.9,2.9c5.1,0.1,10.1,0,14.9,0
		c1-2.1-0.2-3.8,0.1-6.3c3.7,5.3,8.3,6.8,13.7,6.5c1.5-0.1,3.1,0,4.6,0c7.8,0,11.4-2.8,13.3-10.5c1.4-5.8,2.9-11.5,4.2-17.3
		c0.6-2.6,1.7-5.1,1.6-8.1c-3.9,0-7.6,0.1-11.2,0c-2-0.1-2.9,0.5-3.4,2.6c-1.3,5.8-2.9,11.5-4.5,17.2c-0.4,1.4-0.9,3.2-2.6,2.8
		c-2.1-0.4-1.1-2.2-0.8-3.5c1.6-6.7,3.2-13.4,4.7-20.1c0.5-2.3,1.6-3.1,3.9-3c4.3,0.2,8.6,0,12.8,0.1c1.4,0,2.6,0,3-1.7
		c3-12.4,6.2-24.8,9.1-37.3c1.1-4.7-1.8-8.3-6.6-9.4c-3.8-0.8-7.6-0.4-11.4-0.4c-9.1-0.1-14,3.9-16.1,12.9
		c-1.8,7.7-3.7,15.5-5.5,23.2C279.1,262.9,275.8,276.7,272.5,290.3z M375.1,244.5c4.6,0,8.9,0,13.2,0c1.7,0,2.2-0.9,2.5-2.4
		c1.2-5.9,2.4-11.8,3.7-17.8c1.7-7.8-4.5-12.8-10.6-12.7c-3.2,0-6.4-0.1-9.6-0.1c-7.5,0-11.4,2.8-13.6,10c-1.4,4.6-2.5,9.4-3.5,14.1
		c-1.4,6.1-3.5,12.1-3.7,18.5c-0.2,5.5,1.7,7.3,7.1,7.5c1.3,0.1,2.6,0.2,3.9,0.5c3.7,0.9,4.9,2.9,3.9,6.6
		c-1.5,5.7-3.1,11.4-4.6,17.2c-0.4,1.4-0.7,3-2.7,2.5c-2.4-0.5-1.1-2.2-0.8-3.4c1.5-6.3,3.1-12.6,4.7-19.1c-4.9,0-9.3,0-13.7,0
		c-1.1,1.3-1.1,2.8-1.4,4.2c-1.5,7.4-4.4,14.6-4.7,22.2c-0.2,5.9,2.4,8.6,8.4,9.3c5.1,0.6,10.2,0.6,15.3,0c6.5-0.8,10.5-4,12.1-10.3
		c1.5-5.7,2.9-11.5,4.3-17.3c1.2-4.8,2.5-9.6,3.5-14.5c1.5-6.8-1.2-10.2-8.2-10.4c-1.7-0.1-3.3-0.2-5-0.4c-3.5-0.4-4.5-1.7-3.9-5.2
		c1.2-6.3,2.5-12.6,3.8-18.8c0.3-1.5,0.5-3.8,2.8-3.4c2.7,0.4,1.3,2.7,1.1,4.1C377.9,231.6,376.5,237.9,375.1,244.5z M235.8,264.5
		c-3.1,0-6,0.1-9,0c-2-0.1-2.9,0.6-3.4,2.7c-1.4,6.4-3,12.7-4.6,19c-0.3,1.3-0.8,2.8-2.5,2.4c-1.8-0.4-1.4-2-1.1-3.3
		c4.7-19.8,9.5-39.7,14.2-59.5c0.3-1.4,0.8-3.1,2.7-2.6c2.1,0.5,1.2,2.2,0.9,3.5c-1.7,7.3-3.5,14.5-5.2,22c4.4,0,8.5,0,12.7,0
		c0.5-2,1-3.8,1.4-5.7c1.4-6.2,3-12.5,4.2-18.7c1.5-7.3-1.9-11.2-9.2-11.3c-2.3,0-4.5,0-6.8,0c-9.2,0-13.6,3.5-15.7,12.6
		c-2.1,8.8-4.2,17.5-6.3,26.3c-3,12.7-6.3,25.3-9.1,38.1c-1.6,7.3,2.4,12.3,9.9,13c2.5,0.2,5,0.1,7.5,0.1c6.9,0,12.1-4.1,13.6-10.7
		c1.4-6.2,2.9-12.5,4.2-18.7C234.9,270.7,236.2,267.9,235.8,264.5z M345.5,207.8c-4.5,0-8.9,0.2-13.2-0.1c-2.6-0.1-3.7,0.8-4.3,3.3
		c-2.7,11.4-5.5,22.8-8.4,34.2c-3.5,14.2-7.1,28.3-10.5,42.5c-2.1,8.8,1.9,13.7,11,13.9c2.9,0,5.7,0,8.6,0c5.4,0.1,9.5-2.4,11-7.3
		c2.8-9.3,4.9-18.7,7.3-28.4c-4.5,0-8.5,0-12.7,0c-1.7,6.9-3.4,13.7-5.2,20.5c-0.3,1.2-0.7,2.4-2.3,2.2c-1.9-0.3-1.2-1.8-1-2.8
		c4.7-19.4,9.5-38.7,14.2-58.1c0.5-1.9,1.5-2.4,3.3-2.3c3.4,0.1,6.9,0.1,10.3,0c1,0,2.3,0.4,2.7-1.1c0.8-3.5,2.2-6.9,2.3-10.9
		c-4.8,0-9.2,0-14,0C345,211.5,345.2,209.8,345.5,207.8z"/>
	<path class="st0" d="M372,365.6c8.3-8.1,15-17.4,21-27.3c13.2-21.8,20.8-45.4,22.9-70.8c2.1-25.6-1.8-50.1-11.3-73.9
		c-0.5-1.2-1.2-2.3-1.8-3.5c-2.1-6.1-5.1-11.8-8.6-17.1c-2.6-6.4-7.3-11.5-11.2-17c-9.2-12.8-20.6-23.5-33.4-32.8
		c-1-0.7-2.5-1.2-2.9-2.9c2.9-0.3,5.2,1.4,7.8,1.3c11,3.9,21.9,7.7,32,13.5c46.4,26.4,74.6,65.7,82.7,118.5
		c12.3,80.9-37.5,155.1-111.4,177.8c-45.5,14-89.1,8.7-130.4-15c-0.8-0.4-1.8-0.7-2.2-2.1c2.3-0.6,4.4,0.8,6.5,0.5
		c0.9,0.2,1.8,0.5,2.8,0.6c18.5,1.9,36.9,1.4,55.2-2.8c22.9-5.3,43.8-14.7,62.4-29.2C359.3,378.4,366.1,372.5,372,365.6z"/>
	<path class="st1" d="M354.4,121.8c-2.6,0.1-4.9-1.7-7.8-1.3c0.3,1.7,1.8,2.2,2.9,2.9c12.8,9.3,24.2,20,33.4,32.8
		c3.9,5.5,8.7,10.5,11.2,17c-10.3-3.7-20.8-7.1-31.7-8.9c-14.5-2.4-29-2.6-43.6-1.3c-20,1.8-38.5,8.1-56.5,16.7
		c-19.4,9.3-40.1,11.8-61.3,7.1c-0.7-0.2-1.4-0.4-2-0.6c-0.3-0.1-0.6-0.3-1.2-0.6c4.3-7.8,9.3-15.2,14.7-22.2
		c23.3-30.4,53.4-51.1,89.8-62.9c0.8-0.3,1.6-0.6,2.3-0.8c8.8,2,17.1,5.4,25,9.5c4.7,2.4,9.5,4.1,14.6,5
		C347.7,116.6,351.1,119.2,354.4,121.8z"/>
	<path class="st1" d="M352,383.7c-18.5,14.5-39.5,23.9-62.4,29.2c-18.2,4.2-36.6,4.7-55.2,2.8c-0.9-0.1-1.8-0.4-2.8-0.6
		c-8.6-6.5-17.2-13-24.8-20.8c-21-21.5-34.3-47-38.9-76.8c-0.5-3.1-0.9-6.3-1.4-9.7c5.2-0.2,9.9,0.8,14.5,2.1
		c21.2,6,39.9,17,57,30.7c14.7,11.8,29.4,23.2,46.7,31.1c19.1,8.7,38.8,13.6,59.9,12.7C347.1,384.2,349.5,383.2,352,383.7z"/>
	<path class="st1" d="M117.9,342.2c-9.7-14.3-16.6-30-20.5-46.7c-14.6-63.3,2-117.3,49.1-161.9c6.5-6.1,13.7-11.4,21.4-16
		c0.7-0.4,1.3-1.1,2.2-0.8c0.3,1.8-1,3.1-1.6,4.6c-5.5,11.6-9.3,23.5-8.4,36.6c0.9,13.2,6.9,23.4,17.5,31c1.1,0.8,2.3,1.6,3.5,2.5
		c-3.7,8.5-7.4,16.8-11,25.1c-2.6-1.9-5.5-2.6-8.7-2.6c-6.3,0.1-12.6,0.1-18.9,0c-2.5-0.1-3.5,0.6-4,3.2
		c-5.3,23.5-10.8,46.9-16.2,70.3c-1,4.4-2.5,8.8-2.9,13.7c3.8,0,7.3-0.2,10.7,0.1c2.9,0.2,3.9-0.9,4.5-3.5
		c2.5-10.7,5.2-21.4,7.8-32.1c0.6-2.5,1.6-3.5,4.5-2.4c-3,12.6-5.9,25.1-8.9,37.8c2,0.1,3.5,0.2,5,0.3c-10.7,5.6-16.9,14.9-21,25.8
		C120.1,331.8,118.8,337,117.9,342.2z"/>
	<path class="st1" d="M190.9,105.6c13.5-6.1,27.6-9.7,42.2-11.7c16.9-2.3,33.8-1.8,50.6,0.9c-16.2,6.9-31.5,15.5-45.4,26.3
		c-20.2,15.8-36.5,35-49.5,56.9c-0.5,0.9-1.1,1.8-1.8,3.1c-7.4-4.2-12.6-10.1-14.5-18.4c-2.3-9.8-0.5-19.3,3.1-28.5
		c3.3-8.6,7.8-16.5,12.7-24.2c0.6-1,2.1-1.8,1.2-3.4c0,0,0.1,0.1,0.1,0.1C190.5,107.2,190.6,106.2,190.9,105.6z"/>
	<path class="st0" d="M184.4,213.7c5.5,0,10.9-0.1,16.4,0c7.4,0.2,10.7,4.4,9,11.8c-2.2,10.2-4.6,20.3-6.9,30.5
		c-2.8,12.1-5.7,24.2-8.5,36.3c-0.8,3.3-2.4,5.9-5,7.9c-8,3-16.1,2.4-24.1,0.5c-4.5-1.1-6.5-5.2-5.3-10.6c2.1-9.9,4.5-19.6,6.9-29.4
		c2.8-11.6,5.6-23.3,8.4-34.9c1.2-5,3.4-9.4,8.5-11.5C184.2,214.3,184.5,214.3,184.4,213.7L184.4,213.7z M194.3,227.5
		c-0.1-1.6-1.3-1.6-2.5-1.4c-1.5,0.3-1.5,1.6-1.7,2.8c-3,12.6-6.1,25.1-9.1,37.6c-1.6,6.4-3.1,12.9-4.7,19.3
		c-0.3,1.1-0.5,2.2,0.8,2.6c1.3,0.4,2.3-0.1,2.8-1.4c0.2-0.6,0.3-1.2,0.4-1.7c3.7-15.4,7.4-30.9,11.2-46.3
		C192.5,235.2,193.3,231.4,194.3,227.5z"/>
	<path class="st0" d="M142.9,301.1c-1.5-0.1-3-0.2-5-0.3c3-12.7,5.9-25.2,8.9-37.8c-2.9-1.2-3.9-0.1-4.5,2.4
		c-2.5,10.7-5.3,21.4-7.8,32.1c-0.6,2.6-1.6,3.8-4.5,3.5c-3.4-0.3-6.9-0.1-10.7-0.1c0.4-4.9,1.8-9.2,2.9-13.7
		c5.4-23.4,10.9-46.9,16.2-70.3c0.6-2.5,1.6-3.2,4-3.2c6.3,0.2,12.6,0.1,18.9,0c3.2,0,6.1,0.7,8.7,2.6c1.5,2.2,1.7,4.6,1.1,7.1
		c-2,8.9-4.1,17.8-5.9,26.7c-0.7,3.6-2,6.5-6,7.9c2.7,2.5,3.2,5.2,2.4,8.5c-2.7,10.7-5.3,21.4-7.7,32.1c-0.4,1.8-1.1,2.3-2.8,2.3
		C148.4,301,145.7,301.1,142.9,301.1z M146.5,248c2.5,1,3.8,0.7,4.4-1.9c1.3-5.5,2.8-11,4.2-16.4c0.3-1.1,0.9-2.4-0.9-2.8
		c-1.3-0.3-2.3,0.2-2.7,1.6C149.9,235,148.2,241.5,146.5,248z"/>
	<path class="st1" d="M207.3,410.7c-14.4-3.9-27.7-10.5-40.2-18.6c-15-9.8-28.4-21.4-39.2-35.8c0.6-12.3,2.7-24.3,9.4-34.9
		c4.1-6.5,9.8-10.8,17.6-12.7c1.3,10.2,3,20.3,5.9,30c6.5,21.6,17.2,40.7,32.2,57.6C197.6,401.3,202.7,405.8,207.3,410.7z"/>
	<path class="st1" d="M170.2,116.7c0-0.6,0.4-0.7,0.8-0.8C170.9,116.4,170.8,116.8,170.2,116.7z"/>
	<path class="st1" d="M184.4,213.7c0.1,0.5-0.3,0.6-0.6,0.5C183.9,213.9,183.9,213.5,184.4,213.7z"/>
	<path class="st0" d="M272.5,290.3c3.3-13.6,6.6-27.4,9.9-41.2c1.8-7.7,3.7-15.4,5.5-23.2c2.1-9,6.9-12.9,16.1-12.9
		c3.8,0,7.6-0.4,11.4,0.4c4.8,1.1,7.6,4.6,6.6,9.4c-2.8,12.5-6,24.9-9.1,37.3c-0.4,1.7-1.7,1.7-3,1.7c-4.3,0-8.6,0.1-12.8-0.1
		c-2.3-0.1-3.4,0.7-3.9,3c-1.5,6.7-3.1,13.4-4.7,20.1c-0.3,1.3-1.2,3.1,0.8,3.5c1.7,0.4,2.3-1.5,2.6-2.8c1.6-5.7,3.2-11.4,4.5-17.2
		c0.5-2.1,1.4-2.7,3.4-2.6c3.7,0.1,7.3,0,11.2,0c0.1,3-1,5.5-1.6,8.1c-1.3,5.8-2.8,11.5-4.2,17.3c-1.9,7.6-5.5,10.5-13.3,10.5
		c-1.5,0-3.1-0.1-4.6,0c-5.4,0.3-10-1.2-13.7-6.5c-0.3,2.5,0.9,4.2-0.1,6.3c-4.8,0-9.9,0-14.9,0c-1.8,0-1.7-1.6-1.9-2.9
		c-1.2-7-2.5-14-3.8-21.3c-1.4,1-1.4,2.4-1.6,3.5c-1.5,5.8-3,11.7-4.4,17.6c-0.5,2.3-1.3,3.5-4,3.3c-3.4-0.3-6.9-0.1-10.8-0.1
		c1.6-6.5,3.1-12.6,4.6-18.6c5.4-21.9,10.9-43.7,16.3-65.6c0.6-2.6,1.7-3.3,4.1-3.1c3.2,0.2,6.4,0,10.2,0c-1.7,7.4-3.4,14.4-5,21.4
		c0.2,0.1,0.4,0.2,0.7,0.3c2.5-4.4,5.5-8.6,7.4-13.2c2.9-6.8,7.1-10.1,14.7-8.6c2,0.4,4.2,0.1,6.4,0.1c0.2,1.8-0.9,2.9-1.5,4
		c-6.5,11.5-12.9,23-19.6,34.3c-2,3.3-2.5,6.4-1.8,10C269.7,272,271.1,281.3,272.5,290.3z M307.6,222.9c-2.6-1.2-3.9-0.6-4.5,1.8
		c-1.8,7.5-3.7,14.9-5.6,22.3c-0.3,1.2-0.7,2.5,1,2.9c1.6,0.4,2.4-0.6,2.8-2c0.5-1.7,0.9-3.4,1.3-5.2
		C304.3,236.1,305.9,229.5,307.6,222.9z"/>
	<path class="st0" d="M375.1,244.5c1.4-6.6,2.8-12.8,4-19.1c0.3-1.3,1.7-3.6-1.1-4.1c-2.3-0.4-2.5,1.8-2.8,3.4
		c-1.3,6.3-2.6,12.5-3.8,18.8c-0.7,3.5,0.4,4.8,3.9,5.2c1.6,0.2,3.3,0.4,5,0.4c7,0.2,9.7,3.6,8.2,10.4c-1.1,4.9-2.3,9.7-3.5,14.5
		c-1.4,5.8-2.8,11.5-4.3,17.3c-1.6,6.3-5.5,9.5-12.1,10.3c-5.1,0.6-10.2,0.6-15.3,0c-5.9-0.7-8.6-3.4-8.4-9.3
		c0.3-7.6,3.2-14.8,4.7-22.2c0.3-1.4,0.3-2.9,1.4-4.2c4.3,0,8.8,0,13.7,0c-1.6,6.5-3.2,12.8-4.7,19.1c-0.3,1.2-1.5,2.9,0.8,3.4
		c2,0.4,2.3-1.1,2.7-2.5c1.5-5.7,3.1-11.4,4.6-17.2c1-3.7-0.3-5.7-3.9-6.6c-1.2-0.3-2.6-0.5-3.9-0.5c-5.4-0.2-7.2-2.1-7.1-7.5
		c0.2-6.3,2.3-12.3,3.7-18.5c1.1-4.7,2.1-9.5,3.5-14.1c2.2-7.2,6.2-10,13.6-10c3.2,0,6.4,0.1,9.6,0.1c6.1-0.1,12.3,4.9,10.6,12.7
		c-1.3,5.9-2.5,11.8-3.7,17.8c-0.3,1.4-0.8,2.4-2.5,2.4C384,244.4,379.7,244.5,375.1,244.5z"/>
	<path class="st0" d="M235.8,264.5c0.4,3.4-0.9,6.2-1.5,9c-1.3,6.3-2.8,12.5-4.2,18.7c-1.5,6.7-6.6,10.7-13.6,10.7
		c-2.5,0-5,0.2-7.5-0.1c-7.4-0.7-11.5-5.8-9.9-13c2.8-12.7,6-25.4,9.1-38.1c2.1-8.8,4.2-17.5,6.3-26.3c2.1-9,6.5-12.6,15.7-12.6
		c2.3,0,4.5,0,6.8,0c7.3,0.1,10.7,4,9.2,11.3c-1.3,6.3-2.8,12.5-4.2,18.7c-0.4,1.8-0.9,3.7-1.4,5.7c-4.2,0-8.3,0-12.7,0
		c1.8-7.5,3.5-14.7,5.2-22c0.3-1.3,1.2-3-0.9-3.5c-1.9-0.5-2.4,1.3-2.7,2.6c-4.8,19.8-9.5,39.7-14.2,59.5c-0.3,1.2-0.7,2.8,1.1,3.3
		c1.7,0.4,2.2-1.1,2.5-2.4c1.6-6.3,3.2-12.6,4.6-19c0.5-2.1,1.3-2.7,3.4-2.7C229.8,264.6,232.7,264.5,235.8,264.5z"/>
	<path class="st0" d="M345.5,207.8c-0.3,2.1-0.5,3.7-0.8,5.6c4.7,0,9.2,0,14,0c-0.1,4-1.4,7.4-2.3,10.9c-0.3,1.5-1.7,1.1-2.7,1.1
		c-3.4,0-6.9,0.1-10.3,0c-1.8-0.1-2.8,0.4-3.3,2.3c-4.7,19.4-9.5,38.7-14.2,58.1c-0.2,1-0.9,2.5,1,2.8c1.6,0.2,2-1,2.3-2.2
		c1.7-6.8,3.4-13.6,5.2-20.5c4.2,0,8.2,0,12.7,0c-2.4,9.7-4.5,19.1-7.3,28.4c-1.5,5-5.6,7.5-11,7.3c-2.9-0.1-5.7,0-8.6,0
		c-9.1-0.2-13.1-5.1-11-13.9c3.4-14.2,7-28.3,10.5-42.5c2.8-11.4,5.7-22.8,8.4-34.2c0.6-2.6,1.7-3.5,4.3-3.3
		C336.6,208,341,207.8,345.5,207.8z"/>
	<path class="st1" d="M194.3,227.5c-0.9,4-1.8,7.8-2.8,11.6c-3.7,15.4-7.4,30.9-11.2,46.3c-0.1,0.6-0.2,1.2-0.4,1.7
		c-0.5,1.3-1.5,1.9-2.8,1.4c-1.4-0.4-1.1-1.5-0.8-2.6c1.6-6.4,3.1-12.9,4.7-19.3c3-12.6,6.1-25.1,9.1-37.6c0.3-1.1,0.3-2.5,1.7-2.8
		C193,225.8,194.2,225.9,194.3,227.5z"/>
	<path class="st1" d="M146.5,248c1.7-6.5,3.4-13,5-19.5c0.4-1.4,1.4-1.9,2.7-1.6c1.8,0.4,1.2,1.7,0.9,2.8
		c-1.4,5.5-2.9,10.9-4.2,16.4C150.4,248.7,149,249.1,146.5,248z"/>
	<path class="st0" d="M286.6,79.2c1-5.2,1.9-9,2.5-12.8c0.5-3,2.3-3.7,4.9-3.2c2.4,0.4,4.9,1,7.2,1.6c2.3,0.6,2.9,2.3,2.4,4.4
		c-0.9,4-1.8,8-2.9,12c-0.5,2-2,2.9-4.1,2.5c-2.2-0.4-4.4-0.9-6.6-1.4C287.7,81.8,286.1,80.7,286.6,79.2z"/>
	<path class="st0" d="M154.5,109.8c0.2,1.8-0.7,2.6-1.7,3.3c-2.1,1.6-4.2,3.1-6.3,4.7c-1.5,1.2-2.8,1-3.9-0.5
		c-2.7-3.6-5.4-7.3-8-10.9c-1.2-1.6-0.8-3.1,0.6-4.4c0.3-0.3,0.7-0.6,1.1-0.9c9.1-6.4,7.7-7.1,14,2.2
		C151.8,105.6,153.7,107.6,154.5,109.8z"/>
	<path class="st1" d="M307.6,222.9c-1.7,6.6-3.3,13.2-5,19.8c-0.4,1.7-0.8,3.4-1.3,5.2c-0.4,1.4-1.2,2.4-2.8,2
		c-1.7-0.4-1.3-1.7-1-2.9c1.9-7.4,3.8-14.9,5.6-22.3C303.7,222.3,305,221.7,307.6,222.9z"/>
</g>
</svg>
