<?xml version="1.0" encoding="utf-8"?>
<!-- Generator: Adobe Illustrator 21.0.0, SVG Export Plug-In . SVG Version: 6.00 Build 0)  -->
<svg version="1.1" id="Layer_1" xmlns="http://www.w3.org/2000/svg" xmlns:xlink="http://www.w3.org/1999/xlink" x="0px" y="0px"
	 viewBox="0 0 512 512" style="enable-background:new 0 0 512 512;" xml:space="preserve">
<style type="text/css">
	.st0{fill:#F9B932;}
	.st1{fill:#022C60;}
	.st2{fill:#022B5F;}
	.st3{fill:#850138;}
</style>
<g>
	<path class="st0" d="M289.6,136.4c2.8,0.4,5.6,0.6,8.5,1.1c17,2.1,32.7,7.8,47.3,16.8c14.9,9.2,27.2,21.1,36.9,35.7
		c0.4,0.6,0.8,1.1,1.3,1.9c15-3.7,30.1-7.4,45.5-11.1c-2.5,7.4-4.8,14.3-7.1,21.6c18.6-4.5,36.8-8.8,55.2-13.2
		c0.2,0.9-0.3,1.5-0.4,2.1c-5.6,14-11.2,28.1-16.9,42.1c-0.5,1.4-0.7,2.6-0.4,4.1c2.1,10.5,2.3,20.9-1.9,31
		c-2.6,6.3-6.8,11.4-11.9,15.7c-0.4,0.3-0.7,0.6-1.1,0.9c-0.3,6.9-4.9,10.8-10,14.1c-6.3,4.1-13.2,6.9-19.9,10.1
		c-1.8,0.9-3.6,1.8-5.4,3.2c2.9,0.8,5.6,1.6,8.3,2.3c11.3,3,22.6,6.1,33.9,9.1c1.1,0.3,2.1,0.4,3.3,0c5.2-1.6,10.6-2.1,16.1-1.9
		c0.4,0,0.8,0.1,1.2,0.2c0.3,0.1,0.5,0.2,0.9,0.3c0.4,2.3,0,4.6-0.5,6.8c-1.9,8.1-4.9,15.7-11.3,21.5c-3.7,3.4-7.9,4.6-13,3.4
		c-0.4-1-0.9-1.9-1.3-2.8c-16.9,14-34.8,16.4-53.8,3.7c-0.2,4.6-0.2,8.9,0.2,13.4c-14.3-1.9-26.7-6.6-33.4-20.7
		c-3.4,2.6-6.6,5.2-10.1,7.6c-15,10.1-31.3,16.5-49.2,19.1c-3.1,0.4-6.2,0.8-9.3,1c-0.4,0-0.7-0.1-1,0.4c-4.9,0-9.6,0-14.5,0
		c-0.3-0.4-0.6-0.3-1-0.4c-4.1-0.2-8.1-0.7-12.1-1.4c-23-4-43.2-13.9-60.5-29.7c-3.2-2.8-6-5.9-9-9c-0.6,0.7-1.2,1.3-1.8,1.9
		c-5.7,6.7-12.1,12.8-19.1,18.3c-10.5,8.2-21.9,14.6-34.8,18.2c-2.7,0.8-5.5,1.3-8.1,2c-6.4,0-12.7,0-19.1,0
		c-0.9-0.5-1.9-0.4-2.9-0.7c-11.9-3-20.8-9.6-25.5-21.3c-3.5-8.8-3.5-17.9-1.8-27.1c2.1-11.5,6.8-22,12.5-32c1.1-2,2.4-4.1,3.8-6.4
		c-8.2,1.3-16,2.5-24.1,3.8c9.4-12.6,20.2-23.5,32.5-33.1c-0.6-0.2-1-0.4-1.4-0.4c-11-2.8-22.1-5.6-33-8.9s-21.7-7.3-31.7-13.2
		c-4.9-2.7-9.1-6.1-13.3-9.4c0-0.1,0-0.3,0-0.4c3.7-0.4,7.4-1.2,11.1-1.5c7.7-0.5,15.4-0.4,23,0.6c17.2,2.2,33.8,7.1,50.6,11.2
		c6.4,1.6,12.9,3.3,19.5,4.9c11.9-7.1,24.4-13.1,37.7-17.7c1.1-3.3,2.1-6.5,3.4-9.7c13.4-34.3,37.2-58.1,71.8-71
		c10.1-3.7,20.5-5.8,31.1-6.6c0.4,0,0.7,0.1,0.9-0.4C279.5,136.4,284.5,136.4,289.6,136.4z M280.4,325.5c-2.7,1.1-5.3,2.5-7.7,4.1
		c-0.4,0.2-0.6,0.3-1,0.4c-5.2,3.1-10.2,6.5-14.9,10.3c-1.7,1.3-3.3,2.8-5.5,4.1c0.6-10.7,3-20.4,9.2-29.3c-0.7,0.2-1,0.2-1.2,0.3
		c-10.8,2.8-21.5,5.6-32.4,8.5c-6.6,1.8-13.1,3.5-19.7,5.3c-3.3,0.8-6.5,1.6-10.3,2.6c23.7,25.3,52.2,38.7,86.5,38.5
		c28.2-0.1,53-9.8,74.4-28.2c-1-3.7-1.2-7.1-1.6-10.6c0-2.3,0-4.5,0-6.9c-0.3-0.1-0.4-0.2-0.7-0.2c-13.2-3.4-26.5-7-39.7-10.4
		c-0.9-0.3-1.8-0.2-2.6,0c-5.5,1.2-10.9,2.6-16.2,4.5C291.3,320.4,285.7,322.6,280.4,325.5z M239.4,216.9c2.6,0.6,5,1.2,7.6,1.9
		c1.9,0.7,4.1,1.1,5.9,2.1c3.7,2,7.2,1.9,11.1,0.6c5-1.6,10.3-2.4,15.4-4c3.2-0.5,6.2-1.3,9.3-2.3c0.5-0.1,1.1-0.1,1.6-0.3
		c12-2.9,24.1-5.9,36.1-8.9c5.1-1.3,10.3-2.3,15.4-3.9c3.6-0.6,7.1-1.5,10.7-2.6c5.6-1.1,11.1-2.5,16.5-4.1c3.1-0.5,6.1-1.4,9.2-2.2
		C357.3,160.2,312,133,259,144.1c-25.9,5.5-47.4,18.6-64.3,39c-9.5,11.5-16.5,24.3-20.9,38.7c1.4,0.2,2.4-0.4,3.4-0.7
		c5.1-1.6,10.4-2.6,15.5-3.9c6.2-0.8,12.4-1.8,18.6-2.2c2.6-0.1,5.3-0.2,7.9-0.2c2.8,0.2,5.7,0.4,8.6,0.5
		C231.6,215.6,235.5,216.5,239.4,216.9z M148.1,246.5c9.2,2.3,18.3,4.6,27.4,6.9c0.3,0.4,0.7,0.4,1.1,0.4c6.4,1.6,12.6,3.2,19,4.8
		c4.1,1.1,8.3,2.1,12.4,3.2c-0.1,0.9-0.3,1.5-0.9,2.1c-0.4-0.1-0.7-0.1-1-0.2c-10.1-2.6-20-5-30.1-7.6c-28-7.1-56-14.1-83.9-21.1
		c-14-3.5-28-7.3-42.6-7.7c-5.4-0.2-10.8,0.2-16.1,1.3c0.2,0.3,0.2,0.4,0.3,0.4c0.4,0.4,0.8,0.7,1.2,1c8.4,6.6,18,10.9,28.2,14.4
		c12.8,4.3,26,7.3,39.1,10.8c20.6,5.5,41.1,10.9,61.7,16.2c3.4,0.9,6.7,1.8,10.3,2.7c-1.3,0.6-2.2,1.1-3.2,1.6
		c-4.7-1.2-9.3-2.5-13.9-3.7c-1.6-0.4-3.1-1.1-4.8-0.9c-0.4-0.1-0.7-0.3-1-0.4c-10.4-2.7-20.8-5.5-31.2-8.2c-3.4-1.4-7.1-2-10.5-2.9
		c-10.3,7.9-19.9,16.5-28.3,26.8c7.5-1,14.7-1.9,22-2.8c-0.7,1.1-1.1,2-1.7,2.8c-4.9,8.3-9.4,16.9-12.7,25.9
		c-3.2,8.7-5.4,17.7-5.1,27c0.2,6.2,1.5,12.2,4.9,17.4c6.3,9.6,15.6,13.5,26.6,14.3c12.1,0.9,23.5-2.1,34.3-7.1
		c16.3-7.6,29.5-19,40.2-33.4c0.7-1,1.5-1.5,2.6-1.9c20.9-5.2,41.8-10.5,62.7-15.7c4.6-1.1,9.1-2.3,14.2-3.5
		c-1.9,2.3-3.5,4.1-4.9,6.3c-1.3,2-2.5,4.1-3.5,6.4s-2,4.5-2.8,6.9c-0.7,2.3-1.6,4.5-2,7.2c0.4-0.4,0.6-0.4,0.8-0.6
		c13.6-11.6,29.4-18.7,46.5-23.4c13.4-3.6,27.2-4.3,40.9-5.6c6.1-0.5,12.2-1.2,18.2-1.8c3.4-4.5,6.7-8.9,11.2-12.4
		c0.2-0.1,0.3-0.4,0.4-0.6c7.5-5.7,16.2-8.8,25.5-9.9c5.1-0.5,10.2-0.8,15.3,0.5c0.2,0.1,0.3,0.3,0.4,0.3c5.5,1.2,10.9,2.6,16.6,3.3
		c2.5,0.3,4.5-0.1,6.6-1.5c8.7-5.9,15.2-13.3,17.7-23.7c1.9-8,1.2-16-0.5-23.9c-0.3-1.4-0.3-2.6,0.3-3.9
		c4.6-12.1,9.1-24.2,13.6-36.3c0.3-0.6,0.8-1.2,0.3-2c-17.7,4.2-35.4,8.6-53.4,12.9c2.5-7.3,4.8-14.3,7.1-21.2
		c-0.6-0.4-1.1-0.1-1.5,0c-19.1,4.8-38.2,9.4-57.3,14.2c-34.7,8.6-69.5,17.2-104.1,25.9c-1.8,0.4-3.3,0.4-4.9-0.4
		c-2-1-4.1-1.7-6.3-2.4c-18.8-6.2-37.9-6-57-2.3c-19.3,3.8-37.3,10.9-54.6,20.3c-0.9,0.4-1.9,0.8-2.6,1.7c0.9,0.3,1.6,0.4,2.4,0.6
		C140.9,244.7,144.4,246.1,148.1,246.5z M440.9,288.8c-0.7,0-1.1-0.1-1.6-0.1c-6.5,0.1-13.1-0.8-19.4-2.3
		c-7.5-1.9-14.9-2.6-22.5-1.2c-14.8,2.6-25.7,10.9-33.7,23.5c1.2,0.4,2.5,0.6,3.7,1c1.1,0.3,1.5,1,1.5,2c-0.1,2.3-1.8,3.4-4.2,2.7
		c-4.7-1.2-9.4-2.5-13.9-3.7c-1.6-0.4-3.1-0.6-4.7-0.5c-5.1,0.4-10.2,0.8-15.3,1.2c-3.1,0.3-6.2,0.4-9.2,1.5
		c12.6,3.4,25.3,6.6,37.9,10c-0.2,4.5-0.4,8.7,0.3,13c1.4,9.4,5.3,17.6,13.2,23.3c4.9,3.6,10.6,5.4,16.9,5.9c0-5.7,0-11.2,0-16.9
		c8.6,7.5,18.1,12.3,29.7,11.7c11.6-0.5,20.5-6.5,28.7-14.3c0.9,2,1.7,3.9,2.5,5.7c4.2,0.5,7.4-1.2,10.1-4.1c3.9-4.1,6.1-9,7.9-14.2
		c0.8-2.3,1.6-4.6,1.8-7.2c-5.2-1.1-10.1-0.5-14.9,1.5c-1.2,0.5-2.3,0.6-3.5,0.3c-13.9-3.8-27.9-7.5-41.8-11.3
		c-2.6-0.7-5.4-1.5-8.3-2.3c2.5-3,5.5-4.9,8.7-6.4c5.9-2.7,11.9-5.2,17.9-7.9c3.9-1.8,7.3-4.1,10.3-7.2
		C439.5,291.4,440.6,290.5,440.9,288.8z"/>
	<path class="st1" d="M152.2,271.3c1.7-0.3,3.3,0.5,4.8,0.9c4.7,1.1,9.4,2.5,13.9,3.7c1-0.5,1.9-1,3.2-1.6c-3.6-1-7-1.9-10.3-2.7
		c-20.6-5.4-41.1-10.8-61.7-16.2c-13.1-3.4-26.2-6.4-39.1-10.8c-10.1-3.4-19.7-7.7-28.2-14.4c-0.4-0.4-0.8-0.7-1.2-1
		c-0.1-0.1-0.1-0.2-0.3-0.4c5.4-1.1,10.7-1.5,16.1-1.3c14.6,0.4,28.6,4.1,42.6,7.7c28,7.1,56,14.1,83.9,21.1c10.1,2.6,20,5,30.1,7.6
		c0.4,0.1,0.7,0.2,1,0.2c0.5-0.6,0.8-1.2,0.9-2.1c-4.1-1.1-8.3-2.1-12.4-3.2c-6.4-1.6-12.6-3.2-19-4.8c-0.4-0.1-0.9-0.1-1.1-0.4
		c6.6-3.9,13.4-7.5,20.7-10.1c5.2-1.9,10.6-3.5,16.2-3.4c5.8,0.3,8.7,3.3,8.6,9.1c0,0.7-0.1,1.4-0.2,2.1c-0.6,4.2-2.3,8.1-4.1,11.9
		c-0.2,0.4-1,0.9-0.2,1.5c0-0.2-0.1-0.4-0.4-0.1c0.1,0,0.2,0.1,0.4,0.1c1.4-1.2,3-2,4.5-3c11.8-7.2,23.7-14.3,35.9-21
		c-4.7-4.5-10.1-7.4-16.2-9.4c-14-4.5-28.3-3.9-42.6-1.6c-13.9,2.3-27.4,6.6-40.3,12.3c-3.4,1.4-6.7,2.7-9.8,4.8
		c-3.7-0.4-7.1-1.7-10.8-2.5c-0.8-0.2-1.5-0.4-2.4-0.6c0.8-0.9,1.8-1.1,2.6-1.7c17.2-9.4,35.3-16.6,54.6-20.3
		c19.2-3.7,38.2-3.9,57,2.3c2.1,0.7,4.2,1.4,6.3,2.4c1.7,0.8,3.2,0.9,4.9,0.4c34.7-8.6,69.4-17.3,104.1-25.9
		c19.1-4.8,38.2-9.4,57.3-14.2c0.4-0.1,0.9-0.4,1.5,0c-2.3,7-4.6,13.9-7.1,21.2c18-4.3,35.7-8.6,53.4-12.9c0.5,0.8-0.1,1.4-0.3,2
		c-4.5,12.1-9,24.2-13.6,36.3c-0.5,1.3-0.5,2.6-0.3,3.9c1.8,7.9,2.4,16,0.5,23.9c-2.5,10.4-8.9,17.9-17.7,23.7
		c-2.1,1.4-4.1,1.9-6.6,1.5c-5.6-0.7-11.1-2.1-16.6-3.3c-0.2,0-0.3-0.2-0.4-0.3c6.9-2.4,13.7-5,19.8-9.1
		c14.8-9.9,16.2-26.8,3.4-39.2c-1.7-1.6-3.4-3.2-5.1-4.9c-4.4-4.2-1-9.3,3.1-10.1c5.4-1,9.7,0.7,13.4,4.8c1.6-4.1,3.2-8,4.8-12.1
		c-4.8-1.1-9.4-1.1-14.1-0.1c-7.1,1.6-13.3,4.6-17.7,10.7c-3.9,5.4-3.7,11.3,0.2,16.7c1.7,2.3,3.9,3.9,5.9,5.8
		c3.1,3.1,4.5,6.9,4.1,11.2c-0.3,4.3-2.8,7.4-6.1,10c-5.8,4.7-12.6,7.3-19.7,9.6c-12.8,4.1-25.9,6.7-39.2,8.8
		c-15.6,2.6-31.2,4.9-46.6,8.5c-11.5,2.7-22.8,5.7-33.4,10.9c-4,1.9-7.9,4.1-11.1,7.3c-0.2,0.1-0.4,0.1-0.7,0.2
		c0.4,0.4,0.6,0.3,0.9,0.1c7-3.1,14.2-5.6,21.5-7.6c20.2-5.5,40.9-7.6,61.6-10.3c4.7-0.6,9.4-1.1,14.1-2c-0.1,0.2-0.2,0.4-0.4,0.6
		c-4.4,3.4-7.8,7.9-11.2,12.4c-6,0.6-12.1,1.2-18.2,1.8c-13.7,1.2-27.4,1.9-40.9,5.6c-17.1,4.7-32.9,11.8-46.5,23.4
		c-0.2,0.2-0.4,0.3-0.8,0.6c0.4-2.6,1.2-4.9,2-7.2c0.8-2.4,1.8-4.6,2.8-6.9c1.1-2.2,2.2-4.2,3.5-6.4c1.3-2,2.9-4,4.9-6.3
		c-5.1,1.2-9.6,2.4-14.2,3.5c-20.9,5.2-41.8,10.5-62.7,15.7c-1.1,0.3-1.9,0.9-2.6,1.9c-10.7,14.4-23.8,25.8-40.2,33.4
		c-10.9,5-22.2,8-34.3,7.1c-10.9-0.8-20.4-4.7-26.6-14.3c-3.4-5.3-4.8-11.2-4.9-17.4c-0.3-9.4,1.9-18.3,5.1-27
		c3.4-9.1,7.8-17.7,12.7-25.9c0.5-0.9,1.1-1.7,1.7-2.8c-7.3,1-14.5,1.9-22,2.8c8.5-10.3,18-18.9,28.3-26.8c3.4,0.9,7.1,1.5,10.5,2.9
		c-1.3,0.4-2.4,1.5-3.5,2.3c-4.9,3.4-9.6,7-14.1,10.9c8.6-1.3,17-3.6,25.9-5.8c-2.1,2.4-3.9,4.3-5.6,6.3
		c-9,10.3-17.1,21.3-22.9,33.7c-4.2,9-7.1,18.3-6.4,28.4c0.6,8.2,3.8,15.1,10.9,19.8c5.3,3.4,11.2,4.6,17.5,4.4
		c10.8-0.3,20.4-4.1,29.6-9.4c9.9-5.7,18.2-13.5,26.3-21.4c0.3-0.3,0.6-0.4,0.4-0.9c-0.6-0.3-1.1,0.3-1.6,0.4
		c-7.4,3.9-15.2,7.2-23.2,9.5c-7.6,2.2-15.3,3.6-23.3,2.6c-10-1.1-15-7.5-13.7-17.4c0.5-3.9,1.9-7.5,3.4-11
		c4.9-10.8,12-20,19.6-28.9C143.3,281,147.8,276.3,152.2,271.3z M287.5,241.7c-0.1-0.1-0.2-0.2-0.3-0.3c1.9-4.7,3.6-9.4,5.6-14.4
		c-1.6,0.4-3,0.8-4.3,1.1c-2.2,5.6-4.3,10.9-6.5,16.7c4.1-1,7.7-1.9,11.4-2.7c0.2-0.6,0.7-1.1,0.4-1.7
		C291.7,240.9,289.6,241.3,287.5,241.7z M312.5,275.2c-2.9,2.9-5.5,6.2-8.7,8.7c-4.1,3.3-8.7,5-14.2,5.8
		c5.3-14.1,10.5-28.1,15.9-42.3c-4.4,1.1-8.6,2.2-12.7,3.2c-6.3,16.3-12.4,32.5-18.8,49c10.9-2.8,21.6-5.6,32.3-8.3
		c2.2-5.4,4.3-10.7,6.4-15.9c0.1-0.2,0.2-0.4,0-0.5C312.7,275,312.6,275.1,312.5,275.2z M365.5,263.5c-0.4,0.4-1,0.8-1.4,1.3
		c-4.1,4.1-8.6,7.4-14.1,9.4c-2,0.8-4.1,1.5-6.5,1.7c2-4.7,3.9-9.1,5.7-13.5c0.3-0.7,0.9-1,1.4-1.2c4.4-2.4,8.9-4.8,13.3-7.2
		c0.4-0.3,1.1-0.4,1.4-1.1c-4.1,0.3-8.3,0.6-12.5,0.9c2-5.3,3.9-10.4,5.8-15.4c5.8-1.9,10.7-1.1,14.1,4.5c1.9-4.7,3.6-9,5.6-13.8
		c-10.1,2.6-19.7,5-29.4,7.5c-6.3,16.2-12.4,32.3-18.9,48.8c10.2-2.6,20-5.2,29.9-7.8c1.9-4.7,3.9-9.3,5.7-13.9
		c0.1-0.2,0.3-0.4,0-0.5C365.6,263.4,365.6,263.5,365.5,263.5z M166.8,327c4.1-1,8.2-2,12.4-3c6.6-16.3,13.1-32.6,19.9-49.2
		c-3.5,0.9-6.9,1.7-10.1,2.6c-2.5,0.7-4.8,1.6-7.1,2.6c-10.6,5-18.2,13.1-23.8,23c-5.3,9.4-9.7,19.4-14.5,29.2c-0.1,0.2,0,0.4,0,0.5
		c-0.1,0.1-0.2,0.1-0.2,0.2c0.2,0,0.4,0.1,0.2-0.3c4.1-0.4,7.9-1.9,11.7-2.7c2.7-5.7,5.5-11.3,8.2-17c3.1-0.9,6.2-1.8,9.3-2.6
		c0.1,0.1,0.1,0.1,0.2,0.2c-0.2,0.6-0.4,1.2-0.5,1.9c-1.8,4.8-4,9.4-5.6,14.4C166.6,326.8,166.5,326.9,166.8,327
		C166.6,327.1,166.7,327,166.8,327z M189,321.4c7-1.8,13.9-3.6,21-5.3c2.3-0.5,4.1-1.5,5.7-3.1c11.6-10.9,20.1-24,26.7-38.4
		c1.7-3.6,3.3-7.4,4.6-11.6c-7.6,1.9-14.8,3.8-22.5,5.7c1.4,0.9,2.5,1.5,3.5,2.1c1.1,0.7,2.3,1.2,3.4,2.3
		c-6.7,13.9-15.5,26.2-26.7,36.8c-0.2-0.1-0.3-0.2-0.4-0.3c4.9-13.1,9.9-26.4,15-39.8c-4.1,1.1-7.9,2.1-11.6,3.1
		c-0.2,0.5-0.4,0.9-0.5,1.2c-4.7,11.9-9.4,23.8-14,35.7c-1.4,3.7-3.1,7.3-4.2,11.2c-0.2,0-0.3,0.1-0.1,0.3
		C188.9,321.4,188.9,321.4,189,321.4z M286.1,253c-1-0.2-1.7,0.2-2.4,0.4c-16.1,2.7-28.2,11.3-36.8,24.9
		c-4.1,6.3-6.9,13.2-10.3,19.9c-2,4.1-4,8.2-6.2,12.5c4.2-1.1,8.2-2.1,12.2-3.1c2.6-5.6,5.3-11.1,7.9-16.7c3.2-1,6.4-1.9,9.7-2.8
		c-2.3,5.7-4.4,11.1-6.6,16.8c4.5-1.1,8.6-2.2,12.6-3.2C267.1,300.1,285.5,254.8,286.1,253z M386.3,252.5c0.5,1,0.8,1.6,1.1,2.3
		c1.4,2.8,3.1,5.4,5.3,7.7c7.9,8.1,21.9,5.7,26.7-4.5c-11.8,3.7-20.8-3.5-22.2-10.6c10.2-7.1,18.6-20.7,16.9-27.6
		c-9.8,2.6-19.6,5.2-29.4,7.8c-5.9,16.2-11.7,32.4-17.7,48.7c4.1-1.1,7.7-2,11.5-3C381.2,266.5,383.6,259.7,386.3,252.5z
		 M323.4,286.9c6.4-16.2,12.6-32.4,19-48.9c-4.2,1.1-8.1,2-12.1,3.1c-6.4,16.2-12.6,32.4-19.1,48.9
		C315.6,288.9,319.5,287.9,323.4,286.9z M201.1,267.2c0-0.1,0-0.3-0.1-0.4c-40.7-10.5-81.5-20.9-122.4-31.5c1.2,1.1,2.5,1.9,3.7,2.5
		c7.2,4,15.1,6.7,23,8.7c27.9,7.4,55.9,14.7,83.8,22c0.7,0.2,1.4,0.5,2.2,0.4C194.7,268.3,197.9,267.7,201.1,267.2z M380.6,205.1
		c-2.1,5.5-4.2,10.9-6.5,16.6c1.8-0.3,3.1-0.5,4.3-1.1c1.4-4.1,2.8-8.3,4.1-12.4c1.8,3.9,2.2,7.7-0.4,11.6c1.9-0.4,3.3-0.8,4.7-1.1
		c2.1-5.5,4.3-10.9,6.5-16.7c-1.6,0.4-3,0.7-4.3,1.1c-0.9,2.1-1.7,4.2-2.6,6.5c-0.8-1.9-0.8-3.8-1.7-5.6
		C383.5,204.4,382.1,204.8,380.6,205.1z M369.1,222.9c1.9-5,4-10.1,5.9-15.2c-1.4-0.7-2.6-0.7-3.8-0.5c-2.6,0.4-5,1.3-7.2,2.6
		c-1.1,0.6-1.9,1.5-2.3,2.7c-1.1,3.2-2.5,6.3-3.7,9.4c-0.5,1.2-1,2.6-1.6,4.1c1.7-0.4,3-0.7,4.3-1.1c0.9-2.2,1.7-4.2,2.5-6.3
		c1.3-0.3,2.5-0.8,4-0.8c-0.8,2-1.5,4-2.3,6.1C366.4,223.6,367.7,223.2,369.1,222.9z M398.5,200.4c-2.2,5.6-4.3,11-6.5,16.8
		c4.2-1.1,8.3-1.6,11.8-3.8c0.6-0.4,1.4-0.7,1.8-1.4c1.8-4.2,3.4-8.5,5.2-13C406.3,197.6,402.5,199.8,398.5,200.4z M283.5,229.1
		c-4.4,1.1-8.6,1.7-12.2,4.1c-0.5,0.4-1.1,0.7-1.4,1.3c-1.7,4.3-3.4,8.6-5.1,12.9c3.4,2,12.8-1.2,13.1-4.7c-1.3,0.4-2.6,0.6-3.9,0.9
		c-0.7,1.8-2,2.5-4.6,2.2c1.6-4.1,3.2-8.3,4.8-12.4c1.2-0.7,2.5-1,3.9-1.3c0.2,0.3,0.3,0.5,0.4,0.9c1.3-0.4,2.6-0.6,3.8-1
		C282.8,231.2,283,230.3,283.5,229.1z M343.8,214.5c-3.4,0.9-6.6,1.7-9.8,2.4c-2.2,5.6-4.3,10.9-6.5,16.7c3.5-0.9,6.7-1.7,9.8-2.4
		c0.3-0.6,0.4-1.1,0.6-1.8c-1.9,0.4-3.5,0.8-5.4,1.2c0.9-2.3,1.7-4.2,2.4-6.2c1.9-0.4,3.6-0.9,5.4-1.3c0.4-0.5,0.6-1,0.6-1.8
		c-1.7,0.4-3.4,0.7-5.2,1.1c0.7-1.9,1.3-3.4,1.9-4.9c1.9-0.4,3.7-0.9,5.5-1.3C343.3,215.7,343.5,215.3,343.8,214.5z M303.2,224.4
		c-2.2,5.6-4.3,10.9-6.5,16.7c3.5-0.9,6.7-1.7,9.7-2.4c0.4-0.6,0.6-1.1,0.4-1.7c-1.7,0.4-3.4,0.7-5.1,1.1c0.9-2.2,1.7-4.1,2.4-6.1
		c1.9-0.5,3.7-1,5.5-1.4c0.4-0.6,0.5-1.1,0.5-1.8c-1.7,0.4-3.3,0.7-5.2,1.1c0.7-1.9,1.3-3.4,1.9-4.9c1.9-0.4,3.6-0.9,5.4-1.4
		c0.4-0.4,0.6-0.9,0.6-1.7C309.6,222.9,306.5,223.7,303.2,224.4z M330.3,218.4c-2.8,0.4-5.1,0.9-6.3,3.5c-0.4,1-1.2,1.9-1.9,2.8
		c-1.1,1.6-2.1,3.2-3.2,4.8c-0.2-0.1-0.4-0.1-0.5-0.2c0-2.6,0-5.3,0-8.2c-1.4,0.4-2.5,0.5-3.6,0.8c0.6,4.8,1.1,9.4,1.8,14.6
		C321.4,230.3,325.7,224.4,330.3,218.4z M352.2,212.3c-1.6,0.4-2.9,0.7-4.3,1c-2.1,5.5-4.2,10.9-6.5,16.7c4.1-1,7.7-1.9,11.3-2.7
		c0.3-0.6,0.6-1.1,0.5-1.8c-2.3,0.5-4.4,1.1-6.8,1.6C348.4,222,350.3,217.2,352.2,212.3z"/>
	<path class="st2" d="M352.2,199.7c-3.5,1.1-7.1,1.9-10.7,2.6c-0.6-0.8-1.6-1.2-2.5-1.7c-9.7-5-19.8-8.9-30.4-11.6
		c-8.4-2.1-16.9-3.3-25.5-3.8c-3-0.2-6.1,0-9.1,0c-0.3,1-0.1,1.7,0,2.5c1.6,8.6,5.6,16.2,10.7,23.4c1.1,1.6,1.9,3.4,3.7,4.3
		c-3,1-6.1,1.8-9.3,2.3c0-0.8-0.5-1.3-1-1.9c-3.4-4.9-6.4-9.9-8.6-15.4c-1.9-4.6-3.2-9.4-3.7-14.7c-6.1,0.4-11.9,1.5-17.7,2.9
		c-0.4,0.9-0.5,1.7-0.5,2.6c-0.3,3.7-0.8,7.5-0.9,11.2c-0.3,5.5-0.4,10.9,0,16.4c-2.6-0.6-5-1.2-7.6-1.9c0.4-0.7,0.4-1.5,0.4-2.2
		c0-4.6,0.3-9.2,0.7-13.7c0.4-3.4,0.6-6.7,0.9-10.3c-6.1,1.7-11.8,3.9-17.3,6.4c-1.1,3.7-2.1,7.1-3,10.7c-0.6,2.4-1.8,4.6-2.1,7.1
		c-2.6,0.1-5.3,0.2-7.9,0.2c2.6-4.3,4.1-9,5.5-14c-0.5,0.2-0.7,0.2-0.9,0.3c-6.6,3.6-13,7.6-18.9,12.2c-1.5,1.1-3.4,1.9-4.3,3.7
		c-5.2,1.3-10.4,2.4-15.5,3.9c-1,0.3-1.9,0.8-3.4,0.7c4.5-14.3,11.4-27.2,20.9-38.7c16.9-20.4,38.4-33.5,64.3-39
		c53-11.1,98.4,16.1,119.1,49.2c-3.1,0.8-6.1,1.7-9.2,2.2c0-0.9-0.6-1.5-1.1-2.1c-4.2-5.6-8.8-10.9-14-15.5
		c-14.5-13.1-31.3-21.5-50.5-25.6c-4.1-0.9-7.9-1-11.7,1.4c-6.4,4-12,8.7-15.2,15.7c-1.2,2.6-2.2,5.4-2.2,8.4
		c0.9,0.4,1.7,0.2,2.4,0.2c8.1-0.2,16.2,0.5,24.2,1.9c15.4,2.7,29.8,8,43.5,15.4C346.9,196.7,349.4,198.6,352.2,199.7z M250.7,155.5
		c-0.4,0.1-0.8,0.1-1.2,0.3c-7.9,2.6-15.3,6.1-22.3,10.4c-2.6,1.6-5.1,3.1-7.3,5.1c2.9,5.6,4.9,11.4,5.1,18
		c5.9-2.4,11.6-4.6,17.4-6.3c0.2-0.4,0.3-0.4,0.4-0.6c0.1-0.4,0.2-0.7,0.3-1.1c1.7-8.5,3.7-16.9,7.5-24.7
		C250.6,156.3,250.8,155.9,250.7,155.5C250.8,155.4,250.8,155.4,250.7,155.5C250.8,155.4,250.8,155.4,250.7,155.5z M258.5,153.2
		c-5,8.6-7.2,18.2-9.1,28.1c5.7-1.3,11.3-2,16.9-2.7c1.7-12.3,8.3-21.1,18.5-28C275.6,150.2,267.1,151.2,258.5,153.2z M214.4,175.5
		c-12.4,10.7-21.8,23.1-28.1,37.9c9.9-7.9,20.2-15,31.8-20.7C218.3,186.7,218.7,180.7,214.4,175.5z"/>
	<path class="st1" d="M440.9,288.8c-0.4,1.7-1.4,2.6-2.4,3.6c-3,3.1-6.4,5.5-10.3,7.2c-5.9,2.6-12,5.2-17.9,7.9
		c-3.2,1.5-6.2,3.3-8.7,6.4c2.9,0.8,5.6,1.5,8.3,2.3c13.9,3.8,27.9,7.5,41.8,11.3c1.2,0.4,2.3,0.3,3.5-0.3c4.8-2,9.7-2.6,14.9-1.5
		c-0.2,2.6-1,4.9-1.8,7.2c-1.9,5.2-4.1,10.1-7.9,14.2c-2.6,2.8-5.8,4.5-10.1,4.1c-0.8-1.8-1.6-3.7-2.5-5.7
		c-8.2,7.9-17.1,13.8-28.7,14.3s-21-4.2-29.7-11.7c0,5.7,0,11.3,0,16.9c-6.4-0.5-11.9-2.3-16.9-5.9c-7.9-5.7-11.8-13.8-13.2-23.3
		c-0.6-4.2-0.4-8.5-0.3-13c-12.6-3.4-25.3-6.6-37.9-10c3.1-1.1,6.2-1.2,9.2-1.5c5.1-0.4,10.2-0.8,15.3-1.2c1.6-0.2,3.2,0.1,4.7,0.5
		c4.7,1.2,9.3,2.5,13.9,3.7c2.5,0.6,4.1-0.4,4.2-2.7c0.1-1.1-0.4-1.8-1.5-2c-1.2-0.3-2.5-0.6-3.7-1c8-12.5,18.9-20.9,33.7-23.5
		c7.6-1.3,15.1-0.6,22.5,1.2c6.4,1.6,12.8,2.4,19.4,2.3C439.8,288.7,440.3,288.7,440.9,288.8z M452.1,341c2.5-0.7,4.1-2.6,4.8-4.9
		c0.8-2.6,2.6-4,4.5-5.3c0.4-0.3,1-0.4,1.1-1.1c-2.5,0.3-4.7,1.1-6.9,2c0,1.7-0.4,3.3-1.1,4.7C453.9,337.9,453,339.4,452.1,341
		c-0.1,0-0.2,0.1-0.3,0.2c0.1,0,0.2,0.1,0.2,0.1C452.1,341.1,452.1,341,452.1,341z M374,308.6c0.5,1.6,1.1,3.2,1.7,4.7
		c0.4,4.6-0.7,8.5-5.6,10.4c0.5,5.4,1.7,10.5,5.3,15.1c2.6-15.8,10.5-27.5,24.3-35.1c-6.8,6.4-11.9,13.9-15,22.8
		c-3.2,8.8-4.1,17.9-3.4,27.6c-8.3-2.9-11.5-10.1-15.3-16.6c1.9,6.4,4.6,12.2,9.5,16.8c2.5,2.2,5.3,3.8,8.9,4.1
		c-0.1-1.6-0.2-2.9-0.2-4.3c-0.4-10.1,1.2-20,5.1-29.5c4.5-10.9,11.6-19.2,23.1-23.3c5.5-1.9,10.8-4.3,15.8-7.3c0.4-0.2,1-0.3,0.9-1
		c-6.5-0.3-12.8-2-19.2-2.6c-15.6-1.6-27.8,4.5-36.9,17C373.2,307.9,373.6,308.3,374,308.6z M396.2,321.7
		c18.4,4.7,36.5,9.3,54.5,13.9c1.3-1.4,1.4-2.6,0.9-4.2c-17.6-4.6-35.3-9.2-53-13.7C397.5,318.9,396.7,320.1,396.2,321.7z
		 M394.9,331.9c0.4,4.9,2.7,8.3,6.1,10.9c8,6.4,17.2,8.2,27.3,6c5.2-1.1,9.8-3.7,14.2-7.7C425.4,343.4,409.8,340.5,394.9,331.9z
		 M391.1,338.4c-1.1,2.3,0,4.1,1.4,5.9c1.2,1.5,2.6,2.9,4.1,4.1c7.9,5.8,16.9,7.5,26.6,6.9c1-0.1,1.9-0.4,2.7-0.4
		c0.9-0.2,1.9-0.4,2.3-0.8C413.5,355,400.1,352.2,391.1,338.4z"/>
	<path class="st3" d="M352.2,199.7c-2.8-1.1-5.4-2.9-8-4.3c-13.8-7.3-28.2-12.6-43.5-15.4c-8-1.4-16.1-2.1-24.2-1.9
		c-0.7,0-1.5,0.2-2.4-0.2c0-3,1-5.7,2.2-8.4c3.2-7.1,8.7-11.7,15.2-15.7c3.9-2.4,7.6-2.3,11.7-1.4c19.2,4,36,12.4,50.5,25.6
		c5.2,4.8,9.8,10,14,15.5c0.4,0.6,1.1,1.2,1.1,2.1C363.3,197.2,357.8,198.5,352.2,199.7z"/>
	<path class="st3" d="M207.2,329.1c6.5-1.8,13.1-3.5,19.7-5.3c10.8-2.8,21.5-5.6,32.4-8.5c0.3-0.1,0.5-0.1,1.2-0.3
		c-6.3,8.9-8.6,18.6-9.2,29.3c2.2-1.2,3.8-2.6,5.5-4.1c4.7-3.8,9.7-7.2,14.9-10.3c0.3-0.2,0.6-0.3,1-0.4c1,0.4,1.4,1.3,2,2.1
		c6.4,8.2,13.4,15.6,21.4,22.1c2.3,1.9,4.7,3.7,7.1,5.6c-4.9,1.1-9.7,1.7-14.5,1.9c-8.6,0.4-17.1,0-25.6-1.6
		c-21.3-4.1-39.5-13.8-55-28.9C207.7,330.4,207.1,329.9,207.2,329.1z"/>
	<path class="st3" d="M280.4,325.5c5.3-2.9,10.9-5,16.7-7.1c5.3-1.9,10.8-3.4,16.2-4.5c0.9-0.2,1.8-0.3,2.6,0
		c13.2,3.5,26.5,7,39.7,10.4c0.3,0.1,0.4,0.1,0.7,0.2c0,2.3,0,4.6,0,6.9c-2.2,2.6-4.9,4.7-7.5,6.9c-10.6,8.6-22.5,14.8-35.6,18.9
		c-1.1,0.4-1.9,0.2-2.9-0.5c-10.4-7.9-19.6-16.9-27.5-27.4C281.8,328,280.6,327,280.4,325.5z"/>
	<path class="st2" d="M280.4,325.5c0.3,1.6,1.4,2.6,2.3,3.7c7.9,10.4,17.1,19.5,27.5,27.4c1,0.7,1.9,0.9,2.9,0.5
		c13.1-4.1,25-10.2,35.6-18.9c2.6-2.1,5.3-4.3,7.5-6.9c0.3,3.4,0.6,6.9,1.6,10.6c-21.4,18.4-46.2,28.1-74.4,28.2
		c-34.3,0.1-62.8-13.1-86.5-38.5c3.8-1,7.1-1.8,10.3-2.6c-0.1,0.8,0.5,1.2,1.1,1.8c15.4,15.2,33.7,24.9,55,28.9
		c8.5,1.6,17,1.9,25.6,1.6c4.8-0.2,9.5-0.9,14.5-1.9c-2.6-2-4.9-3.8-7.1-5.6c-8-6.5-15.1-13.9-21.4-22.1c-0.6-0.8-1.1-1.7-2-2.1
		C275.1,328,277.6,326.6,280.4,325.5z"/>
	<path class="st3" d="M288.6,215.4c-1.9-0.9-2.6-2.8-3.7-4.3c-5-7.1-9.1-14.7-10.7-23.4c-0.2-0.7-0.3-1.5,0-2.5c3,0,6.1-0.2,9.1,0
		c8.6,0.5,17.1,1.7,25.5,3.8c10.6,2.6,20.7,6.6,30.4,11.6c0.9,0.4,1.8,0.9,2.5,1.7c-5,1.6-10.2,2.6-15.4,3.9c-12,3-24,5.9-36.1,8.9
		C289.6,215.3,289.1,215.3,288.6,215.4z"/>
	<path class="st3" d="M247,218.8c-0.4-5.5-0.3-10.9,0-16.4c0.2-3.7,0.6-7.5,0.9-11.2c0.1-0.8,0.2-1.6,0.5-2.6
		c5.7-1.4,11.6-2.4,17.7-2.9c0.5,5.2,1.9,10,3.7,14.7c2.3,5.5,5.3,10.5,8.6,15.4c0.4,0.6,0.9,1.1,1,1.9c-5,1.6-10.3,2.4-15.4,4
		c-3.9,1.2-7.4,1.4-11.1-0.6C251.1,219.9,249,219.5,247,218.8z"/>
	<path class="st3" d="M219,214.8c0.4-2.5,1.6-4.7,2.1-7.1c0.9-3.5,1.9-7,3-10.7c5.5-2.5,11.2-4.8,17.3-6.4c-0.4,3.6-0.6,7-0.9,10.3
		c-0.4,4.6-0.7,9.2-0.7,13.7c0,0.8,0.1,1.5-0.4,2.2c-4-0.4-7.9-1.3-11.8-1.6C224.7,215.3,221.9,215,219,214.8z"/>
	<path class="st3" d="M192.5,217.3c1-1.8,2.8-2.6,4.3-3.7c5.9-4.6,12.3-8.6,18.9-12.2c0.2-0.1,0.4-0.1,0.9-0.3
		c-1.3,5-2.9,9.7-5.5,14C204.8,215.4,198.7,216.4,192.5,217.3z"/>
	<path class="st0" d="M201.1,267.2c-3.3,0.6-6.4,1.1-9.7,1.8c-0.8,0.2-1.5-0.2-2.2-0.4c-28-7.3-56-14.6-83.8-22
		c-7.9-2.1-15.7-4.9-23-8.7c-1.2-0.6-2.5-1.3-3.7-2.5c40.9,10.5,81.7,21,122.4,31.5C201.1,266.9,201.1,267.1,201.1,267.2z"/>
	<path class="st3" d="M250.7,155.4c0.1,0.4-0.1,0.8-0.3,1.1c-3.8,7.9-5.8,16.2-7.5,24.7c-0.1,0.4-0.1,0.7-0.3,1.1
		c-0.1,0.2-0.2,0.4-0.4,0.6c-5.8,1.7-11.6,3.8-17.4,6.3c-0.2-6.5-2.2-12.4-5.1-18c2.2-2,4.8-3.6,7.3-5.1c7.1-4.3,14.5-7.9,22.3-10.4
		C249.9,155.6,250.4,155.5,250.7,155.4C250.7,155.5,250.7,155.4,250.7,155.4z"/>
	<path class="st3" d="M258.5,153.2c8.6-1.9,17.1-3,26.3-2.6c-10.2,6.8-16.9,15.6-18.5,28c-5.6,0.7-11.1,1.4-16.9,2.7
		C251.2,171.3,253.5,161.8,258.5,153.2z"/>
	<path class="st3" d="M214.4,175.5c4.3,5.3,4,11.2,3.7,17.1c-11.5,5.8-21.8,12.9-31.8,20.7C192.6,198.5,202,186.1,214.4,175.5z"/>
	<path class="st3" d="M250.7,155.5C250.8,155.4,250.8,155.4,250.7,155.5C250.8,155.4,250.8,155.4,250.7,155.5
		C250.7,155.4,250.7,155.5,250.7,155.5z"/>
	<path class="st0" d="M374,308.6c-0.4-0.3-0.9-0.6-1.1-1.2c9.1-12.6,21.3-18.6,36.9-17c6.4,0.6,12.7,2.5,19.2,2.6
		c0.1,0.7-0.5,0.8-0.9,1c-5,3-10.3,5.4-15.8,7.3c-11.5,4.1-18.6,12.4-23.1,23.3c-3.9,9.4-5.5,19.3-5.1,29.5c0.1,1.4,0.1,2.8,0.2,4.3
		c-3.6-0.4-6.4-1.9-8.9-4.1c-5-4.5-7.8-10.3-9.5-16.8c3.8,6.5,7,13.7,15.3,16.6c-0.7-9.7,0.4-18.8,3.4-27.6
		c3.2-8.8,8.2-16.4,15-22.8c-13.8,7.6-21.7,19.2-24.3,35.1c-3.6-4.6-4.8-9.7-5.3-15.1c4.9-1.9,5.9-5.8,5.6-10.4
		c7.9-11,18-18.7,31.4-21.6c-8-0.2-15.2,2.2-21.8,6.6C381,301.1,377.5,304.7,374,308.6z"/>
	<path class="st0" d="M396.2,321.7c0.5-1.6,1.4-2.8,2.4-4.1c17.7,4.6,35.4,9.2,53,13.7c0.5,1.6,0.4,2.8-0.9,4.2
		C432.6,331,414.5,326.4,396.2,321.7z"/>
	<path class="st0" d="M394.9,331.9c14.8,8.6,30.4,11.5,47.6,9.3c-4.4,4-9,6.5-14.2,7.7c-10,2.2-19.2,0.4-27.3-6
		C397.7,340.1,395.5,336.7,394.9,331.9z M400,336.9c-0.1,0-0.3-0.1-0.5-0.2c0.2,0.3,0.3,0.4,0.3,0.4c0.6,1.9,2,3.4,3.5,4.5
		c7.7,5.4,16.2,7.2,25.4,5.2c1.8-0.4,3.4-1,5-2.4c-3.6,0.1-7-0.1-10.3-0.4C415.2,343,407.4,340.7,400,336.9z"/>
	<path class="st0" d="M391.1,338.4c8.9,13.8,22.3,16.5,37.2,15.6c-0.5,0.4-1.4,0.6-2.3,0.8c-0.9,0.2-1.9,0.4-2.7,0.4
		c-9.6,0.6-18.6-1.1-26.6-6.9c-1.6-1.1-2.9-2.6-4.1-4.1C391.1,342.5,390,340.8,391.1,338.4z"/>
	<path class="st0" d="M452.1,340.9c0.9-1.5,1.8-3.1,2.6-4.6c0.7-1.4,1.1-3,1.1-4.7c2.2-1,4.4-1.8,6.9-2c-0.2,0.8-0.8,0.9-1.1,1.1
		c-2,1.3-3.8,2.7-4.5,5.3C456.3,338.4,454.7,340.2,452.1,340.9L452.1,340.9z"/>
	<path class="st0" d="M452.1,341c0,0.1,0,0.2,0,0.3c-0.1,0-0.2-0.1-0.2-0.1C452,341.1,452,341,452.1,341
		C452.1,340.9,452.1,341,452.1,341z"/>
	<path class="st1" d="M182.8,288.5c-2.1,4.9-4.2,9.9-6.4,14.9c-3,0.9-6.1,1.8-9.6,2.7c4.3-7.2,8.3-14.2,15.7-18
		C182.4,288.3,182.6,288.4,182.8,288.5z"/>
	<path class="st1" d="M172.5,310.4c0.1,0,0.2-0.1,0.3-0.1c0.2,0.2,0.1,0.3-0.1,0.3C172.6,310.6,172.5,310.5,172.5,310.4z"/>
	<path class="st1" d="M263.6,281.3c-3.2,1-6.3,1.9-9.6,2.8c4.3-7.2,8.3-14.2,16.2-17.8C268,271.2,265.8,276.3,263.6,281.3z"/>
	<path class="st1" d="M389.4,245c1.8-4.9,3.4-9.8,5.3-14.9c2.8-0.8,5.6-1.5,8.7-2.4c-2.5,7.8-6.4,13.9-13.8,17.5
		C389.5,245.2,389.5,245.1,389.4,245z"/>
	<path class="st1" d="M389.6,245.3c-0.1,0.1-0.1,0.2-0.3,0.4c0-0.3,0-0.4,0.1-0.5C389.5,245.1,389.5,245.2,389.6,245.3z"/>
	<path class="st1" d="M367.9,215.8c-1.3,0.2-2.5,0.9-4,0.8c0.9-2.2,1.7-4.2,2.5-6.2c1.2-0.7,2.4-1.2,4-1
		C369.6,211.6,368.8,213.7,367.9,215.8z"/>
	<path class="st1" d="M397.1,214.2c1.8-4.4,3.4-8.6,5-13c1.2-0.2,2.4-0.9,3.8-0.4c-1.6,3.9-3,7.8-4.7,11.6
		C400.7,213.9,398.8,213.8,397.1,214.2z"/>
	<path class="st1" d="M287.5,241.7c-0.1,0.1-0.2,0.1-0.3,0.3c0-0.2,0-0.4,0-0.4C287.4,241.6,287.4,241.7,287.5,241.7z"/>
	<path class="st1" d="M400,336.9c7.4,3.8,15.3,6.1,23.5,7.1c3.4,0.4,6.7,0.5,10.3,0.4c-1.6,1.4-3.4,2-5,2.4
		c-9.3,2-17.7,0.3-25.4-5.2c-1.6-1.1-2.9-2.6-3.5-4.5C399.9,337.1,400,337,400,336.9z"/>
	<path class="st1" d="M399.8,337.1c-0.1-0.1-0.1-0.2-0.3-0.4c0.3,0.1,0.4,0.2,0.5,0.2C400,337,399.9,337.1,399.8,337.1z"/>
</g>
</svg>
