<?xml version="1.0" encoding="utf-8"?>
<!-- Generator: Adobe Illustrator 21.0.0, SVG Export Plug-In . SVG Version: 6.00 Build 0)  -->
<svg version="1.1" id="Layer_1" xmlns="http://www.w3.org/2000/svg" xmlns:xlink="http://www.w3.org/1999/xlink" x="0px" y="0px"
	 viewBox="0 0 512 512" style="enable-background:new 0 0 512 512;" xml:space="preserve">
<style type="text/css">
	.st0{fill:#D0133E;}
	.st1{fill:#0547AC;}
</style>
<g>
	<path class="st0" d="M132.1,359.9c-12.2,0-24.5,0-36.7,0c-0.9,0-1.7,0-2.6-0.1c-2.2-0.3-3.8-2.4-3.7-4.6c0.1-1.6,0.9-2.4,2.6-2.4
		c12-0.1,24-0.2,36-0.1c13,0.1,26,0,38.9,0.1c22.8,0.1,45.6,0,68.5,0c17.6,0,35.2,0,52.8,0c36.4,0,72.8,0.1,109.3,0
		c10.9,0,21.8,0.5,32.7-0.1c3.1-0.2,6.3,0.1,9.4,0.2c2.1,0.1,3.6-0.7,4.9-2.5c4-5.6,7.1-11.7,9.7-18c4.6-11.1,9.1-22.3,11.5-34.1
		c3.1-15.3,3.9-30.7,2.2-46.2c-1.3-11.6-3.6-23-7.9-34c-1.6-4.1-1.6-4.1-6-4c-21,0-42.1,0-63.1,0c-52.9,0-105.8-0.3-158.7,0.1
		c-50,0.4-99.9,0.1-149.9,0.3c-1.3,0-2.6-0.1-3.8-0.3c-0.4-0.1-0.8-0.2-1.2-0.4c-0.1-3.5,1.3-5.1,6-5.8c1.5-0.3,3.1-0.3,4.6-0.3
		c30.3-0.1,60.5-0.1,90.8-0.1c1.4,0,2-0.4,2.6-1.7c1.4-3.4,3.1-6.7,4.8-10.3c-0.8,0-1.5,0-2.2,0c-29.6,0-59.2,0-88.8-0.1
		c-0.7,0-1.7,0.5-2.1-0.5c-0.5-1-0.1-2,0.4-2.8c0.9-1.5,2.3-2.1,4-2.1c6.2,0,12.3,0,18.5,0c23.9,0,47.7,0,71.6,0
		c1.4,0,2.2-0.4,2.9-1.6c1.9-3.4,4.2-6.6,6.7-10.3c-30.2,0-60,0-89.8,0c-0.5-3.1,1.2-5.7,3.9-6.2c0.8-0.2,1.7-0.1,2.6-0.1
		c28.3,0,56.6,0,84.9,0.1c2.1,0,3.7-0.5,5.1-2.2c2.4-3,5.1-5.8,7.6-9.1c-29,0-58,0-86.9,0c-0.3-3.3,1.2-5.3,3.9-5.6
		c1.1-0.1,2.2-0.1,3.3-0.1c27.8,0,55.5,0,83.3,0c2.1,0,3.7-0.6,5.3-2c21.8-19.3,47-31.5,75.8-36.2c33.8-5.5,66.1-0.8,96.5,14.9
		c29.5,15.1,51.7,37.7,67.1,67.2c8.4,16.1,13.6,33.3,15.8,51.3c3.9,32.6-2,63.5-17.7,92.2c-17,31.1-42,53.7-74.5,67.9
		c-14.5,6.3-29.7,10.1-45.5,11.6c-28.5,2.7-55.9-1.7-81.9-13.8c-22.1-10.3-40.5-25.2-55.2-44.7c-1.6-2.1-3.2-3-5.9-3
		c-16.1,0.1-32.1-0.1-48.2-0.1C141.3,359.9,136.7,359.9,132.1,359.9z M235.3,150.3c0.8,0.4,1.5,0,2.3-0.1
		c11.3-2.8,22.7-5.1,34.4-5.8c11.8-0.7,23.6-0.4,35.3,1.3c13.6,2,26.7,5.8,39.4,11.3c2.6,1.1,5.2,2.3,7.9,3.4c1-1.9,1.7-3.8,2.3-5.7
		c1.9-6.4,0.6-12-4.2-16.7c-1.1-1-2.1-2-3.3-3c-6.7-5.3-14.3-9-22.1-12.3c-1.8-0.8-3.7-1.2-5.7-1.1c-5,0.3-10.1,0.5-15.1,1
		c-10,1.1-19.7,3.1-29.2,6.2C262,133.7,248.1,141,235.3,150.3c0.1,0.1-0.1,0.4,0.2,0.2C235.4,150.5,235.3,150.4,235.3,150.3z
		 M189.3,207.9c0.5,0,0.9,0.1,1.2,0.1c25.8,0,51.7,0,77.5,0.1c1.5,0,2.8-0.4,4.1-0.9c12.8-5.4,25.8-10.2,38.9-15
		c12.1-4.4,23.5-10.2,33.2-19c2.4-2.2,4.6-4.5,6.5-7.2c-0.4-0.2-0.6-0.3-0.8-0.4c-17.7-8.5-36.4-13.3-56-14.6
		c-10.4-0.7-20.9-0.3-31.3,1.1c-13.6,1.8-26.9,5.2-39.8,10c-1.3,0.5-2.5,1.2-3.6,2.2c-12,12-21.9,25.5-29,41
		C189.8,205.9,189.2,206.7,189.3,207.9z M240.1,388.8c0.5,0.4,1,0.7,1.4,1c6.7,4.5,13.7,8.4,21,11.7c14.4,6.4,29.5,10.3,45.3,11.9
		c9.2,0.9,18.4,0.9,27.6,0.2c1.8-0.1,3.7-0.1,5.4-1c6.6-3.6,13.2-7.3,18.8-12.5c10.6-10,17.7-22.3,23.1-35.7
		c0.6-1.4,1.3-2.8,1.5-4.5c-0.8,0-1.5,0-2.1,0c-27.3,0-54.6,0-81.9,0c-11.3,0-22.5,0-33.8-0.1c-1.8,0-3,0.5-4,1.9
		c-1.2,1.7-2.6,3.3-3.9,4.9C252.4,373.9,246.3,381.2,240.1,388.8z M288.9,207.6c1,0.1,1.7,0.1,2.3,0.1c16.3,0.3,32.6,0.2,48.9,0.2
		c9.2,0,18.3,0,27.5,0c0.9,0,1.6,0,2.2-0.9c4.5-6.8,9.1-13.5,13.7-20.4c-8.5-6.6-17.1-12.8-26.8-17.5c-1.3,1.5-2.6,3-3.8,4.4
		c-8.1,8.8-18,15.2-28.8,20.1c-10,4.6-20.4,7.8-30.6,11.8C292,206,290.5,206.5,288.9,207.6z M344,123.5c0.2,0.3,0.3,0.5,0.4,0.5
		c0.5,0.3,0.9,0.6,1.4,0.9c4.9,3,9.5,6.3,13.2,10.8c4.4,5.4,5.9,11.4,4.6,18.2c-0.6,3.3-1.9,6.4-3.2,9.6c0.2,0.1,0.3,0.3,0.5,0.4
		c8.6,4.8,16.8,10.1,24.6,16.2c1.2,0.9,2,0.7,2.8-0.6c4.9-7.6,9.7-15.2,14.3-22.9c1.5-2.5,2.9-5.1,4.5-7.7
		C388,135.4,367.1,126.8,344,123.5z M450,197c-9.6-17.5-22.3-31.9-37.7-44.3c-6.5,11.1-13.2,21.9-20.2,32.7c8,6.7,15.7,13.5,23,20.8
		C427.4,193.1,432.6,191.7,450,197z M436.8,359.9c-0.4-0.1-0.6-0.2-0.7-0.2c-14.6,0-29.1,0-43.7,0c-0.9,0-1.3,0.4-1.5,1.2
		c-0.7,2-1.4,3.9-2.2,5.8c-5.1,12.5-11.5,24.1-20.7,34.1c-2.8,3-5.9,5.7-9,8.4C390.3,401.5,415.5,384,436.8,359.9z M208.6,359.8
		c7.8,9.6,16.3,18.1,26.3,25.2c6.9-8.4,13.7-16.7,20.7-25.2C239.8,359.8,224.4,359.8,208.6,359.8z M388.5,190.9
		c-3.7,5.7-7.6,11.1-11.1,17c10.1,0,19.9,0,30.1,0C401.2,201.9,395.3,196,388.5,190.9z M454.9,207.8c-4-3.1-8-5.4-12.5-6.7
		c-7.4-2.1-13.5,0.2-18.7,5.4c-0.3,0.3-0.8,0.6-0.6,1.2C425.1,208,451.4,208.1,454.9,207.8z"/>
	<path class="st1" d="M132.1,359.9c4.6,0,9.2,0,13.8,0c-5.9,8.5-13.3,15.4-21.8,21.3c-5.9,4-12.2,7.1-19.2,8.5
		c-11.6,2.4-22.8,0.6-33.4-4.5c-20.8-10-33-26.9-37.6-49.2c-4-19.3-0.2-37.7,7.8-55.3c9.4-20.8,23.6-37.5,43.9-48.4
		c12.5-6.8,25.9-10.6,40.3-11c16-0.5,32-0.1,48-0.3c0.3,0,0.6,0,0.9,0c3.5,0.1,4.3,0.9,3.4,4.4c-2.9,11.7-5.9,23.3-8.9,35
		c-0.2,0.7-0.1,1.6-1,1.8c-1,0.3-2,0.3-2.5-1.1c-1.1-3.2-1.8-6.5-3.1-9.6c-5.7-13-15.7-19.6-29.8-20.2c-14.6-0.6-26.2,5.8-35.6,16.4
		c-8.4,9.4-14.2,20.4-19.1,32c-7,16.9-11.2,34.3-10.8,52.7c0.2,10.5,2.1,20.7,7.8,29.8c4.7,7.7,11.1,13.3,20.2,15.1
		c5.5,1.1,10.9,0.3,16.1-1.8C119.7,372,126.4,366.5,132.1,359.9z"/>
	<path class="st1" d="M376.2,302.8c0.3,1.5,1.1,2.4,2.1,3.2c2.5,2,3.3,4.7,3.4,7.8c0.2,5,0.3,10,1.1,14.9c0.1,0.8,0.3,1.6,0.6,2.3
		c0.9,2.6,3.4,3.1,5.4,1.3c1-0.9,1.6-2.2,2.2-3.4c1.8-3.9,2.5-8.2,3.6-12.3c0.5-2.1,1.1-4.1,2.1-6.3c0.8,1.9,0.7,3.6,0.7,5.4
		c-0.1,4.7,1.1,9.1,3.7,13.1c1.6,2.3,3.5,4.3,6.1,5.5c3.5,1.7,6.9,1.6,10.1-0.8c3.3-2.5,4.9-5.8,4-10c-0.9-4.7-3.4-8.7-6-12.6
		c-2.8-4.3-5.8-8.4-8.6-12.6c-3.7-5.7-4.6-11.9-2.7-18.4c1.9-6.7,6.6-10.9,13.4-12.3c8.1-1.6,16.2-0.8,24.2,0.8
		c0.4,0.1,0.8,0.3,1.6,0.6c-1.8,5.7-3.5,11.4-5.3,17.1c-0.2,0-0.3,0-0.5,0c-0.1-0.7-0.2-1.3-0.3-2c-0.1-0.7-0.1-1.4-0.1-2
		c-0.5-7.1-6.2-11.8-13.3-10.8c-4.8,0.6-7,4.3-5.1,8.8c1.2,2.7,2.9,5,4.5,7.4c3.8,5.5,7.7,10.9,10.7,17c3.2,6.7,4.3,13.6,1.8,20.7
		c-2.9,8.3-10.9,14-20.2,14.4c-3.4,0.2-6.7-0.2-9.8-1.9c-3.8-2-7.5-2-11.3-0.1c-2.3,1.1-4.6,1.7-7.1,1c-0.8-0.2-1.1,0.3-1.6,0.6
		c-5.7,4.2-13.4,3.2-17.9-2.1c-1.8-2.2-2.7-4.6-2.7-7.4c0.1-6,0.1-11.9-1.3-17.8c-0.4-1.5-0.7-3-1.5-4.4c-0.6-1.1-1.5-2-2.9-1.9
		c-1.3,0.1-1.8,1.2-2.1,2.3c-1.6,6.1-3.2,12.2-4.5,18.4c-0.9,3.9,0.3,7.2,3.9,9.4c0.6,0.4,1.2,0.8,1.7,1.6
		c-10.4,0.4-20.7,0.3-30.9,0c-0.1-0.5,0.2-0.6,0.3-0.7c3.7-2,5.3-5.5,6.6-9.2c3.1-9.5,5.3-19.2,7.7-28.8c1.4-5.7,2.9-11.3,3.9-17.1
		c0.4-2.5,0.6-5,0.4-7.5c-0.2-1.9-1-3.4-2.5-4.5c-0.6-0.4-1.5-0.7-1.4-1.8c0.4-0.5,1-0.3,1.5-0.3c11.8,0,23.6-0.1,35.4-0.1
		c2.2,0,4.3,0.1,6.4,0.5c6.9,1.4,10.4,5.7,10.9,13.1c0.6,8.7-4.1,14-11.1,18C382.4,300.5,379.3,301.5,376.2,302.8z M371.9,271.1
		c-3.6,0-5.3,1.4-6.1,4.4c-1.5,6-3,12-4.5,17.9c-0.4,1.4-0.8,2.8-0.8,4.3c0,1.5,1.4,3,2.7,2.8c12.9-2,18.4-15.4,14.3-25.1
		C376.4,272.7,374.1,271.3,371.9,271.1z"/>
	<path class="st1" d="M180.8,267.8c3.7,0,7.3,0,10.8,0c9.3,0,18.6,0,27.9,0c12.5,0.1,16.3,9.9,13.9,18.6
		c-2.3,8.2-8.2,13.2-15.7,16.5c-5,2.2-10.2,2.9-15.6,2.7c-6.8-0.2-4.9-1.3-7.1,5c-1.6,4.6-2.7,9.4-3.8,14.2c-1.1,4.9-0.1,9,4.6,11.7
		c0.3,0.2,0.6,0.5,0.9,0.7c-2.2,1.1-27.6,1.1-30.2,0c0-0.7,0.6-1,1-1.4c3.2-2.9,5-6.5,6.1-10.5c3.9-14.9,7.8-29.8,11.6-44.7
		C186.7,273.9,186.5,273.8,180.8,267.8z M216.2,279.6c0-1.1,0.1-2.2,0-3.3c-0.2-2.6-2.9-5.6-5.3-5.9c-3.4-0.5-5.8,0.8-6.7,4.1
		c-2.3,8.1-4.6,16.2-6.4,24.4c-0.5,2.2,0.5,3.1,2.7,3c5.2-0.4,9.2-2.9,11.8-7.3C215,289.9,216.4,285,216.2,279.6z"/>
	<path class="st1" d="M249.3,337.9c-9.8,0-19.5,0-29.2,0c-0.4-0.8-0.2-1.3,0.4-1.7c3.6-2.6,5.5-6.4,6.5-10.6
		c4.1-15.5,8-31,12.1-46.5c1.1-4,0.1-7.3-3.2-9.8c-0.5-0.4-0.9-0.8-1.5-1.2c0.6-0.4,1.2-0.2,1.7-0.2c12,0,24,0.1,36-0.1
		c13.7-0.2,18.7,13.3,13.4,22.6c-4.8,8.4-12.2,12.7-21.3,14.8c-3.3,0.7-6.6,0.4-9.9,0.4c-5.1,0-3.9-0.5-5.3,3.7
		c-1.9,5.7-3.6,11.4-4.5,17.3c-0.6,4,0.1,7.5,4.1,9.6C249.4,336.5,249.6,337.1,249.3,337.9z M270.1,279.5c0-0.6,0-1.1,0-1.7
		c-0.2-3.9-2.5-6.7-6-7c-3.9-0.3-5.4,0.8-6.6,5.3c-2,7.4-4,14.9-6,22.3c-0.7,2.5,0.1,3.5,2.8,3.6c0.4,0,0.7,0,1.1-0.1
		c4.8-0.5,8.3-3.2,10.7-7.2C268.9,290.1,269.9,284.9,270.1,279.5z"/>
	<path class="st1" d="M286.5,267.9c17.2,0,34.2,0,51.4,0c-1.3,6.4-2.5,12.6-4.7,18.6c-0.2,0-0.4-0.1-0.5-0.1
		c-0.2-1.9-0.3-3.7-0.5-5.6c-0.6-6.1-3.9-9.4-10-9.7c-2.8-0.2-5.5,0-8.3-0.1c-0.7,0-1.1,0.4-1.5,0.9c-0.9,1.4-1.6,2.8-2,4.3
		c-1.3,5-2.6,10-3.9,15c-0.4,1.7-0.5,3.4-0.3,5.2c8.7,1.3,13.2-4.8,18.1-10.3c0,3.7-1.2,7-2,10.4c-0.8,3.4-1.6,6.8-2.6,10.2
		c-0.9,3.3-1.3,6.8-3.1,9.8c-0.7-2.6-0.8-5.1-1.5-7.5c-0.8-2.6-2.1-4.8-4.4-6.4c-3.5-2.3-6.9-1.2-8,2.8c-2.3,8.3-4.5,16.7-6.7,25.1
		c-0.6,2.2,0.7,4.3,2.8,4.3c4.2,0.2,8.5,0.2,12.7-0.8c3.9-0.9,7.1-3.1,9.6-6.2c2.7-3.2,5.2-6.5,7.8-9.8c0.4-0.6,1-1,1.7-1.7
		c0,1.7-0.3,3-0.6,4.3c-1.3,4.6-2.6,9.2-4,13.8c-0.9,2.8-1.1,2.8-3.9,2.9c-15.7,0.3-31.5,0-47.2,0.2c-1.3,0-2.5-0.1-3.9-0.5
		c0.2-0.2,0.3-0.4,0.4-0.5c5.2-2.8,7.9-7.3,9.4-12.9c3.7-14.3,7.3-28.7,11-43c0.2-0.7,0.3-1.4,0.5-2.2c0.7-3.8,0.1-7-3.7-8.9
		C287.7,269.3,287,269,286.5,267.9z"/>
	<path class="st1" d="M95.1,267.9c11.2,0,22.2,0,33.3,0c-0.2,0.8-0.8,1.1-1.3,1.4c-4.8,3-7.6,7.5-9,12.8
		c-4.3,15.7-8.5,31.4-12.7,47.1c-0.8,3.1,0.1,4.4,3.3,4.5c7.7,0.3,13.5-3.3,18.2-9.2c1.4-1.7,2.6-3.6,3.7-5.5
		c0.6-1.1,1.3-2.1,2.6-2.8c-0.5,4.5-1.6,8.7-2.9,12.9c-0.8,2.5-1.7,4.9-2.5,7.3c-0.3,1-0.9,1.4-1.8,1.4c-1.4,0.1-2.8,0.1-4.2,0.1
		c-12.4,0-24.7,0-37.1,0c-1.5,0-3,0-4.7-0.6c7.1-4.5,9-11.7,10.9-19.1c3.2-12.5,6.6-24.9,9.8-37.4c0.3-1.2,0.6-2.4,0.7-3.6
		c0.3-2.9-0.6-5.3-3.2-6.9C97,269.8,95.8,269.3,95.1,267.9z"/>
	<path class="st1" d="M145.4,267.9c9.5,0,19.1,0,28.8,0c-0.3,0.8-0.9,1.1-1.4,1.4c-2.7,1.8-4.3,4.5-5.3,7.6
		c-2.8,8.8-5,17.7-7.4,26.6c-1.8,6.7-3.5,13.4-5.3,20.1c-1.3,4.6-1.3,9,2.2,12.8c0.2,0.2,0.3,0.4,0.4,0.6c0,0.1,0,0.2,0.1,0.8
		c-9.4,0.4-18.7,0.4-27.9,0.1c-0.2-0.8,0.1-1,0.3-1.2c3.8-3.3,5.5-7.8,6.7-12.4c4-15.1,8.1-30.2,12.2-45.3c1-3.6,0.6-7-2.8-9.4
		C145.5,269.2,145,268.8,145.4,267.9z"/>
	<path class="st1" d="M304.4,227.6c2.7,0,5.3,0,8,0c1.6,6.1,3.2,12.2,4.8,18.4c0.1,0,0.2,0,0.4,0c1.3-6.1,2.6-12.1,4-18.3
		c1.6,0,3.2,0,5.1,0c-1.8,8.3-3.5,16.6-5.3,24.9c-2.6,0-5,0-7.6,0c-1.6-6.3-3.2-12.5-4.8-18.8c-1.6,3-1.9,6.3-2.7,9.4
		c-0.7,3.1-1.3,6.2-2,9.4c-1.7,0-3.4,0-5.2,0C300.9,244.2,302.6,236,304.4,227.6z"/>
	<path class="st1" d="M354.1,235.2c-1.9,0-3.7,0-5.6,0c-0.4-3.8-2.7-5.3-6.4-4c-4.3,1.5-6.2,5.1-7,9.2c-1.3,6.5,1.3,9.3,8,8.7
		c1.5-0.1,2.4-0.6,2.5-2.2c0.1-1,0.4-2,0.7-3.2c-1.6,0-3,0-4.5,0c-0.1-1.6,0.3-2.9,0.7-4.3c3.4,0,6.8,0,10.3,0
		c-0.9,4-1.7,7.9-2.5,11.8c-0.1,0.7-0.6,0.9-1.1,1c-4.3,1.2-8.6,1.7-12.9,0.8c-5.3-1.1-7.8-4-7.4-9.5c0.5-6.9,3.4-12.4,10-15.3
		c3.3-1.5,6.9-1.5,10.3-0.8C353,228,354.5,230.7,354.1,235.2z"/>
	<path class="st1" d="M212,243.7c0.1-3.7,1.1-7.2,3.1-10.3c3.7-5.6,9.3-7.3,15.4-6.1c4.3,0.8,6.9,4.7,6.5,9.6
		c-0.3,3.5-1.3,6.8-3.1,9.7c-3.3,5.3-9.6,7.9-15.7,6.4C214,252,211.9,248.9,212,243.7z M217.8,243c-0.1,4.5,1.3,6,4.4,6.3
		c2.7,0.3,4.7-1.1,6.2-3.2c1.9-2.8,2.8-5.9,3-9.3c0.1-2.3-0.7-4.2-2.6-5.3c-1.9-1.2-3.9-0.5-5.7,0.5c-1.3,0.7-2.3,1.8-3.1,3.1
		C218.5,237.6,217.9,240.4,217.8,243z"/>
	<path class="st1" d="M446.1,234.8c-0.9,0-1.7,0-2.5,0c-1.6,0.1-3.1,0.2-3.2-2.1c-0.1-0.9-0.8-1.3-1.6-1.6c-1.7-0.6-3.3-0.1-4.7,1
		c-2.3,1.9-2,4.1,0.9,5c1.9,0.7,3.9,1.1,5.8,1.8c3.7,1.4,4.7,3.8,3.3,7.5c-1.4,3.7-4.4,5.6-8.1,6.5c-2.2,0.5-4.5,0.6-6.8,0.2
		c-4.7-0.8-6.6-4-4.9-8.7c1.6,0,3.2,0,4.8,0c0.6,0.9,0.4,1.9,0.7,2.8c0.2,0.5,0.1,1.1,0.6,1.5c2.6,1.9,7.6-0.2,8.1-3.3
		c0.2-1.1-0.1-1.7-1.2-2c-1.9-0.5-3.9-1.1-5.8-1.8c-5.2-1.9-6.3-6.1-2.9-10.4c3-3.8,10.4-5.4,14.7-3.2
		C445.7,229.2,446.4,230.9,446.1,234.8z"/>
	<path class="st1" d="M239.9,244.6c1.9,0,3.6,0,5.5,0c0,0.3,0,0.5,0.1,0.7c0.1,2.9,0.5,3.6,2.5,3.9c2.7,0.5,5.5-0.7,6.3-2.7
		c0.5-1.3,0.2-2.4-1.1-3c-0.7-0.3-1.5-0.5-2.3-0.7c-1.3-0.4-2.6-0.7-3.9-1.2c-4.5-1.8-5.6-6.1-2.7-10c1.4-2,3.4-3.2,5.7-3.9
		c2.4-0.7,4.9-0.7,7.3-0.3c3.9,0.7,5.1,2.7,4.7,7.3c-1.6,0.4-3.2,0.1-4.8,0.2c-0.5-0.2-0.5-0.6-0.6-1c-0.6-2.2-1.5-2.8-3.8-2.7
		c-2.1,0.1-3.5,1.2-3.8,3.1c-0.3,1.4,0.2,2.4,1.6,2.9c1.8,0.6,3.7,1,5.5,1.7c4.6,1.6,5.8,5.8,2.9,9.8c-1.5,2.1-3.6,3.4-6,4.1
		c-2.8,0.9-5.7,1-8.6,0.4c-3.2-0.6-4.8-2.6-4.7-5.8C239.7,246.3,239.8,245.5,239.9,244.6z"/>
	<path class="st1" d="M291.6,227.6c1.2,8.3,2.4,16.6,3.3,25c-1.8,0-3.6,0-5.4,0c-0.2-1.7-0.5-3.3-0.7-5.1c-3.1,0-6.1,0-9.2,0
		c-0.5,0-0.8,0.2-1,0.7c-0.1,0.2-0.3,0.4-0.4,0.6c-1.2,3.5-3.6,4.9-7.2,3.6c-0.1-0.6,0.5-1.1,0.8-1.6c4.1-7.3,8.3-14.6,12.4-21.9
		c0.5-0.9,1-1.4,2.1-1.3C288,227.7,289.7,227.6,291.6,227.6z M287.3,233.2c-2.5,3.2-4.1,6.4-5.8,9.8c2.4,0,4.6,0,6.8,0
		C288,239.8,287.7,236.7,287.3,233.2z"/>
	<path class="st1" d="M378.1,231.6c-3.8,0-7.4,0-11.1,0c-0.6,1.8-1.2,3.6-1.4,5.7c3.4,0,6.8,0,10.3,0c-0.1,1.5-0.2,2.8-0.4,4.5
		c-2.9,0-5.8,0.2-8.7-0.1c-2-0.2-2.7,0.6-2.9,2.4c-0.1,1.3-0.4,2.5-0.6,4c3.8,0,7.5,0,11.2,0c0,1.6-0.1,2.9-0.5,4.4
		c-5.8,0-11.6,0-17.5,0c1.8-8.3,3.5-16.6,5.3-24.9c5.7,0,11.3,0,17,0C378.7,229,378.4,230.2,378.1,231.6z"/>
	<path class="st1" d="M410.9,231.6c-0.5,1.9-1.1,3.6-1.3,5.7c3.5,0,6.8,0,10.4,0c-0.1,1.6-0.5,3-0.8,4.5c-3.1,0-6.1,0.1-9.1,0
		c-1.1,0-1.7,0.3-1.8,1.5c-0.2,1.6-0.6,3.1-1,4.9c3.9,0,7.7,0,11.6,0c-0.3,1.6-0.5,3-0.8,4.5c-5.8,0-11.5,0-17.4,0
		c1.8-8.4,3.5-16.7,5.3-25c5.7,0,11.3,0,17,0c-0.3,1.4-0.5,2.6-0.8,4C418.4,231.6,414.7,231.6,410.9,231.6z"/>
	<path class="st1" d="M191.4,252.6c1.8-8.5,3.5-16.9,5.3-25.3c1.8,0,3.6,0,5.5,0c-0.9,7-2.9,13.8-4.1,20.9c3.5,0,7,0,10.4,0
		c0,1.6-0.5,2.9-0.7,4.4C202.4,252.6,197,252.6,191.4,252.6z"/>
	<path class="st1" d="M384.7,227.6c2,0,3.7,0,5.7,0c-1.5,6.8-2.9,13.6-4.4,20.6c3.6,0,7.1,0,10.8,0c-0.3,1.6-0.6,3-0.8,4.4
		c-5.5,0-10.9,0-16.5,0C381.2,244.3,383,236,384.7,227.6z"/>
</g>
</svg>
