<?xml version="1.0" encoding="utf-8"?>
<!-- Generator: Adobe Illustrator 21.0.0, SVG Export Plug-In . SVG Version: 6.00 Build 0)  -->
<svg version="1.1" id="Layer_1" xmlns="http://www.w3.org/2000/svg" xmlns:xlink="http://www.w3.org/1999/xlink" x="0px" y="0px"
	 viewBox="0 0 512 512" style="enable-background:new 0 0 512 512;" xml:space="preserve">
<style type="text/css">
	.st0{fill:#85898C;}
	.st1{fill:#2B2824;}
</style>
<g>
	<path class="st0" d="M150.5,351.9c-8.6,1.7-16.8,4.5-25.1,7.2c-11.2,3.6-22.2,7.8-32.9,12.6c-0.8,0.4-1.6,1-2.9,0.8
		c-0.7-2-1.4-4.1-2.3-6.6c-8,3.3-15.7,6.4-23.7,9.7c-1.9-4.8-3.6-9.3-5.6-14.3c-5.7,2-11.2,4-17,6.1C27.4,325.6,13.7,283.9,0,242
		c5.6-2,11-4,16.6-6.1c-1.4-4.9-2.8-9.6-4.2-14.5c7.2-2.9,14.3-5.8,21.6-8.8c-1.1-3.2-2.1-6.3-3.2-9.7c6.1-2,12-3.9,18.1-5.9
		c-1.5-5.1-2.8-9.9-4.3-15c50.5-17.9,102.1-29.4,155.4-33.6c91.3-7.1,180.6,2.2,267.4,33.7c-1.4,4.9-2.8,9.7-4.3,14.9
		c6,2,11.8,3.9,18,5.9c-1,3.2-2.1,6.3-3.1,9.7c7.2,2.9,14.3,5.8,21.5,8.8c-1.4,4.8-2.7,9.5-4.1,14.5c5.5,2,10.9,4,16.6,6.1
		c-13.7,41.8-27.4,83.5-41.1,125.5c-5.7-2-11.2-4-17-6c-1.9,4.9-3.7,9.4-5.6,14.3c-7.9-3.3-15.7-6.4-23.5-9.6
		c-1.4,2.1-1.6,4.4-2.7,6.7c-46.8-20.3-95.3-32.8-147.4-34c11.1,12.9,21.7,25.1,32.7,37.9c-24.1-6.2-47.4-12.2-70.9-18.2
		c-6,20.5-11.8,40.6-17.7,60.7c-0.2,0-0.4,0-0.7,0.1c-8-19.3-16.1-38.7-24.1-57.9c-1.7-0.5-3,0.4-4.3,0.8
		c-18.3,6-36.5,11.9-54.8,17.9c-0.8,0.3-1.6,0.8-2.5,0.5l0,0c-0.2-1.2,0.7-1.9,1.3-2.7c5.1-7.7,10.3-15.4,15.4-23
		c0.6-0.8,1-1.8,1.5-2.7c0.1-0.1,0.1-0.2,0.2-0.4C150.8,351.9,150.7,351.9,150.5,351.9z M166.4,339.9c0.1,0.1,0.2,0.3,0.4,0.4
		c-6.1,9.3-12.2,18.6-18.7,28.4c16.9-5.5,33.2-10.8,49.6-16.2c6.6,15.9,13.1,31.4,19.8,47.7c4.9-16.9,9.7-33.1,14.5-49.7
		c18.7,4.8,37.1,9.5,55.5,14.3c0.1-0.2,0.2-0.4,0.3-0.6c-9.3-10.7-18.5-21.4-27.8-32.2c0.1-0.3,0.2-0.5,0.4-0.8
		c54.6-1.7,106.5,10.4,156.9,30.9c1.3-2.1,1.2-4.7,2.8-6.9c7.8,3.2,15.6,6.4,23.5,9.6c1.9-4.8,3.6-9.4,5.4-14c5.7,2,11,3.9,16.6,5.9
		c12-36.7,24-73.1,36-109.8c-5.7-2.1-11-4-16.4-6c1.5-5.1,2.8-9.9,4.3-14.8c-3.7-1.5-7.2-3-10.7-4.4c-3.6-1.4-7.1-2.9-10.8-4.4
		c1.2-3.4,2.2-6.4,3.3-9.6c-6.1-2-11.9-3.9-17.8-5.8c1.1-5.2,3.2-10,4.2-15.7c-134.6-43.6-268.8-43.6-403.6,0.1
		c1.6,5.6,3,10.5,4.5,15.6c-6,2-11.8,3.9-17.8,5.8c1.1,3.3,2.1,6.3,3.2,9.6c-7.3,3-14.3,5.8-21.5,8.8c1.5,5.1,2.8,9.8,4.3,14.8
		c-5.5,2-10.8,4-16.4,6c12,36.7,24,73.2,36,109.8c5.8-2.1,11.2-4,16.7-5.9c1.9,4.9,3.6,9.3,5.4,14c8-3.3,15.8-6.4,23.8-9.7
		c0.9,2.6,1.7,4.8,2.5,7.2c14-5.8,27.9-10.8,42.1-14.9C146.5,344.6,156.3,341.7,166.4,339.9z"/>
	<path class="st0" d="M132.5,380.6c-0.1,0.1-0.2,0.2-0.1,0.1C132.3,380.7,132.4,380.7,132.5,380.6
		C132.5,380.6,132.5,380.6,132.5,380.6z"/>
	<path class="st1" d="M166.4,339.9c-10.1,1.7-19.9,4.6-29.7,7.5c-14.2,4.1-28.1,9.1-42.1,14.9c-0.8-2.3-1.6-4.6-2.5-7.2
		c-8,3.3-15.8,6.4-23.8,9.7c-1.8-4.7-3.5-9.1-5.4-14c-5.5,1.9-10.9,3.9-16.7,5.9c-12-36.6-23.9-73-36-109.8c5.6-2,10.9-4,16.4-6
		c-1.4-5-2.8-9.8-4.3-14.8c7.2-2.9,14.3-5.8,21.5-8.8c-1.1-3.2-2.1-6.3-3.2-9.6c6-2,11.8-3.9,17.8-5.8c-1.5-5.1-2.9-10-4.5-15.6
		c134.7-43.7,269-43.7,403.6-0.1c-0.9,5.7-3.1,10.5-4.2,15.7c5.9,1.9,11.7,3.8,17.8,5.8c-1.1,3.2-2.1,6.2-3.3,9.6
		c3.7,1.5,7.3,2.9,10.8,4.4c3.5,1.4,7,2.9,10.7,4.4c-1.4,4.9-2.8,9.7-4.3,14.8c5.4,2,10.7,3.9,16.4,6c-12,36.7-24,73.1-36,109.8
		c-5.6-2-11-3.9-16.6-5.9c-1.8,4.6-3.6,9.2-5.4,14c-7.9-3.2-15.7-6.4-23.5-9.6c-1.6,2.2-1.5,4.9-2.8,6.9
		c-50.4-20.5-102.3-32.6-156.9-30.9c-0.1,0.3-0.2,0.5-0.4,0.8c9.3,10.7,18.5,21.4,27.8,32.2c-0.1,0.2-0.2,0.4-0.3,0.6
		c-18.4-4.7-36.8-9.5-55.5-14.3c-4.8,16.6-9.6,32.8-14.5,49.7c-6.7-16.2-13.2-31.8-19.8-47.7c-16.4,5.4-32.6,10.7-49.6,16.2
		c6.5-9.9,12.6-19.2,18.7-28.4c0.2-0.2,0.4-0.3,0.1-0.6C166.7,339.8,166.6,339.9,166.4,339.9z M176.1,347.9c9.2-3,18.5-6,27.9-9
		c3.9,9.3,7.6,18.3,11.7,28.1c3-10.4,5.9-20,8.7-29.8c10.8,2.8,21.4,5.5,32.6,8.4c-7.3-8.5-14.2-16.4-21.2-24.6
		c4.1-3.5,8-6.9,11.9-10.2c65.8-1.5,128.4,12.3,188.9,37.8c1.8-4.7,3.5-9,5.2-13.6c5.4,1.9,10.6,3.8,16.1,5.8
		c9.4-28.8,18.8-57.4,28.2-86.1c-5.5-2-10.7-3.9-16-5.8c0.8-2.7,1.5-5.1,2.2-7.6c0.7-2.5,1.4-5,2.2-7.8
		c-71.7-28.7-145.8-43.2-222.7-42.6c-74,0.6-145.4,14.9-214.3,42.6c1.5,5.2,2.9,10.2,4.4,15.4c-5.4,2-10.7,3.9-16,5.8
		c9.5,28.9,18.9,57.5,28.2,86.1c5.5-2,10.7-3.8,16.1-5.7c1.8,4.6,3.5,9,5.2,13.5c17.7-7.3,35.4-13.8,53.4-19.2
		c18.2-5.4,36.6-9.8,55.2-12.8c2.9,2,5.5,3.9,8.3,5.9c-1,1.5-1.9,2.8-2.7,4c-4.5,7.1-9.6,13.8-13.9,21.1c-0.1,0.1-0.3,0.2-0.4,0.3
		C175.6,348.2,175.8,348,176.1,347.9z M249.7,171.1c3.5,4.4,6.5,8.2,9.3,11.7c2.8,0,5.2,0,7.6,0c0-5.4,0-10.7,0-15.9
		c-1.7,0-3.1,0-4.9,0c0,3.8,0,7.4,0,11.6c-3.4-4.3-6.4-8-9.4-11.8c-2.6,0.1-5.1-0.3-7.4,0.2c0,5.4,0,10.7,0,16
		c1.7,0,3.2,0.3,4.8-0.2C249.7,179.1,249.7,175.5,249.7,171.1z M81.9,202.3c1,3.7,1.9,4.6,4.8,4.1c4.4-0.7,8.7-1.9,12.8-3.5
		c2.7-1.1,2.7-3.3,2-5.7c-0.7-2.5-2.1-4.1-4.9-3.6c-2.6,0.5-5.1,1.3-7.7,1.8c-1.2,0.2-2.5,1.1-3.8,0.1c0.3-2.8,7.2-4.7,9.9-2.8
		c1.3-0.6,2.9-0.4,4.1-1.4c-1.1-3.4-2.2-4.2-5.6-3.5c-3.2,0.7-6.4,1.6-9.6,2.6c-3.8,1.2-4.6,2.8-3.7,6.3c0.9,3.4,2.2,4.1,6.2,3.2
		c2.2-0.5,4.4-1.1,6.6-1.6c1.1-0.3,2.2-0.7,3.3,0c0.2,2.5,0.1,2.5-8.4,4.3c-1,0.2-1.1-1.3-2.6-1.1C84.7,201.5,83.4,201.9,81.9,202.3
		z M157.4,178.6c4.2,3.8,7.7,7,11.2,10.3c2.5-0.4,4.9-0.9,7.5-1.3c-0.9-5.4-1.7-10.6-2.6-15.9c-1.8,0.3-3.2,0.6-4.8,0.8
		c0.5,3.7,1,7.2,1.7,11.6c-4.1-3.8-7.6-6.9-11.1-10.1c-2.5,0.4-5,0.9-7.5,1.3c0.9,5.4,1.7,10.6,2.5,15.8c1.7-0.1,3.3-0.2,4.8-0.9
		C158.6,186.4,158.1,182.8,157.4,178.6z M352.4,189.7c1.7,0.6,3.2,0.9,4.8,0.8c0.7-3.7,1.3-7.2,2.1-11.4c2.7,4.9,5,9.1,7.2,13.3
		c2.6,0.4,5,0.8,7.5,1.3c0.9-5.4,1.8-10.6,2.8-15.9c-1.7-0.3-3.1-0.5-4.8-0.8c-0.7,3.7-1.4,7.2-2.2,11.5c-2.6-4.8-4.9-9-7.2-13.2
		c-2.5-0.4-4.9-0.9-7.5-1.3C354.3,179.3,353.4,184.4,352.4,189.7z M427.3,206.3c4,0.5,5.4-1.9,5.9-4.6c0.6-3.5,3.8-7.6-0.7-10.3
		c-4.5-2.6-9.8-4.1-14.9-4c-5.5,0.1-4.6,5.6-5.9,9.1c-0.9,2.5-0.3,4.8,2.3,6C418.4,204.6,423.3,205.8,427.3,206.3z M323.8,169.8
		c-6.1-0.4-7.6,0.8-8.1,6.9c-0.1,1.1-0.3,2.3-0.4,3.4c-0.2,3.4,1.1,5.2,4.5,5.8c3.5,0.6,7.1,1,10.7,1.2c5.1,0.3,6.4-0.9,7-5.9
		c0.2-1.5,0.4-3,0.5-4.5c0.1-3.4-1-5-4.3-5.6C330.4,170.5,327.1,170.2,323.8,169.8z M224.9,183.8c1.6-0.5,3.4,0.3,5.1-0.8
		c-3.2-5.2-6.3-10.2-9.5-15.3c-2.2,0.3-4.4-0.1-6.5,0.6c-2.6,5.4-5.1,10.8-7.7,16.3c2,0.2,3.7,0.1,5.4-0.3c0.5-0.9,1-1.8,1.4-2.7
		c3.4-0.2,6.7-0.4,9.9-0.5C223.7,181.9,224.2,182.7,224.9,183.8z M134.8,194.7c1.7-0.4,3.3-0.7,5.3-1.1c-4.2-4.9-8.1-9.4-12.1-14
		c-2.2,0.5-4.3,0.9-6.3,1.4c-1.7,5.8-3.4,11.5-5.2,17.6c2-0.4,3.6-0.8,5.2-1.1c0.4-1.1,0.7-2.1,1.1-3.1c3.3-0.7,6.5-1.4,9.7-2.1
		C133.4,193,134,193.7,134.8,194.7z M289.1,171.4c-0.2,4.2-0.4,8.1-0.6,12c1.7,0.3,3.2,0.5,4.8,0.1c0.2-3.9,0.5-7.8,0.7-11.7
		c2.4,0,4.6,0,6.8,0c0.2-1.3,0.4-2.5,0-3.8c-6.1-0.3-12.2-0.6-18.4-0.9c-0.2,1.5-0.5,2.6,0,4C284.6,171.2,286.7,171.3,289.1,171.4z
		 M390,197c1.8,0.4,3.3,0.6,4.8,1c1.1-5.4,2.2-10.5,3.3-15.7c-1.8-0.3-3.1-1-4.8-0.7C392.2,186.6,391.1,191.6,390,197z"/>
	<path class="st0" d="M166.4,339.9c0.1-0.1,0.3-0.1,0.4-0.2c0.3,0.2,0.1,0.4-0.1,0.6C166.7,340.2,166.6,340.1,166.4,339.9z"/>
	<path class="st0" d="M294.9,254.4c-1.7,10.3-3.4,20.5-5,30.8c-0.2,1.1-0.3,2.2-0.5,3.7c9.7,1.7,19.3,3.3,29.3,5
		c1.5-8.7,3-17.3,4.6-26.2c6.1,0.5,11.9,1.8,18.1,2.9c-1,6.1-2,12-2.8,17.8c-0.8,5.2,1.6,8.8,6.8,10.1c8.1,2,16.2,4,24.3,5.9
		c11.3,2.7,22.2,6.9,33.3,10.4c7.1,2.2,14,4.6,21.1,6.8c7,2.2,13.9-1.1,16.2-8c5.9-17.7,11.6-35.5,17.3-53.2
		c2.1-6.5-1.3-13.4-7.8-15.6c-16.3-5.5-32.7-10.8-49.2-16c-6.5-2-13.1,1.7-15.3,8.3c-4.9,14.9-9.8,29.9-14.7,44.8
		c-0.3,0.9-0.7,1.8-1,2.6c-0.1-0.1-0.2-0.2-0.3-0.3c0.8-7.5,2.5-14.9,3.7-22.4c1.5-9.1,3.2-18.1,4.8-27.1
		c1.2-7.2-3.2-13.5-10.4-14.8c-20.7-3.6-41.4-7.1-62.1-10.6c-0.6-0.1-1.3-0.1-2.3-0.1c-0.9,4.9-1.7,9.8-2.6,14.7c-0.1,0-0.3,0-0.4,0
		c0-5.1,0-10.1,0-15.4c-8.5,0-16.7,0-25.1,0c-3.6,6.4-7.3,12.7-10.7,19.1c-1,1.9-1,4.4-1.1,6.7c-0.1,3.6-1.3,6.8-3.1,9.9
		c-3.3,5.6-6.4,11.4-9.6,17c-1.3,0.4-2.5,0.4-4,0c2.7-4.7,5.2-9.3,7.9-13.9c1.2-2.1,1.8-4.2,1.8-6.7c-0.1-9.6,0-19.2,0-28.7
		c0-1,0-2.1,0-3.3c-8.7,0-17.1,0-25.8,0c-3.4,6.3-7.1,12.7-10.3,19.3c-1.1,2.4-1.2,5.4-1.1,8.1c0,3.9-2.2,6.7-4.2,10.6
		c-1-5.3-1.9-9.9-2.8-14.4c-0.7-3.7-1.3-7.5-2.2-11.1c-1.7-7.1-7.8-11.2-14.9-9.9c-20.9,3.9-41.8,7.9-62.8,11.9
		c-0.3,0.1-0.5,0.2-1.2,0.5c3.4,18,6.8,36.2,10.2,54.3c-0.3,0.1-0.5,0.1-0.8,0.2c-1.2-3.4-2.3-6.9-3.5-10.3
		c-3.3-10.1-6.5-20.2-9.8-30.3c-2.4-7.1-9.3-10.5-16.4-8.2c-15.7,5.1-31.3,10.2-47,15.3c-8,2.6-11.3,9.2-8.7,17.2
		c5.5,17,11,34,16.6,51.1c2.6,7.9,9.4,11.4,17.2,8.8c14.7-4.8,29.3-9.6,44.1-14.3c5.3-1.7,9.8-4,11.7-9.8c1.2,1.5,0.5,3.4,1.9,5.2
		c9.3-1.7,18.8-3.5,28.9-5.4c-1.6-8.9-3.3-17.5-4.9-26.5c11.3-2.1,22.4-4.1,33.4-6.1c0.1,0.1,0.3,0.3,0.4,0.4c-2,3.7-4,7.5-6.1,11.2
		c-0.9,1.6-1.3,3.2-1.1,5.1c0.6,6.4,1,12.8,1.4,19.3c0.1,0.7,0,1.5,0,2.6c-10.1,0.4-20,0.8-30.7,1.3c3.2,2.3,5.8,4.2,9,6.5
		c-33.6,6.2-65.6,16.1-97,28.8c-1.8-4.5-3.4-8.7-5.2-13.2c-5.3,1.8-10.3,3.6-15.8,5.5c-8.1-24.6-16-48.9-24.1-73.5
		c5.3-2,10.5-3.9,15.8-5.8c-1.5-5.2-2.9-10.1-4.5-15.7c140.4-52.8,280.4-53,420.6-0.1c-0.1,3.1-1.3,5.6-1.9,8.1
		c-0.6,2.5-1.4,4.9-2.2,7.8c5.2,1.9,10.3,3.8,15.3,5.7c0,2.3-22.5,71-24.1,73.6c-5-1.7-10.1-3.5-15.4-5.4c-1.7,4.5-3.4,8.7-5.2,13.2
		c-28.2-11.3-56.9-20.5-86.5-26.7c-29.5-6.2-59.4-9.1-90.2-9.3c1.8-1.8,3.1-2.9,4.9-4.6c-5.9,0-11.2,0-17,0c1-1.9,2.2-3,3.5-4.2
		c7.9,0,15.8,0,23.9,0c2.6-4.5,5.1-8.9,7.6-13.4c5-8.9,10-17.8,15.1-26.7c0.2-0.3,0.5-0.6,0.7-0.8
		C294.7,254.2,294.8,254.3,294.9,254.4z"/>
	<path class="st1" d="M214.6,349.4c-2.6-6.3-5-11.9-7.4-17.7c-5.8,1.9-11.4,3.7-17.9,5.8c3.9-5.9,7.4-11,11-16.5
		c-5-3.5-9.9-7-15.5-11c6.9-0.3,13.1-0.6,19.5-0.9c-0.4-5.8-0.8-11.4-1.3-17.9c4,4.3,7.5,8,11.3,12.1c2-5,3.9-9.7,5.9-14.8
		c-4.5,0-8.8,0-13,0c-1.2-3-2.4-5.9-3.6-9c6.3-11.2,12.4-22.5,18.9-33.6c2.3-3.9,2.7-8,3.1-12.2c0.3-2.8,1.1-5.3,2.5-7.7
		c2-3.5,3.9-7.1,5.9-10.7c5,0,9.9,0,15.2,0c0,2.6,0,5.1,0,7.6c0,6.6,1.2,13.6-0.5,19.8c-1.6,6.1-6.1,11.5-9.3,17.2
		c-1.5,2.6-2.9,5.2-4.5,8.1c6.6,0,12.7,0,19.1,0c4.8-8.5,9.7-17,14.4-25.7c1.2-2.3,0.9-5,1.2-7.5c0.3-3.1,1-5.9,2.7-8.5
		c2.2-3.5,4.1-7.2,6.2-10.9c4.8,0,9.5,0,14.2,0c0.7,0.7,0.4,1.5,0.4,2.2c0,6.8-0.1,13.7,0.1,20.5c0.1,3.4-0.7,6.4-2.4,9.4
		c-7.4,12.8-14.6,25.7-21.8,38.6c-0.5,0.8-1,1.6-1.5,2.5c-7.7,0-15.2,0-23,0c-5.6,6.4-11.3,12.8-17.4,19.7
		c5.6-0.3,10.5-0.6,16.2-0.9c-5.6,4.6-10.6,8.8-15.8,13.1c4.2,4.8,8.2,9.6,12.3,14.3c-0.1,0.1-0.3,0.3-0.4,0.4
		c-6.3-1.6-12.5-3.2-19-4.9C218.5,336.3,216.6,342.5,214.6,349.4z M202.1,327.8c2.7-0.8,5.4-1.5,8.2-2.3c1.2,2.8,2.4,5.5,3.8,8.8
		c1.1-3.6,2-6.5,3-9.6c3.2,0.7,6.1,1.4,9,2c0.2,0.2,0.4,0.3,0.6,0.1c-0.1-0.1-0.2-0.2-0.3-0.4c-1.5-2.5-4-4.3-5.5-7.1
		c2.3-2,4.7-4,7.4-6.3c-4.1-0.6-7.6,0.7-11.6,0.1c8-12.1,15.8-23.8,23.6-35.6c6.9,0,13.7,0,20.6,0c6-10.9,12-21.7,18.2-32.8
		c-2.8,0-4.9,0-7.1,0c-5.2,9-10.3,18.1-15.4,26.9c-12.4,0-24.4,0-36.7,0c5.1-9,10.1-17.8,15.2-26.9c-2.7,0-4.9,0-7.2,0
		c-6.1,10.8-12.2,21.6-18.7,33c7.3,0,13.8,0,20.6,0c-5,11.5-9.9,22.6-14.9,33.9c-2.6-2.3-4.2-4.8-6.8-6.6c-0.1,3.1,0.9,5.9,0.1,9.1
		c-3,0-5.9,0-9.7,0c3.1,2.2,5.5,4,8,5.8c-1.7,2.7-3.3,5.2-4.8,7.8c-0.1,0.1-0.1,0.3-0.2,0.4C201.8,327.9,202,327.9,202.1,327.8z
		 M243.8,219.3c-2.7,0-4.9,0-7.3,0c-1.6,2.9-3.2,5.9-5,9.1c2.8,0,5.1,0,7.6,0C240.6,225.4,242.1,222.5,243.8,219.3z M280.6,219.3
		c-1.7,3-3.3,5.9-5.1,9.1c2.8,0.2,4.9,0.3,7.1-0.1c1.3-3,3.5-5.5,4.3-8.9C284.8,218.9,282.9,219.1,280.6,219.3z M280.3,239.9
		c0.1-2.6,0.9-5,0.5-7.8c-2.2,0-4.2-0.3-6.5,0.3c0.3,2.6-1,4.9-0.4,7.5C276.1,239.9,278.1,239.9,280.3,239.9z M230.4,232.2
		c0,2.7-1,5.1-0.4,7.7c2.2,0.1,4.3,0.4,6.5-0.2c0.2-2.5,0.3-4.9,0.5-7.5C234.8,231.9,232.8,232,230.4,232.2z"/>
	<path class="st1" d="M405.4,252.9c-2.8,2.8-3,6.4-3.9,9.6c0.9,1.9,2.5,2,3.8,2.4c10.7,3.5,21.4,7,32.1,10.4
		c5.6,1.8,6.9,4.4,5.1,9.9c-2.8,8.5-5.5,16.9-8.3,25.4c-1.6,4.7-4.2,6.1-8.9,4.6c-15.5-5-31-10-46.4-15.1c-4.6-1.5-6-4.2-4.5-8.8
		c1.5-4.6,3-9.2,4.6-14.1c5.3,1.7,10.5,3.4,15.8,5.1c-0.6,1.8-1,3.4-1.5,4.9c0.2,1.8,1.5,2.2,2.7,2.6c7.3,2.4,14.6,4.7,21.9,7.1
		c2.3,0.8,3.4,0,4-2.1c0.4-1.4,0.9-2.7,1.3-4c1.1-3.6,0.8-4.2-2.7-5.4c-11-3.6-22-7.1-32.9-10.7c-5.1-1.7-6.4-4.2-4.8-9.3
		c2.7-8.5,5.4-16.9,8.2-25.4c1.6-4.8,4.3-6.1,9.2-4.5c15.2,4.9,30.4,9.9,45.6,14.8c5.2,1.7,6.5,4.3,4.9,9.5c-1.4,4.2-2.7,8.4-4.2,13
		c-5.3-1.7-10.5-3.4-15.7-5.1c1.9-7.3,1.9-5.9-4.9-8.2C419.3,257.3,412.5,255.2,405.4,252.9z"/>
	<path class="st1" d="M73,297c5.4-1.8,10.4-3.4,15.5-5c1.4,1.6,1,3.9,3.3,5.9c8.6-2.5,17.6-5.5,26.6-8.6c0-3.8-1.2-6.8-2.7-9.7
		c-0.7-1.4-2.3-0.9-3.6-0.4c-11,3.6-22,7.1-32.9,10.7c-5.8,1.9-8.2,0.7-10.1-5c-2.7-8.4-5.5-16.7-8.1-25.1c-1.4-4.5,0-7.3,4.5-8.8
		c15.4-5,30.8-10,46.2-15c4.9-1.6,7.6-0.3,9.2,4.6c1.4,4.3,2.8,8.6,4.3,13.2c-5.2,1.7-10.3,3.4-15.4,5.1c-1.5-1.4-1-3.7-2.5-4.9
		c-3.3-0.5-26,7.2-27.5,9.5c0.6,2,1.4,4.1,2,6.3c0.7,2.5,2.1,3,4.5,2.2c11.1-3.7,22.1-7.2,33.2-10.8c5.6-1.8,8-0.5,9.8,5.1
		c2.7,8.5,5.5,16.9,8.2,25.4c1.5,4.7,0.1,7.4-4.6,8.9c-15.4,5-30.8,10-46.2,15c-4.8,1.6-7.6,0.1-9.1-4.7C76,306.2,74.5,301.7,73,297
		z"/>
	<path class="st1" d="M313.3,286.3c-5.5-0.9-10.7-1.8-16.5-2.8c3.8-22.3,7.5-44.6,11.3-66.9c10.8,1.8,21.4,3.6,31.9,5.4
		c8.4,1.4,16.8,2.9,25.2,4.3c4.5,0.8,6.4,3.2,5.7,7.8c-1.1,7.4-2.4,14.8-3.6,22.1c-0.4,2.3-1.4,4.1-3.8,5c2,1.8,2.4,3.8,1.9,6.3
		c-1.3,7.3-2.5,14.6-3.8,21.8c-0.3,1.7-0.5,3.3,0.3,5.3c-4.9-0.9-9.4-1.7-14-2.4c-2.8-0.5-3.2-2.4-2.8-4.7c1.1-6.4,2.1-12.7,3.3-19
		c0.4-2.3-0.3-3.5-2.5-3.8c-9.2-1.6-18.5-3.1-28.1-4.7C316.4,268.7,314.9,277.4,313.3,286.3z M320.4,244.9c0.4,0.2,0.6,0.4,0.8,0.4
		c9.2,1.6,18.5,3.2,27.7,4.8c1.7,0.3,2.7-0.6,3-2.3c0.3-1.9,0.5-3.8,0.9-5.6c0.4-2.2-0.5-3.2-2.6-3.5c-4.1-0.6-8.2-1.4-12.3-2.1
		c-5.2-0.9-10.4-1.7-15.8-2.6C321.6,237.9,321,241.4,320.4,244.9z"/>
	<path class="st1" d="M162.3,265.9c1.7,8.8,3.3,17.4,5,26.3c-5.5,1-10.8,2.1-16.4,3.1c-4.2-22.2-8.4-44.2-12.6-66.5
		c3.7-1.2,7.5-1.6,11.2-2.4c14.8-2.9,29.6-5.6,44.3-8.5c6.2-1.2,8.4,0.2,9.6,6.3c1.7,8.5,3.3,17.1,4.9,25.7c0.9,4.6-0.9,7.2-5.5,8.1
		c-12.4,2.4-24.7,4.7-37.1,7C164.6,265.3,163.5,265.6,162.3,265.9z M159.5,251.3c10.4-2.3,20.7-3.5,30.5-6.2
		c0.3-3.3-0.7-5.7-1.1-8.2c-0.3-2-1.5-2.6-3.4-2.2c-4.7,0.9-9.5,1.8-14.2,2.7c-4.6,0.9-9.2,1.8-13.9,2.7
		C158.1,243.9,158.8,247.4,159.5,251.3z"/>
	<path class="st0" d="M105.1,258c0.8,1.3,1.3,2.4,1.2,3.9c-6.8,2.2-13.7,4.5-20.6,6.7c-0.9-1.2-1.3-2.3-1.1-3.9
		C91.4,262.5,98.3,260.2,105.1,258z"/>
	<path class="st0" d="M420.4,289c-0.2,1.5-0.4,2.6-1.5,3.7c-6.8-2.2-13.7-4.4-20.5-6.7c-0.1-1.5,0.5-2.6,1.2-3.9
		C406.5,284.4,413.5,286.7,420.4,289z"/>
	<path class="st0" d="M113.3,282.7c0.9,1.2,1.2,2.3,1.5,3.8c-7,2.3-13.9,4.6-20.8,6.8c-1-1.2-1.2-2.2-1.4-3.8
		C99.5,287.2,106.4,285,113.3,282.7z"/>
	<path class="st0" d="M406.6,261.4c0-1.6,0.4-2.6,1.1-3.9c6.9,2.3,13.8,4.5,20.6,6.8c0.4,1.4-0.2,2.5-0.9,3.9
		C420.5,265.9,413.6,263.6,406.6,261.4z"/>
	<path class="st0" d="M369.5,284.6c-0.2,0.7,0.1,1.5-1.1,2.2c0.3-1,0.5-1.7,0.8-2.4C369.2,284.4,369.3,284.5,369.5,284.6z"/>
	<path class="st0" d="M140.7,278.3c0.2,0.9,0.3,1.2,0.3,1.5c0,0.2-0.1,0.5-0.2,0.9C140.3,280,140.4,279.4,140.7,278.3z"/>
	<path class="st0" d="M294.6,254.2c0.1-0.2,0.2-0.5,0.3-0.8c0.5,0.4,0.3,0.7,0,1C294.8,254.3,294.7,254.2,294.6,254.2z"/>
	<path class="st0" d="M203.4,264.8c0.1-0.1,0.3-0.1,0.4-0.2c0.3,0.2,0.1,0.4,0,0.6C203.7,265.1,203.6,265,203.4,264.8z"/>
	<path class="st1" d="M427.1,201.9c-3.2-0.2-6.4-0.9-9.3-2.4c-2.4-1.2-0.6-3.5-0.2-5.3c0.3-1.6,1.3-2.5,3-2.1c1.4,0.3,2.8,0.6,4.1,1
		C430.1,194.4,430.8,197,427.1,201.9z"/>
	<path class="st1" d="M321.1,181.8c-1.1-2.4-0.4-4.3-0.1-6.2c0.1-0.8,0.8-1.5,1.6-1.4c3.3,0.1,6.7-0.1,9.8,1.4
		c0.8,2.5,0.2,4.7-0.5,7.1C328.2,183.3,324.6,182.5,321.1,181.8z"/>
	<path class="st1" d="M214.6,178c1.1-2.4,1.9-4.2,2.9-6.4c1.2,2,2.3,3.8,3.5,5.8C218.9,177.6,217,177.8,214.6,178z"/>
	<path class="st1" d="M130.2,189.2c-2.3,0.5-4.1,0.9-6.3,1.3c0.6-2.3,1.2-4.3,1.8-6.7C127.3,185.8,128.6,187.3,130.2,189.2z"/>
	<path class="st0" d="M226.2,326.7c-2.9-0.7-5.8-1.3-9-2c-1,3.1-1.9,6.1-3,9.6c-1.4-3.3-2.6-6-3.8-8.8c-2.9,0.8-5.6,1.6-8.2,2.3
		c-0.1-0.1-0.2-0.2-0.3-0.3c1.6-2.5,3.2-5.1,4.8-7.8c-2.5-1.8-4.9-3.5-8-5.8c3.7,0,6.7,0,9.7,0c0.8-3.2-0.2-6-0.1-9.1
		c2.6,1.8,4.2,4.3,6.8,6.6c5-11.3,9.8-22.4,14.9-33.9c-6.8,0-13.3,0-20.6,0c6.4-11.4,12.5-22.2,18.7-33c2.4,0,4.5,0,7.2,0
		c-5.1,9.1-10.1,17.8-15.2,26.9c12.4,0,24.3,0,36.7,0c5-8.8,10.2-17.9,15.4-26.9c2.2,0,4.3,0,7.1,0c-6.2,11.1-12.1,21.9-18.2,32.8
		c-6.9,0-13.7,0-20.6,0c-7.8,11.8-15.6,23.6-23.6,35.6c4,0.6,7.5-0.8,11.6-0.1c-2.7,2.3-5,4.3-7.4,6.3c1.5,2.8,4,4.5,5.5,7.1
		C226.4,326.5,226.3,326.6,226.2,326.7z M214.3,317c-1.3-0.5-2.6-0.6-3.5,0.7c-0.5,0.9-0.6,1.8,0.1,2.6c1,1.3,2.2,1.3,3.5,0.6
		C215.7,319.6,215.6,318.3,214.3,317z"/>
	<path class="st0" d="M243.8,219.3c-1.7,3.2-3.2,6.1-4.7,9.1c-2.4,0-4.7,0-7.6,0c1.7-3.2,3.4-6.2,5-9.1
		C238.9,219.3,241.1,219.3,243.8,219.3z"/>
	<path class="st0" d="M280.6,219.3c2.3-0.3,4.2-0.4,6.4,0.1c-0.9,3.4-3,5.9-4.3,8.9c-2.2,0.4-4.3,0.3-7.1,0.1
		C277.3,225.2,278.9,222.3,280.6,219.3z"/>
	<path class="st0" d="M280.3,239.9c-2.2,0-4.2,0-6.5,0c-0.6-2.6,0.6-5,0.4-7.5c2.4-0.6,4.4-0.2,6.5-0.3
		C281.3,234.9,280.4,237.3,280.3,239.9z"/>
	<path class="st0" d="M230.4,232.2c2.4-0.2,4.4-0.3,6.6,0.1c-0.2,2.5-0.3,4.9-0.5,7.5c-2.2,0.6-4.3,0.3-6.5,0.2
		C229.4,237.3,230.4,234.9,230.4,232.2z"/>
	<path class="st0" d="M226.5,326.4c0.1,0.1,0.2,0.2,0.3,0.4c-0.2,0.3-0.4,0.1-0.6-0.1C226.3,326.6,226.4,326.5,226.5,326.4z"/>
	<path class="st0" d="M202.1,327.8c-0.2,0-0.3,0.1-0.5,0.1c0.1-0.2,0.2-0.3,0.2-0.4C201.9,327.7,202,327.7,202.1,327.8z"/>
	<path class="st1" d="M214.3,317c1.3,1.3,1.4,2.6,0.1,4c-1.3,0.7-2.5,0.7-3.5-0.6c-0.6-0.8-0.6-1.8-0.1-2.6
		C211.7,316.4,213,316.6,214.3,317z"/>
	<path class="st0" d="M347.9,242.5c0.2,1.4-0.2,2.5-0.6,3.9c-7.6-1.3-15.2-2.5-22.8-3.8c-0.6-1.4-0.1-2.5,0.5-4
		C332.6,240,340.3,241.3,347.9,242.5z"/>
	<path class="st0" d="M184.6,238.7c0.3,1.4,0.5,2.5,0.8,3.9c-7.7,1.5-15.3,2.9-22.9,4.4c-0.9-1.3-1.1-2.4-0.9-3.9
		C169.2,241.6,176.8,240.2,184.6,238.7z"/>
</g>
</svg>
