<?xml version="1.0" encoding="utf-8"?>
<!-- Generator: Adobe Illustrator 21.0.0, SVG Export Plug-In . SVG Version: 6.00 Build 0)  -->
<svg version="1.1" id="Layer_1" xmlns="http://www.w3.org/2000/svg" xmlns:xlink="http://www.w3.org/1999/xlink" x="0px" y="0px"
	 viewBox="0 0 512 512" style="enable-background:new 0 0 512 512;" xml:space="preserve">
<style type="text/css">
	.st0{fill:#203261;}
	.st1{fill:#0C7EC2;}
	.st2{fill:#EE5334;}
	.st3{fill:#FBBB32;}
</style>
<g>
	<path class="st0" d="M398.8,282.1c-2.9,8.1-5.9,16.2-8.8,24.4c-0.5,1.3-1.1,2.5-1.6,3.8c-2.3,5.3-4.5,10.5-6.8,15.8
		c-3.3,6.1-6.3,12.4-9.7,18.5c-16.3,29-37.3,54.2-62.6,75.9c-16.3,14-33.8,26.3-52.3,37.4c-8.2-4.9-16.2-10.1-24-15.6
		c-15.3-10.7-29.7-22.6-43-35.6c-0.3-0.3-0.7-0.5-1-0.8c-3.8-4-7.6-8-11.2-12.2c-1.3-1.5-2.4-1.7-4-0.7c-1.1,0.7-2.3,1.2-3.5,1.7
		c-10.1,4.9-20.3,9.7-30.1,15.2c-0.4,0-0.7,0.1-0.9,0.4l0,0c-1.3,0.7-2.7,1-3.7,2.2l0-0.1c-2.4,0.8-4.5,2.2-6.7,3.3
		c-4.9,2.4-9.9,4.2-15.5,3.8c-5.8-0.4-9.3-4.5-8.8-10.2c0.3-3.4,1.3-6.6,2.7-9.7c7.3-16.7,15-33.2,22.8-49.7
		c0.3-0.6,0.5-1.2,0.7-1.8c1.9-3.8,3.7-7.6,5.7-11.3c0.4-0.7,0.4-1.3,0-2c-1.1-2.1-2.2-4.1-3.4-6.2c-3.7-8.2-7.5-16.3-10.7-24.7
		c-6.3-16.3-10.9-33.1-14.9-50.3c99.9-53.1,199.6-53.1,299.6,0c-1.2,4.7-2.4,9.2-3.5,13.8C401.7,272.3,400.3,277.2,398.8,282.1z
		 M334.9,333.3L334.9,333.3c-0.4-0.1-0.6,0.2-0.9,0.5c-10.7,12.2-24,20.6-38.9,26.6c-3.8,1.5-3.8,1.5-3.4,5.6
		c0.7,6.6,4.1,10,10.3,10.2c-2.5,2.2-4.9,4.3-7.8,5.8c-6.7-4-8.4-10.6-9.1-17.9c-7.6,2.6-15.1,4.6-22.7,6.6
		c-0.5,9.8-0.9,19.5-4.6,28.6c-3.4,1.4-7,2.3-10.7,2.6c2.9-2.7,5-5.9,6-9.7c1-3.8,1.6-7.6,1.9-11.4c0.2-2.8,0.6-5.5,0.3-8.4
		c-8.6,1.8-17.2,2.5-25.8,2.9c-0.4,6.1-2,11.5-6.5,15.7c-1.7-1.4-3.2-3.1-4.4-5c2.8-3,4-6.5,4-11.2c-2.6,0-5,0.2-7.4-0.1
		c-2.1-0.2-3.8,0.1-5.5,1.2c-3,1.4-6.2,2.6-9,4.4c-5.2,2.4-10.5,4.8-15.9,7.3c0.4,0.5,0.5,0.7,0.7,0.9
		c20.6,22.6,44.4,41.4,70.3,57.5c0.9,0.6,1.5,0.4,2.3-0.1c13.6-8.5,26.8-17.7,39.2-27.9c24.5-20.1,45.3-43.4,61.7-70.5
		c15.5-25.6,26.5-53.2,34.7-81.9c0.7-2.3,1.3-4.7,1.8-6.7c-52.9-28-108.7-39.7-168-34c-38.8,3.8-74.8,16.3-109.3,33.8
		c5.7,23.1,13.5,45.2,24.1,66.6c2.9-4.8,6.2-8.9,9.9-12.6c1-1.1,2.3-1.9,2.9-3.4c3.6-3.3,6.7-7.2,10.4-10.4
		c4.7-2.8,8.9-6.2,14.2-8.2c-3.1-4.5-5.9-8.7-8.4-13.2c-2.2-3.8-4.5-7.5-5.9-11.7c2.1-0.7,3.9-2.1,6.1-2.3c4,8.7,9.1,16.8,14.6,24.6
		c9.9-3.1,19.9-5.5,29.8-8c6.1-1.5,12.5-3.5,18.3,0.9c3.9-3.5,6.4-8.7,12.6-8.4c-1.7-9.9-3.2-19.2-4.8-28.6c0.8-0.1,1.6-0.4,2.3-0.4
		c1.5,0.1,3-1,4.5,0c0.8,4.9,1.6,9.8,2.4,14.7c0.7,4.2,1.4,8.3,2.1,12.7c7.9-1.6,15.6-3.2,23.5-4.9c-0.9,2.4-1.7,4.5-2.5,6.5
		c2.3-2,4.4-4.1,6.4-6.3c0.8-0.9,1.7-1.4,2.9-1.6c3.5-0.6,7.1-1.3,10.6-1.9c3.7-0.7,7.4-1.4,11.2-2.1c0.3,1.2-0.8,2.1-0.2,3.3
		c3.8-2.7,8-4.3,12.5-5c1-0.2,1.1-0.9,1.3-1.7c1.1-4.5,1.8-9,2.4-13.6c2.5,0.5,4.9,1,7.3,1.8c-0.6,3.9-1.1,7.9-1.7,11.9
		c5-0.7,9.8-1.4,14.7-2.1c-1.9,7.5-3.8,14.8-5.5,22c-0.4,1.7-1.1,3-2.3,4.3c-2.6,2.6-5.1,5.3-7.6,8c0.1,0.1,0.2,0.2,0.2,0.3
		c2.4-0.7,4.8-1.4,7.5-2.2c-1.8,6.9-3.9,13.4-5.1,20c-1.4,7.8-4.5,14.4-10.8,19.4c-0.7,0.5-1.2,1.2-1.8,1.9c-0.8,1-1.8,1.5-3,2
		c-5.3,2.3-10.7,4.7-16,7.1c-0.6,0.3-1.4,0.4-1.6,1.3c-1.5,4.8-2.9,9.7-3.7,15c0.8-0.3,1.3-0.4,1.8-0.6c17.3-7,31.4-18,42.1-33.2
		c1.9-2.7,3.5-5.7,5.9-8.2c0,0.4,0.2,0.9,0.1,1.3c-1.8,6.6-3.8,13-6.9,19.1C335,332.6,334.7,332.9,334.9,333.3z M237.9,292.9
		c1.6-0.2,3-1.1,4.9-1c-9.7,23.5-18.9,47-28.3,70.9c1-0.4,1.5-0.6,2-0.9c7.7-3.6,15.4-7.2,23.1-10.7c1.1-0.5,1.8-1.2,2.2-2.4
		c3.5-9.8,7.1-19.6,10.7-29.3c0.2-0.6,0.3-1.4,1.1-2c3.7,7.5,7.4,14.9,11.1,22.3c5.9-2.6,11.5-5.1,17.2-7.6
		c-3.2-7.2-6.3-14.3-9.6-21.3c-0.9-1.8-0.8-3.1,0.3-4.9c5.3-7.6,10.5-15.3,15.4-23.2c1.6-2.6,3.5-4.2,6.5-4.5
		c0.7-0.1,1.4-0.2,1.6-1.1c1.2-3.8,2.5-7.6,3.8-11.7c-5,0.9-9.5,1.8-14.1,2.6c-1.3,0.2-2.2,0.9-2.9,1.9
		c-7.1,9.6-14.3,19.1-21.5,28.7c-0.5,0.6-0.8,1.4-2,1.8c3.8-9.9,7.4-19.4,11.2-29.4c-8.9,2-17.4,3.8-25.8,5.7
		c-0.5,0.1-0.9,0.4-1.1,0.9c-2,4.9-4.1,9.8-6.1,14.7c-0.1,0.1-0.3,0.3-0.2,0.3C237.5,293.1,237.7,293,237.9,292.9z M225.2,282.2
		c-1.1,0.1-2.2,0.2-3.2,0.4c-8.5,1.8-16.9,4.3-25.3,6.4c-7.3,1.9-14.5,4.2-21.1,7.9c-10.4,5.8-17.4,14.6-22.7,25.1
		c-11,21.9-21.2,44.2-31.2,66.5c-1.4,3.2-2.7,6.4-2.6,9.9c0.1,3.5,1.9,5.4,5.4,5.7c3,0.2,5.9-0.5,8.6-1.5c4.8-1.7,9.1-4.3,13.5-6.6
		c11.1-5.9,22.7-10.9,33.5-17.3c12.4-7.2,22.5-16.7,28.2-30.2c7.6-18.1,15.2-36.2,22.7-54.2c0.9-2.1,1.4-4.4,1.3-6.7
		c-0.1-2.4-1.3-4-3.6-4.8C227.7,282.3,226.5,282.2,225.2,282.2z M328.6,293.4c-3.9,1.2-7.4,2.4-10.9,3.4c-1,0.3-1.4,0.9-1.6,1.8
		c-0.6,2.4-1.3,4.9-2,7.3c-0.2,0.6-0.2,1.4-1,1.7c-2.5,0.9-4.9,1.8-7.5,2.7c0-0.5,0-0.7,0-0.9c3.3-11.4,6.6-22.8,9.9-34.1
		c0.2-0.6,0.3-1.1,1-1.2c2.2-0.4,4.3-1.1,6.7-1.2c-0.5,2.1-1,4-1.6,6.1c1.8-0.4,3.4-1.1,5-1.2c4.8-0.1,6.8-2.6,7.4-7.2
		c0.4-3.4,1.6-6.8,2.5-10.6c-6.2,1-12,2-17.8,2.8c-9.3,1.3-15.2,6.4-18.1,15.3c-4.1,13-8.3,26-12.5,39c-0.6,1.8-0.9,3.6-1.1,5.5
		c-0.3,4.2,2.1,6.2,6.2,5.3c1.2-0.3,2.4-0.6,3.5-1.1c8.3-3.4,16.6-6.9,24.8-10.4c0.6-0.2,1.2-0.4,1.4-1.2
		C324.7,308,326.6,300.9,328.6,293.4z M288.3,341.6c-3.3,0.9-6.2,2.1-9.4,1.7c-0.5-0.1-0.8,0.3-1.1,0.6c-1.3,1.8-3.3,2.4-5.2,3.2
		c-3.1,1.3-6.2,2.7-9.3,4.1c-0.7,0.3-1.4,0.6-1.4,1.6c0.1,3.5,0,7,0,10.8c8-1.9,15.3-4.1,22.6-6.6c0.6-0.2,0.9-0.6,1-1.2
		C286,351.2,287.2,346.6,288.3,341.6z M229.4,368.3c8.5,0.1,17-1.1,25.4-2.7c0.7-0.1,1-0.5,1-1.2c0-3.1,0-6.2-0.5-9.4
		c-1.4,0.1-2.3,1.2-3.7,1.1c-1.3-2.5-2.7-5-4.2-7.7c-0.5,1.3-0.8,2.3-1.2,3.2c-0.6,1.4-0.6,3.2-2,4.2c-4.7,3.5-8.7,8.1-14.2,10.4
		C229.1,366.6,228.7,367.2,229.4,368.3z"/>
	<path class="st0" d="M247.4,109c0.3,10.4,0.6,20.9,0.8,31.3c0.4,18-0.5,36-0.6,54.1c-4.8,0-9.4,0-14.4,0
		c0.8-46.2,1.6-92.2,2.4-138.3c4.5,0,8.9,0,13.6,0c4.6,29.2,11.3,58,15.2,87.2c-1.3-28.9-0.8-57.8,0-86.7c4.8,0,9.4,0,14.3,0
		c-0.8,46.2-1.6,92.2-2.4,138.3c-4.5,0-8.9,0-13.5,0c-4.6-28.7-11-57.1-14.8-85.9c-0.1-0.9-0.2-1.9-0.4-2.8c-0.1,0-0.3,0-0.4,0
		C247.2,107.1,247.3,108.1,247.4,109z"/>
	<path class="st0" d="M385,220.7c20.3-41.6,40.5-83.1,60.9-124.8c9.1,4.5,18.1,8.7,26.9,13.4c6.6,3.5,8.8,11.7,5.4,18.8
		c-5.1,10.6-10.3,21.2-15.5,31.8c-2.1,4.3-4.2,8.5-6.2,12.8c-0.1,0.3-0.3,0.5-0.4,0.8c-3.3,6.5-6.7,8.1-13.8,6.3
		c-5.1,20.4-10.2,40.8-15.3,61.4c-4.4-2.1-8.6-4.2-12.9-6.3c5.1-20.6,10.2-41.1,15.4-61.6c-1.4-0.7-2.7-1.3-4.2-2.1
		c-9.1,18.6-18.1,37.1-27.3,55.9C393.6,224.9,389.3,222.8,385,220.7z M452.4,115.2c-7.1,14.5-14,28.7-20.9,43
		c4.4,2.2,8.6,4.2,12.9,6.3c7-14.4,13.9-28.6,20.9-43C461,119.3,456.8,117.3,452.4,115.2z"/>
	<path class="st0" d="M286.8,195.3c7.2-45.6,14.4-91,21.7-136.7c3.6,0.5,7,1,10.5,1.6c5.8,0.9,11.6,1.9,17.5,2.9
		c8.6,1.5,13.6,8.4,12.2,17c-4.4,27.7-8.8,55.4-13.2,83.1c-1.3,8-2.4,16.1-3.8,24.1c-1.5,8.8-7.8,13.6-16.6,12.4
		C305.6,198.5,296.4,196.8,286.8,195.3z M317.4,185.6c5.7-36.3,11.4-72.2,17.1-108.3c-4.9-0.8-9.4-1.5-14.2-2.2
		c-5.7,36.2-11.4,72.2-17.2,108.3C308,184.1,312.6,184.8,317.4,185.6z"/>
	<path class="st0" d="M88.2,85.8c4.6-1.5,9-2.9,13.6-4.4c6.4,19.7,12.7,39.2,19.2,59c4.5-1.5,8.9-2.9,13.6-4.4
		c-6.4-19.6-12.7-39.2-19.1-59c4.6-1.5,9-2.9,13.6-4.5c14.3,43.9,28.5,87.6,42.8,131.6c-4.6,1.5-9,2.9-13.6,4.4
		c-6.4-19.7-12.8-39.2-19.2-59c-4.6,1.5-9,2.9-13.6,4.4c6.4,19.7,12.8,39.3,19.1,59c-4.6,1.5-9,2.9-13.6,4.5
		C116.7,173.6,102.4,129.8,88.2,85.8z"/>
	<path class="st0" d="M194.1,185.5c4.8-0.7,9.4-1.5,14.2-2.2c-6.5-40.9-12.9-81.6-19.4-122.5c4.7-0.8,9.3-1.5,14.2-2.2
		c0.9,5.6,1.8,11.1,2.7,16.7c3.1,19.5,6.2,39.1,9.3,58.6c2.2,13.9,4.5,27.8,6.6,41.8c1.7,11.5-6.6,22.5-17.8,24.2
		c-12.1,1.8-22.9-6.4-24.8-18.5c-4.9-31.5-10-63.1-15-94.6c-1-6.5-2.1-12.9-3.1-19.4c-0.1-0.6-0.1-1.1-0.2-1.9
		c4.7-0.7,9.3-1.5,14.1-2.2C181.2,103.9,187.6,144.7,194.1,185.5z"/>
	<path class="st0" d="M421.3,86.2c-1.5,4.5-2.9,8.9-4.4,13.5c-9.1-3-18.1-5.9-27.3-8.8c-4.9,15.1-9.8,30.1-14.7,45.3
		c6.8,2.2,13.5,4.4,20.4,6.7c-1.5,4.6-2.9,9-4.4,13.6c-6.8-2.2-13.6-4.4-20.5-6.6c-4.9,15.1-9.8,30.2-14.7,45.4
		c9.1,2.9,18.1,5.9,27.3,8.8c-1.5,4.6-2.9,9-4.4,13.6c-5.8-1.9-11.5-3.7-17.2-5.5c-3.1-1-6.3-2-9.4-3c-8.4-2.7-12.4-10.4-9.7-18.8
		c11.1-34.4,22.3-68.9,33.5-103.3c2.8-8.5,10.3-12.3,18.8-9.7c8.3,2.6,16.5,5.4,24.8,8.1C419.9,85.7,420.5,85.9,421.3,86.2z"/>
	<path class="st0" d="M47.9,120c-4.4,2.1-8.5,4.1-12.9,6.2c-2.1-4.2-4.1-8.4-6.3-12.9c12.9-6.3,25.7-12.5,38.7-18.9
		c2.1,4.4,4.2,8.5,6.3,12.9c-4.3,2.1-8.5,4.1-12.9,6.3c18.1,37.1,36.2,74.2,54.4,111.5c-4.3,2.1-8.5,4.2-12.9,6.3
		C84.2,194.3,66.1,157.2,47.9,120z"/>
	<path class="st1" d="M135.4,412.3C135.4,412.3,135.4,412.4,135.4,412.3c1.7,0.2,2.8-0.9,3.7-2.1c0,0,0,0,0,0c0.4,0.1,0.8,0,0.9-0.4
		c9.8-5.5,20-10.2,30.1-15.2c1.2-0.6,2.4-1,3.5-1.7c1.6-1.1,2.7-0.8,4,0.7c3.7,4.1,7.5,8.1,11.2,12.2
		c-21.8,10.3-43.6,20.8-65.1,31.7c-21.6,10.9-43,22.3-64.3,33.9c-0.9,0.5-1.8,0.9-2.7,1.4c-0.1-0.1-0.2-0.2-0.3-0.3
		c5.8-5.5,12-10.5,18.2-15.5c19-15.4,38.8-29.7,59.4-43C134.6,413.5,135.6,413.4,135.4,412.3z"/>
	<path class="st2" d="M132.7,328.5c1.1,2.1,2.2,4.2,3.4,6.2c0.4,0.7,0.4,1.3,0,2c-1.9,3.8-3.8,7.5-5.7,11.3
		c-12.2,3.6-24.3,7.6-36.4,11.5c-19.6,6.4-39.1,13.1-58.5,20.1c-0.7,0.2-1.3,0.5-2.4,0.2c1.9-1.2,3.7-2.3,5.5-3.4
		c29.6-18.2,60.5-33.8,92.4-47.4C131.6,328.8,132.2,328.6,132.7,328.5z"/>
	<path class="st1" d="M381.6,326c2.3-5.3,4.5-10.5,6.8-15.8c0.5-1.2,1.1-2.5,1.6-3.8c29.8-6.6,59.9-11.4,90.3-13.9
		c0.1,0.8-0.5,0.8-0.8,0.9c-32.5,9.9-64.7,20.8-96.6,32.3C382.4,325.9,382,325.9,381.6,326z"/>
	<path class="st2" d="M398.8,282.1c1.5-4.9,3-9.9,4.4-14.8c26.1-1.1,52.2-0.8,78.3,1.5c-5.8,0.9-11.6,1.7-17.4,2.6
		c-21.5,3.2-42.9,6.8-64.2,10.7C399.5,282.1,399.1,282.1,398.8,282.1z"/>
	<path class="st1" d="M56.8,472.8c-0.2,0.1-0.4,0.3-0.6,0c0,0,0.2-0.2,0.3-0.3C56.6,472.5,56.7,472.6,56.8,472.8z"/>
	<path class="st2" d="M242,243.9c1.6,9.4,3.1,18.7,4.8,28.6c-6.2-0.3-8.8,4.9-12.6,8.4c-5.9-4.5-12.2-2.5-18.3-0.9
		c-9.9,2.5-19.8,4.9-29.8,8c-5.4-7.8-10.6-15.9-14.6-24.6c0.4-0.2,0.7-0.4,1.1-0.6c11.6-4.7,23.4-8.7,35.5-12
		C219.3,247.8,230.6,245.6,242,243.9z"/>
	<path class="st3" d="M242,243.9c-11.4,1.7-22.7,3.9-33.8,6.9c-12.1,3.2-23.9,7.2-35.5,12c-0.4,0.2-0.8,0.4-1.1,0.6
		c-2.3,0.2-4.1,1.6-6.1,2.3c-3.1,1.5-6.3,2.9-9.5,4.4c2.6,9.9,6.1,19.3,9.6,28.7c-3.8,3.2-6.8,7.1-10.4,10.4
		c-4.8-9.8-8.6-20.1-12.1-30.4c-1.4-4.3-2.7-8.6-4.2-13.2c3.7-1.7,7.2-3.3,10.7-4.8c21.8-9.4,44.4-16.2,67.9-20.2
		c16-2.7,32.1-4.4,48.3-4c5.6,0.1,11.2,0.6,16.8,1.1c6.6,0.6,13.3,1.3,19.8,2.3c4.8,0.7,9.6,1.2,14.3,2.6c-0.8,0-1.6,0.1-2.4,0
		c-8.5-1-17.1-1.4-25.7-1.6c-7.8-0.2-15.5,0.3-23.2,0.8c-4.2,0.3-8.4,0.5-12.6,1c-1.2,0.2-2.8-0.2-3.8,0.9c-1.5-0.9-3,0.1-4.5,0
		C243.5,243.5,242.7,243.8,242,243.9z"/>
	<path class="st2" d="M248.8,243.5c1.1-1.1,2.6-0.7,3.8-0.9c4.2-0.5,8.4-0.7,12.6-1c7.7-0.5,15.5-1,23.2-0.8
		c8.6,0.3,17.2,0.6,25.7,1.6c0.8,0.1,1.6,0,2.4,0c1.6,0.3,3.3,0.7,4.9,1c-0.6,4.6-1.3,9.1-2.4,13.6c-0.2,0.8-0.3,1.6-1.3,1.7
		c-4.5,0.7-8.7,2.3-12.5,5c-0.6-1.2,0.5-2,0.2-3.3c-3.7,0.7-7.4,1.4-11.2,2.1c-3.5,0.7-7.1,1.3-10.6,1.9c-1.2,0.2-2.1,0.7-2.9,1.6
		c-2,2.2-4.1,4.3-6.4,6.3c0.8-2,1.5-4.1,2.5-6.5c-8,1.7-15.6,3.3-23.5,4.9c-0.7-4.3-1.4-8.5-2.1-12.7
		C250.4,253.3,249.6,248.4,248.8,243.5z"/>
	<path class="st2" d="M328.8,245.3c4,0.7,7.8,2,11.7,3.1c0.9,0.2,1.2,0.7,1.5,1.6c3.8,13.7,5,27.6,4,41.7c-0.5,6.5-1.3,13-3.2,19.3
		c-0.1,0.4-0.3,0.8-0.5,1.1c-2.4,2.4-4,5.4-5.9,8.2c-10.8,15.2-24.9,26.2-42.1,33.2c-0.5,0.2-1.1,0.4-1.8,0.6
		c0.7-5.3,2.2-10.1,3.7-15c0.3-0.8,1-1,1.6-1.3c5.3-2.4,10.6-4.7,16-7.1c1.2-0.5,2.2-1.1,3-2c0.6-0.7,1.1-1.4,1.8-1.9
		c6.3-5,9.3-11.6,10.8-19.4c1.2-6.6,3.3-13.1,5.1-20c-2.7,0.8-5.1,1.5-7.5,2.2c-0.1-0.1-0.2-0.2-0.2-0.3c2.5-2.7,5-5.4,7.6-8
		c1.2-1.2,1.9-2.6,2.3-4.3c1.7-7.3,3.6-14.5,5.5-22c-4.9,0.7-9.7,1.4-14.7,2.1C327.7,253.2,328.2,249.2,328.8,245.3z"/>
	<path class="st2" d="M247,401.9c-3.7,1.2-7.7,1.3-11.5,1.9c-4.5-4-8.5-8.4-12.5-12.9c4.5-4.2,6.1-9.6,6.5-15.7
		c8.6-0.4,17.2-1,25.8-2.9c0.3,2.9-0.1,5.7-0.3,8.4c-0.3,3.9-1,7.7-1.9,11.4C252,396.1,250,399.3,247,401.9z"/>
	<path class="st2" d="M294.1,382c-3.3,2.9-7.2,5-11,7.1c-7.6,4.2-15.6,7.6-24,10.1c-0.5,0.1-0.9,0.4-1.5,0.2
		c3.7-9.2,4.1-18.8,4.6-28.6c7.6-2,15.1-4,22.7-6.6C285.7,371.4,287.4,378,294.1,382z"/>
	<path class="st3" d="M223,390.9c4,4.5,8,8.9,12.5,12.9c1,1.3,2.2,2.4,3.4,3.4c0.6,0.7,1.3,1.4,1.9,2c7.5,7,15.5,13.4,23.5,19.6
		c-1.5,1-3,2-4.4,3.1c-1.1,0.8-1.7,0-2.5-0.5c-9.6-6.5-18.7-13.6-27.4-21.3c-10.2-8.9-19.7-18.4-28.5-28.5c-0.4-0.4-0.7-0.9-1-1.4
		c2.9-1.8,6-3,9-4.4c0.7,0.3,1.3,0.9,1.7,1.5c2.2,2.9,4.6,5.8,7.1,8.5C219.9,387.8,221.3,389.4,223,390.9z"/>
	<path class="st2" d="M334.9,333.3c-1.2,3.8-3.3,7.1-5.3,10.5c-7.1,12.1-15.9,22.6-26.6,31.6c-0.3,0.3-0.7,0.5-1,0.7
		c-6.1-0.3-9.5-3.6-10.3-10.2c-0.5-4-0.5-4,3.4-5.6c15-6,28.3-14.4,38.9-26.6C334.3,333.5,334.4,333.2,334.9,333.3z"/>
	<path class="st2" d="M165.5,298.7c-3.5-9.4-7-18.8-9.6-28.7c3.2-1.5,6.3-2.9,9.5-4.4c1.4,4.2,3.7,7.9,5.9,11.7
		c2.5,4.4,5.4,8.7,8.4,13.2C174.5,292.5,170.2,295.9,165.5,298.7z"/>
	<path class="st2" d="M288.3,341.6c-1.2,5-2.4,9.6-2.8,14.3c-0.1,0.6-0.4,1-1,1.2c-7.2,2.5-14.6,4.7-22.6,6.6c0-3.8,0-7.3,0-10.8
		c0-1.1,0.7-1.3,1.4-1.6c3.1-1.4,6.2-2.7,9.3-4.1c1.9-0.8,3.9-1.5,5.2-3.2c0.2-0.3,0.6-0.7,1.1-0.6
		C282.1,343.7,285,342.5,288.3,341.6z"/>
	<path class="st2" d="M229.4,368.3c-0.7-1.2-0.2-1.7,0.7-2.1c5.6-2.3,9.5-6.9,14.2-10.4c1.3-1,1.3-2.8,2-4.2
		c0.4-0.9,0.7-1.9,1.2-3.2c1.5,2.7,2.8,5.2,4.2,7.7c1.4,0.1,2.3-1,3.7-1.1c0.5,3.1,0.4,6.2,0.5,9.4c0,0.7-0.3,1.1-1,1.2
		C246.3,367.3,237.9,368.4,229.4,368.3z"/>
	<path class="st2" d="M218.6,385.9c-2.5-2.7-4.9-5.5-7.1-8.5c-0.5-0.6-1-1.2-1.7-1.5c1.7-1.2,3.4-1.5,5.5-1.2
		c2.4,0.3,4.8,0.1,7.4,0.1C222.6,379.4,221.4,382.9,218.6,385.9z"/>
	<path class="st2" d="M335.3,332.5c0,0.3,0,0.7-0.4,0.8C334.7,332.9,335,332.6,335.3,332.5z"/>
	<path class="st1" d="M264.4,428.8c-8.1-6.3-16.1-12.6-23.5-19.6c-0.7-0.6-1.3-1.3-1.9-2c5-1,10-1.9,15-3
		c18.7-4.2,35.5-12.5,50.3-24.6c22.8-18.7,37.3-42.5,43.4-71.4c3.9-18.6,3.4-37.2-1.2-55.6c-0.2-0.7-0.3-1.4-0.6-2.6
		c13.1,4.1,25.4,8.9,37.6,14.6c-1.1,4.4-2.5,8.5-3.9,12.6c-12.9,38-32.4,72.2-59,102.3c-16.3,18.5-34.7,34.7-55.1,48.6
		C265.2,428.5,264.8,428.6,264.4,428.8z"/>
	<path class="st0" d="M203.5,303.5c0,1.2-0.8,2.1-1.2,3.2c-8,17.6-15.8,35.3-23.3,53.1c-0.5,1.2-1.2,2-2.4,2.5
		c-5.4,2.3-10.8,4.7-16.1,7.1c-0.1-0.1-0.2-0.2-0.3-0.3c2.6-6.9,5.7-13.6,8.8-20.4c5.8-13,11.8-25.9,17.7-38.8
		c0.6-1.4,1.5-2.1,2.9-2.5c4.1-1.2,8.1-2.5,12.2-3.7C202.3,303.5,202.9,303,203.5,303.5L203.5,303.5z"/>
	<path class="st0" d="M160.4,369.3c-0.2,0-0.3,0.1-0.5,0.1c0.1-0.1,0.1-0.3,0.2-0.4C160.3,369.2,160.4,369.3,160.4,369.3z"/>
	<path class="st0" d="M203.5,303.5c0-0.1,0-0.2,0-0.3c0.1,0,0.1,0,0.2,0C203.6,303.3,203.6,303.4,203.5,303.5
		C203.5,303.5,203.5,303.5,203.5,303.5z"/>
	<path class="st0" d="M259.6,301c0,0,0,0.1,0,0.1c-0.1,0-0.2-0.1-0.3-0.1c0,0,0.1-0.1,0.1-0.1C259.5,300.9,259.5,301,259.6,301z"/>
</g>
</svg>
