<?xml version="1.0" encoding="utf-8"?>
<!-- Generator: Adobe Illustrator 21.0.0, SVG Export Plug-In . SVG Version: 6.00 Build 0)  -->
<svg version="1.1" id="Layer_1" xmlns="http://www.w3.org/2000/svg" xmlns:xlink="http://www.w3.org/1999/xlink" x="0px" y="0px"
	 viewBox="0 0 512 512" style="enable-background:new 0 0 512 512;" xml:space="preserve">
<style type="text/css">
	.st0{fill:#1E66B6;}
	.st1{fill:#F4BC1A;}
</style>
<g>
	<path class="st0" d="M426.7,246.1c-0.3,95.4-77.7,172.5-172.9,172.2C158.3,418,81.3,340.7,81.7,245.6C82,150,159.3,72.9,254.3,73.2
		C349.5,73.4,427.1,151.2,426.7,246.1z M254,399.1c87.7,0,158.9-71.2,158.9-158.9c-0.1-87.5-71.1-158.4-158.8-158.4
		C166.3,81.7,95,152.9,95.2,240.6C95.3,328.1,166.4,399,254,399.1z"/>
	<path class="st0" d="M115.3,368.5c-7.5,6.7-7.4,16.3-12.6,24.5c12.9-4,22.8-10,23.8-14.5c4,3.5,7.8,6.9,11.2,9.9
		c-7.4,6.5-7,16.5-11.8,24c6,0,21.7-9.5,22.6-14.2c4,3.5,7.6,6.7,11.8,10.4c-8.7,1.2-15.1,6.1-22.1,9.5c-17.6,8.7-17.5,8.9-18,13.1
		c-2.1-1.8-3.9-3.3-5.8-4.9c-1.7-1.5-3.4-3.1-6.1-5.5c4.4,0.7,5.1-1.5,6-3.9c2.5-7.1,5.3-14.2,7.5-21.8c-8.4,4.7-18.3,6.7-25.9,14.4
		c-2.8-1.6-5.8-5.1-9.7-8.9c3.8,0,4.8-2.2,5.7-4.7c3.3-9.2,6.7-18.4,10.2-27.5c1.1-2.9,2.3-5.8,1.5-9.6
		C108.6,361.7,111.7,365.6,115.3,368.5z"/>
	<path class="st0" d="M388.2,405.6c7.3,1.6,13.4,5.3,21.3,5.7c-4,3.2-8.1,6.3-12.1,9.5c-4-6.1-10.9-6.2-16.6-7.7
		c-4-1.1-6.4,3.9-10,6.1c4.3,4.3,6.1,10,11.8,12.6c-2.8,3.2-6.8,5.4-10.5,8.5c-0.8-5.4-21.6-32.3-26.8-34.6
		c10.1-7.3,18.7-15.9,29.5-21.5c4.9-2.5,9.6-1.1,13.5,3.1c4,4.3,4.8,9.3,2.3,14.2C390,402.7,389.3,403.8,388.2,405.6z M359.5,404.6
		c2.8,2.7,4,5.9,7.1,8c4.5-3.5,9-6.9,13.3-10.5c2.5-2,3.3-4.7,1.2-7.4c-2.2-2.8-4.9-2.5-7.5-0.7C369,397.2,364.6,400.7,359.5,404.6z
		"/>
	<path class="st0" d="M220,453.3c2.8,6.4,5.5,12.7,8.6,19.7c-5.3-1.2-9.7-2.2-14.2-3.2c1.9-6.9-2.6-12-4.9-17.4
		c-1.7-4-7.2-2-11.3-4.3c-0.5,6.3-3.7,11.3-1.6,17.5c-4.7,0.2-8.9-1.5-12.6-2.2c4.4-14,6.8-28,9.2-42.6c10.6,2.4,22.3,3.6,33.4,7.7
		c5.2,1.9,7.7,6.6,7.2,11.9c-0.5,6.1-3.6,10-9.3,11.5C223.2,452.5,221.7,452.9,220,453.3z M199.8,441c6,1.2,11.7,2.3,17.3,3.4
		c3.3,0.7,5.6-0.4,6.5-3.7c1-3.5-1.1-5.5-4.1-6.2c-5.6-1.4-11.2-2.5-17.2-3.8C201.4,434.1,200.7,437.1,199.8,441z"/>
	<path class="st0" d="M239.3,429.1c9.2,0,19.2,0,29.1,0c8.1,0,13.3,3.4,14.5,9.5c1.6,8.1-1,12.6-10.3,16.3
		c4.7,5.6,8.2,11.8,14.3,16.9c-5.4,0.3-10.3,0.5-15.1,0.8c-0.3-6.9-5.6-10.9-9.3-15.5c-2.6-3.1-7.2-0.7-11.5-1.2
		c0.4,5.8-1.3,11.5,2,17.3c-4.5,0.6-8.8,0.8-12,0.5C241.1,459.1,240.1,445,239.3,429.1z M250.3,447.8c6.6,0.7,12.9,0,19.1-0.8
		c2.7-0.4,3.7-2.3,3.7-5c0-3.1-1.9-4.7-4.6-4.9c-6.1-0.2-12.2-0.1-18.3-0.1C249.7,441.1,250,444.4,250.3,447.8z"/>
	<path class="st0" d="M357.1,434.3c0.4,16.2-15.8,24-27.6,24.5c-11.9,0.4-22.6-10.9-22.3-22.8c0.3-13.3,13.3-24.2,28.6-24
		C347.8,412.1,357.2,422,357.1,434.3z M332.9,420.6c-8.5,0-15.5,6.4-15.6,14.3c-0.1,8,6.6,15.1,14.2,15.2
		c8.6,0.1,15.7-6.5,15.7-14.7C347,427,340.9,420.6,332.9,420.6z"/>
	<path class="st0" d="M405.7,392.4c8.1,1.4,19.5-7.5,20.2-15c0.2-1.8-0.3-3.4-1.8-4.4c-1.7-1.2-3.2-0.3-4.5,0.8
		c-3.8,3.5-7.4,7.2-11.3,10.6c-5.7,5-11.1,5.5-16.2,1.7c-5-3.6-6.7-10.3-3.9-16.6c2.9-6.8,7.8-11.8,14.2-15.6c2.5-1.5,5.4-2.4,7-5.8
		c2.5,3.7,4,7.1,5,10.9c-8.3,0.3-13.5,4.9-17.4,11.4c-1.4,2.4-2.3,5.3,0.3,7.2c2.4,1.8,4.3-0.5,6-2.1c3.7-3.5,7.1-7.5,11.4-10.5
		c5.6-3.9,10.3-4,15.2-0.5c4.6,3.4,6.3,9,4.3,15.1c-2.8,8.7-8.8,14.7-16.5,19.2c-2.1,1.2-4.5,2.2-6.1,4.6
		C408.9,400.1,407.2,396.7,405.7,392.4z"/>
	<path class="st0" d="M165.7,407.5c5,2.5,9.5,4.6,14.6,7.1c-3.2,1.6-3.5,3.9-3.5,6.8c0.2,10.3,0.1,20.6,0.1,30.9
		c0,3.1-0.5,6.2,1,9.7c-4.6-2.2-9.3-4.4-14.6-7c5-2.6,3.5-6.6,3.4-10.5c-5.7-2.8-11.3-5.7-17-8.5c-2.5,2.8-7.5,3.5-5.9,9.4
		c-4.8-2.3-9-4.4-13.6-6.7C141.8,433.2,166,412.4,165.7,407.5z M166.9,437.1c0-5.2,0-9.6,0-14.6c-4.1,3.1-7.8,5.6-11,9.3
		C159.6,433.6,163,435.3,166.9,437.1z"/>
	<path class="st0" d="M286.4,426.5c3.4-0.8,7.6-1.7,11.2-2.5c2.1,14.6,5,28.6,9.5,42.6c-3.7,0.8-7.9,2.3-11.3,2.4
		C293.5,454.6,290.6,440.7,286.4,426.5z"/>
	<path class="st0" d="M268.6,65.2c-2.1,0-3.9,0-4.3,0c-6.8-5.5-12.8-10.4-17.8-14.6c0,3.3,0,8.7,0,14.1c-1.6,1-3.4,0.6-5.4,0.3
		c0-8.3,0-16.5,0-24.9c1.8-1.1,4-0.4,6-0.5c4.5,6,10.1,10.9,15.7,17c0-6.2,0-11.3,0-16.7c1.8-0.7,3.7-0.5,5.8,0
		C268.6,48.1,268.6,56.4,268.6,65.2z"/>
	<path class="st0" d="M165.1,59.2c5-2,9.9-4.2,14.9-5.9c7.3-2.5,13.2,0.4,16,7.6c2.8,7.2,0.6,13.1-6.6,16.4c-4.8,2.2-9.8,4-14.7,5.9
		C171.4,75.1,168.3,67.3,165.1,59.2z M178.5,77.5c4.7-3.2,11.7-2.6,13.1-9.2c0.8-3.8-0.8-7.9-4.2-10c-5.7-3.5-10.1,1.5-15.4,2.7
		C174.1,66.5,176.1,71.6,178.5,77.5z"/>
	<path class="st0" d="M323.4,53.2c-1.9,1.6-3.3,2.9-4.8,4.2c-4.3-6.3-10.9-8.4-15.5-4.9c0.3,2.7,2.7,3.1,4.5,3.9
		c2.6,1.1,5.3,2,7.8,3.3c3,1.6,4.9,4,4.1,7.7c-0.8,3.5-3.3,5.3-6.7,5.7c-7.4,0.7-13.7-1.9-19.5-6.7c1-1.3,2.2-2.6,3.3-4
		c6.7,6.7,12.7,8.2,17.2,4.4c-0.2-2.5-2.4-2.9-4.1-3.7c-2.9-1.3-5.9-2.2-8.7-3.6c-2.5-1.3-4.1-3.5-3.7-6.5c0.4-3,2-5.1,5-6.2
		c4.6-1.6,8.9-0.3,13,1.6C317.8,49.6,320.1,51.3,323.4,53.2z"/>
	<path class="st0" d="M209.8,48.6c0.6,2.3,1,3.8,1.5,5.7c4.1-0.5,8-0.7,11.5-2.9c1.2,1.6,1.5,3.5,1.1,5.5c-4,0.2-7.8,0.8-11.5,2.1
		c-0.3,2.3,0.4,4.1,1.3,6.3c6-1.1,12-1.8,18-3.9c0.3,1.7,0.7,3.3,1,5c-8.1,1.5-16.2,3.1-24.2,4.6c-1.7-8.5-3.3-16.8-5-25.2
		c7.6-2.2,15.6-2.5,23.3-5.2c1.4,1.2,1,3.1,1.2,4.8C222,46.4,216.2,47.4,209.8,48.6z"/>
	<path class="st0" d="M430,131.9c-1.3,1-2.4,1.9-3.8,3c-3.1-5.4-7.1-9.9-10.8-14.7c-2,0.6-3.3,1.9-4.6,3.4c2.3,3.3,4.1,7,8,9
		c-1.4,1.7-3.2,2.9-5.2,4c-0.8-4.4-4-6.9-6.5-10c-2.2,0.8-3.6,2.1-5.3,3.9c4,4.7,7,10.1,11.9,14.4c-1.4,1-2.8,2.1-4.2,3.2
		c-5.1-6.7-10-13.1-14.9-19.5c6.8-5.3,13.6-10.4,20.4-15.7C419.8,118.9,424.8,125.3,430,131.9z"/>
	<path class="st0" d="M124.4,89.7c6.9,0,12,5.2,11.9,12.1c-0.1,8.6-9.1,17.3-17.7,17.1c-6.7-0.1-12-5.6-11.9-12.2
		C106.8,97.9,115.4,89.7,124.4,89.7z M123.4,94.8c-5.9-0.1-11.3,5-11.5,10.8c-0.1,4.7,3.3,8.3,8,8.2c5.7-0.1,11.2-5.5,11.3-11.2
		C131.2,98,128,94.9,123.4,94.8z"/>
	<path class="st0" d="M93.7,116.8c1.2,2,2.1,3.6,3.3,5.8c-3.7-0.2-5.9,1.9-7.9,4.2c-2.2,2.4-3.8,5.1-3.6,8.5
		c0.3,4.6,3.3,7.2,7.5,8.3c4.3,1.1,8.9-2.2,11.8-8.2c1.1-2.3,2.5-4.7-1.4-6.1c-2.3,1.5-3.7,3.8-4.6,6.6c-1.5-0.4-2.6-1.3-3.6-2.5
		c2.7-3.6,5.4-7.1,8.3-10.9c1.9,2.8,4.6,4.4,7.7,5.8c-1,8-4.8,14.2-11.3,18.6c-4.8,3.3-10.1,2.5-14.7-1.4c-4.2-3.6-5.5-9-3.4-14.5
		c1.1-3,2.9-5.6,5.2-7.9C88.9,121,91.2,119.1,93.7,116.8z"/>
	<path class="st0" d="M370.5,105.1c-2.2-1.4-4.1-2.6-6.3-4.1c1.3-1.9,2.1-4,1.6-6.6c-2.9-2-6.1-4.1-9.3-6.3
		c-2.2,0.7-4.3,1.4-5.2,4.1c-1.9-1.2-3.4-2.2-5.2-3.4c8.2-4.9,16.1-9.7,24.5-14.7c0.9,0.6,2.8,1.9,4.2,2.9
		C372,86.2,372,95.4,370.5,105.1z M359.4,85.6c2.7,1.8,4.7,3.1,7.3,4.8c0.2-3.5,1.6-6.1,1-9.4C364.9,82.5,362.5,83.9,359.4,85.6z"/>
	<path class="st0" d="M354.9,70.3c-2.6-2.7-5.7-3.4-9-5.1c-3.1,6.6-6,12.8-9,19.2c-1.6-0.7-3.6-1.7-5.2-2.5c3-6.3,5.9-12.4,8.9-18.6
		c-2.4-2.6-5.8-3.2-8.7-4.8c0.2-1.8,0.9-3.4,1.8-4.3c7.9,3.7,15.5,7.4,23.4,11.1C356.5,66.8,355.8,68.3,354.9,70.3z"/>
	<path class="st0" d="M392.5,96.7c-2.8-2.5-4.6-5-7.6-6.3c0.8-2,2.3-3.1,3.3-4.1c6.4,5.9,12.7,11.7,19.1,17.7
		c-0.9,1-2.3,2.4-3.7,3.9c-1.5-3.2-4.1-4.9-7-7.4c-4.7,5.1-9.4,10.2-14.2,15.4c-1.7-0.6-2.8-2.3-4.3-3.7
		C382.8,107.2,387.5,102.1,392.5,96.7z"/>
	<path class="st0" d="M135,76.7c1.5-0.9,3.4-2.1,5.3-3.3c2.8,6.5,7,12,10.6,18.3c5.6-3.3,11.1-6.1,15.8-10.4c1,1.6,1.9,3.1,2.8,4.5
		c-7.2,4.5-14.3,8.8-21.3,13.1C144.5,91,139.5,84.2,135,76.7z"/>
	<path class="st1" d="M254,399.1c-87.6,0-158.6-71-158.8-158.5C95,152.9,166.3,81.7,254.1,81.7c87.7,0.1,158.7,71,158.8,158.4
		C412.9,327.9,341.7,399.1,254,399.1z M276.2,267.7c-0.2,0-0.3,0.1-0.3,0.1C275.9,267.8,276.1,267.7,276.2,267.7
		c-0.1,0.5-0.5,1.2-0.3,1.7c4.8,15.5,9.6,31,14.4,46.4c3.5,0,6.4,0,9.7,0c-2.7-8.4-5.7-16.4-7.7-24.6
		C289.9,281.2,286.1,272.5,276.2,267.7z M241,241c-0.1-0.2-0.3-0.4-0.4-0.6c0,0.2-0.1,0.4-0.1,0.6c0.2,0,0.4-0.1,0.6-0.1
		c-0.9,1.7,0.2,3.2,0.6,4.7c3.4,10.8,6.8,21.5,10.3,32.3c4.2,13.1,8.3,26.2,12.6,39.5c3.4-0.2,6.4-0.3,9.8-0.5
		c-0.5-1.8-0.8-3.1-1.2-4.4c-5.4-16.9-11.3-33.7-15.9-50.8C254.7,251.9,248.8,246,241,241z M181,183c-1.6,5.6,0.1,11.1,0,16.7
		c-0.1,8.5,0.3,16.9,2.9,25.1c7.3,22.6,14.2,45.4,21.3,68.1c2.9,9.3,5.9,18.6,8.8,28.1c3.5-0.3,6.7,0,9.7-1.4
		c-0.4-1.4-0.7-2.7-1.1-3.9c-12.1-38.4-24.2-76.7-36.2-115.1c-1.7-5.5-4.3-10.8-4.5-16.7c3.6,1.8,5,5.8,8.1,8.1c-1,0-2-0.4-2.7,0.4
		c13.4,42.6,26.7,85.1,40,127.5c3.3-0.1,6-0.1,8.9-1.2c-3.9-12.2-7.7-24.4-11.6-36.5c-8.6-27.1-17.1-54.1-25.6-81.2
		c3.6,3.1,6,6.5,7.4,11.6c6.6,23.3,14.3,46.3,21.6,69.5c3.9,12.3,7.8,24.6,11.7,36.9c3.4-0.1,6.3,0.3,9.3-1
		c-10.5-33.1-20.9-65.9-31.6-99.7c3.1,3,6.7,4,7.7,7.8c-3.5,0.7-0.7,2.8-0.5,3.7c5,16.4,10.2,32.6,15.4,48.9
		c4.1,13.1,8.3,26.2,12.5,39.5c3.1-0.2,5.8-0.3,8.8-0.4c-0.6-2.2-1-3.8-1.5-5.4c-6.5-20.4-13.2-40.8-19.4-61.3
		c-2.8-9.4-5.6-18.4-14.6-23.9c-0.4-0.2-0.5-0.8-0.8-1.2c2.4-0.7,3.3,1.5,4.7,2.6c31,25.4,64.5,46.5,101.5,62
		c17.8,7.5,36.1,13.4,54.9,17.6c26-46.7,24.5-119.4-24.7-170.8C313.2,87.1,235.4,77,176.2,113.6c-61.3,37.9-77,105.1-68.8,147.1
		c0.4-0.3,0.9-0.5,1.2-0.8c1.4-1.4,2.8-2.9,4.1-4.4c13.7-15.6,24.6-33.1,34.5-51.3c7.2-13.1,12.8-26.3,10.9-41.6
		c0-0.3,0.1-0.6,0.3-1.3c2.7-0.3,4.1-2,3.9-5c2.2,0.2,4-0.5,5.7,0.5c1.5,4-0.9,8.8,3.1,13.7c-0.6-5.3-0.1-8.8,4.1-10.4
		c3.7,0.4,4.9,2.4,4.9,6C180,171.8,179.4,177.5,181,183z M189.3,346.2c-0.3,1-0.5,1.5-0.5,2c0.6,7.1,1.7,14.2,1.9,21.4
		c0.1,4.7,2.2,6.7,6.2,8.2c38.1,15.1,76.2,15.3,114.2,0c15.8-6.4,30-15.5,43.4-27.8C298.7,344.7,244,345.8,189.3,346.2z
		 M156.5,193.9c-0.5-0.1-1-0.3-1.4-0.4c-2.8,7.4-8.4,13.7-9.8,21.5c-6,32-11.3,64.2-17.4,96.2c-1.2,6.4,1.1,10.3,5.2,15
		C140.9,281.7,148.7,237.8,156.5,193.9z M143.8,328.7c8.2-24.3,16.2-97.5,12.4-114.8c-6.9,39.2-13.7,77.5-20.6,116.2
		C139,329.5,141.4,329.1,143.8,328.7z M182.8,232.3c0.8,11.8-1.4,23.8,2.3,35.3c3.7,11.7,7.4,23.5,11.1,35.2
		c2,6.4,4.1,12.8,6.2,19.2c3-0.3,5.5,0.3,8.1-1.5C201.3,291.1,192.1,261.7,182.8,232.3z M124.6,313.3c5.3-30.3,10.4-59.4,15.5-88.6
		c-4,6.2-9.2,11.4-10.4,19.1c-2.9,17.9-6.1,35.7-9.7,53.5C118.8,303.3,121.2,307.7,124.6,313.3z M287,316.1
		c-5.1-16.1-10.4-31.7-14.9-47.4c-2-7-7.8-8.9-13.2-12.1c6.3,20,12.7,40,19,60C281,316.9,283.8,316.9,287,316.1z M168.7,170.9
		c0.5,51.6,1.4,102.7,3.5,153.7c3.8,1,3.3-1.2,3.2-3.3c-1.5-48.5-2.9-96.9-4.4-145.4C171,174.3,171.6,172.3,168.7,170.9z
		 M291.6,279.1c4,12.5,7.8,24.6,11.5,36.4c3.6,0,6.6,0,10.1,0c-2.1-6.7-4.7-12.7-5.7-19C306.1,287.2,299.9,282.9,291.6,279.1z
		 M199.2,322.4c-4.6-14.2-9-27.9-13.4-41.6c-0.6,0.2-1.2,0.3-1.8,0.5c1,14.1,2,28.2,3,42.3C191.4,323.2,195,322.8,199.2,322.4z
		 M363.7,339.9c-43.9-1.4-87.7-1-131.4,0.7c9.6,0.1,19.2,0.1,28.9,0.1c32,0,63.9,0.3,95.9,2.4C359.6,343.2,362.4,343.7,363.7,339.9z
		 M126,247.8c-3.4,4-6.8,7.6-7.8,12.7c-1.4,6.7-2.5,13.4-4.4,19.9c-1.8,6.1,0.3,11.1,3.4,17.5C120.3,280.3,123.2,264,126,247.8z
		 M308.7,290.1c2.7,8.8,5.3,17.1,7.9,25.2c3.3,0,6.1,0,9.4,0C321.9,305.5,323,293.1,308.7,290.1z M155.9,285.8
		c-0.3,0-0.5-0.1-0.8-0.1c-2.5,14-4.9,28.1-7.4,42.3c3.4,0,5.9,0.1,8.2-1.3C155.9,313,155.9,299.4,155.9,285.8z M323.9,298.5
		c1.8,5.8,3.6,11.3,5.3,16.7c3.4,0.7,6.4,0.3,9.1,0.1C338,305.7,332.9,300.7,323.9,298.5z M342.3,315.5c7,0,13.5,0,20.5,0
		c-7.7-3.2-15.1-6.2-23.3-9.6C340.5,309.3,341.3,312.1,342.3,315.5z M172.6,346.8c2.2,7.2-0.9,14.7,4.3,20.5
		C177.3,348,177.3,348,172.6,346.8z M110.7,277.1c0.9-3.5,1.6-6.5,2.3-9.6C109.8,270.1,107.5,272.7,110.7,277.1z M155.7,351.3
		c0.3-4.3,0.3-4.3-3.8-3C153.2,349.4,153.9,351,155.7,351.3z"/>
	<path class="st0" d="M190,192c-3.1-2.3-4.4-6.3-8.1-8.1l0.1,0.1c0-0.7-0.3-1.2-1.1-1.1l0.1,0.1c-1.7-5.5-1-11.2-1-16.8
		c0-3.7-1.2-5.7-4.9-6c-4.2,1.6-4.7,5.1-4.1,10.4c-4-4.9-1.6-9.7-3.1-13.7c-1.7-1-3.5-0.3-5.7-0.5c0.1,3-1.3,4.7-3.9,5
		c-0.1,0.6-0.3,1-0.3,1.3c1.9,15.3-3.8,28.6-10.9,41.6c-9.9,18.2-20.8,35.6-34.5,51.3c-1.3,1.5-2.7,3-4.1,4.4
		c-0.3,0.3-0.8,0.5-1.2,0.8c-8.2-42,7.6-109.2,68.8-147.1c59.2-36.6,137-26.5,185.1,23.7c49.2,51.4,50.7,124.1,24.7,170.8
		c-18.8-4.1-37.1-10.1-54.9-17.6c-37-15.5-70.5-36.7-101.5-62c-1.3-1.1-2.3-3.3-4.7-2.6l0.1,0.1c-1-3.8-4.6-4.8-7.7-7.8
		c10.7,33.8,21.1,66.6,31.6,99.7c-3,1.4-5.9,0.9-9.3,1c-3.9-12.3-7.8-24.6-11.7-36.9c-7.3-23.1-15-46.2-21.6-69.5
		c-1.5-5.1-3.8-8.4-7.4-11.6l0.1,0.1c-0.4-0.4-0.7-0.7-1.1-1.1l0.1,0.1c-0.4-0.4-0.7-0.7-1.1-1.1l0.1,0.1c-0.4-0.4-0.7-0.7-1.1-1.1
		l0.1,0.1c-0.4-0.4-0.7-0.7-1.1-1.1l0.1,0.1c-0.4-0.4-0.7-0.7-1.1-1.1l0.1,0.1c-0.4-0.4-0.7-0.7-1.1-1.1l0.1,0.1
		c-0.4-0.4-0.7-0.7-1.1-1.1l0.1,0.1c-0.4-0.4-0.7-0.7-1.1-1.1l0.1,0.1C190.7,192.7,190.3,192.3,190,192L190,192z"/>
	<path class="st0" d="M189.3,346.2c54.7-0.4,109.5-1.5,165.2,3.7c-13.4,12.3-27.6,21.4-43.4,27.8c-38,15.3-76.1,15.1-114.2,0
		c-4-1.6-6.1-3.5-6.2-8.2c-0.1-7.1-1.2-14.2-1.9-21.4C188.7,347.7,189,347.2,189.3,346.2z"/>
	<path class="st0" d="M182,183.9c0.2,5.9,2.8,11.2,4.5,16.7c12,38.4,24.1,76.8,36.2,115.1c0.4,1.3,0.7,2.5,1.1,3.9
		c-3,1.3-6.2,1.1-9.7,1.4c-3-9.5-5.9-18.8-8.8-28.1c-7.1-22.7-13.9-45.5-21.3-68.1c-2.7-8.3-3.1-16.7-2.9-25.1
		c0.1-5.6-1.5-11.2,0-16.7c0,0-0.1-0.1-0.1-0.1c0,0.8,0,1.4,1.1,1.1L182,183.9z"/>
	<path class="st0" d="M199,201c8.5,27.1,17.1,54.1,25.6,81.2c3.8,12.1,7.7,24.3,11.6,36.5c-2.9,1.1-5.5,1.1-8.9,1.2
		c-13.3-42.4-26.6-84.9-40-127.5c0.7-0.8,1.7-0.4,2.7-0.4c0,0-0.1-0.1-0.1-0.1c0.4,0.4,0.7,0.7,1.1,1.1c0,0-0.1-0.1-0.1-0.1
		c0.4,0.4,0.7,0.7,1.1,1.1c0,0-0.1-0.1-0.1-0.1c0.4,0.4,0.7,0.7,1.1,1.1c0,0-0.1-0.1-0.1-0.1c0.4,0.4,0.7,0.7,1.1,1.1
		c0,0-0.1-0.1-0.1-0.1c0.4,0.4,0.7,0.7,1.1,1.1c0,0-0.1-0.1-0.1-0.1c0.4,0.4,0.7,0.7,1.1,1.1c0,0-0.1-0.1-0.1-0.1
		c0.4,0.4,0.7,0.7,1.1,1.1c0,0-0.1-0.1-0.1-0.1c0.1,0.7,0.4,1,1.1,1.1c0,0-0.1-0.1-0.1-0.1C198,200.6,198.4,201,199,201L199,201z"/>
	<path class="st0" d="M156.5,193.9c-7.8,43.9-15.5,87.7-23.4,132.3c-4.1-4.7-6.5-8.6-5.2-15c6.1-32,11.3-64.2,17.4-96.2
		c1.5-7.8,7-14.1,9.8-21.5C155.5,193.7,156,193.8,156.5,193.9z"/>
	<path class="st0" d="M143.8,328.7c-2.3,0.4-4.8,0.8-8.2,1.4c6.9-38.7,13.7-77,20.6-116.2C160,231.2,151.9,304.4,143.8,328.7z"/>
	<path class="st0" d="M224.9,225.9c0.3,0.4,0.4,1,0.8,1.2c9,5.5,11.7,14.5,14.6,23.9c6.2,20.5,12.9,40.8,19.4,61.3
		c0.5,1.6,0.9,3.2,1.5,5.4c-3.1,0.2-5.7,0.3-8.8,0.4c-4.2-13.3-8.3-26.4-12.5-39.5c-5.2-16.3-10.4-32.6-15.4-48.9
		c-0.3-0.9-3-3,0.5-3.7C225,226,224.9,225.9,224.9,225.9z"/>
	<path class="st0" d="M241,241c7.9,5,13.7,10.9,16.3,20.7c4.5,17.1,10.5,33.9,15.9,50.8c0.4,1.2,0.7,2.5,1.2,4.4
		c-3.4,0.2-6.4,0.3-9.8,0.5c-4.2-13.3-8.4-26.4-12.6-39.5c-3.4-10.7-6.9-21.5-10.3-32.3c-0.5-1.5-1.6-3-0.6-4.7L241,241z"/>
	<path class="st0" d="M182.8,232.3c9.2,29.4,18.4,58.8,27.7,88.2c-2.6,1.8-5.1,1.2-8.1,1.5c-2-6.3-4.1-12.7-6.2-19.2
		c-3.7-11.7-7.3-23.5-11.1-35.2C181.5,256.2,183.7,244.2,182.8,232.3z"/>
	<path class="st0" d="M124.6,313.3c-3.4-5.6-5.8-9.9-4.6-16.1c3.6-17.8,6.8-35.6,9.7-53.5c1.2-7.6,6.4-12.8,10.4-19.1
		C135,253.8,129.9,283,124.6,313.3z"/>
	<path class="st0" d="M287,316.1c-3.2,0.8-6,0.8-9.1,0.5c-6.3-20-12.6-40-19-60c5.3,3.2,11.2,5.1,13.2,12.1
		C276.6,284.4,281.9,300,287,316.1z"/>
	<path class="st0" d="M168.7,170.9c2.9,1.3,2.3,3.4,2.3,5c1.5,48.5,2.9,96.9,4.4,145.4c0.1,2.1,0.6,4.3-3.2,3.3
		C170.1,273.7,169.2,222.6,168.7,170.9z"/>
	<path class="st0" d="M276.2,267.7c9.9,4.8,13.7,13.5,16.1,23.5c1.9,8.2,5,16.2,7.7,24.6c-3.3,0-6.2,0-9.7,0
		c-4.8-15.4-9.6-30.9-14.4-46.4C275.7,269,276.1,268.3,276.2,267.7L276.2,267.7z"/>
	<path class="st0" d="M291.6,279.1c8.3,3.7,14.4,8.1,15.9,17.4c1,6.3,3.6,12.3,5.7,19c-3.5,0-6.5,0-10.1,0
		C299.4,303.8,295.6,291.7,291.6,279.1z"/>
	<path class="st0" d="M199.2,322.4c-4.2,0.4-7.8,0.8-12.2,1.2c-1-14.1-2-28.2-3-42.3c0.6-0.2,1.2-0.3,1.8-0.5
		C190.2,294.5,194.6,308.2,199.2,322.4z"/>
	<path class="st0" d="M363.7,339.9c-1.2,3.8-4,3.3-6.7,3.1c-31.9-2.1-63.9-2.4-95.9-2.4c-9.6,0-19.2,0-28.9-0.1
		C276,338.9,319.8,338.5,363.7,339.9z"/>
	<path class="st0" d="M126,247.8c-2.9,16.2-5.8,32.5-8.9,50c-3.1-6.4-5.2-11.3-3.4-17.5c1.9-6.5,3.1-13.2,4.4-19.9
		C119.3,255.4,122.7,251.7,126,247.8z"/>
	<path class="st0" d="M308.7,290.1c14.3,3,13.2,15.4,17.2,25.2c-3.3,0-6,0-9.4,0C314,307.2,311.4,298.9,308.7,290.1z"/>
	<path class="st0" d="M155.9,285.8c0,13.6,0,27.2,0,40.9c-2.4,1.5-4.9,1.3-8.2,1.3c2.5-14.3,5-28.3,7.4-42.3
		C155.3,285.7,155.6,285.7,155.9,285.8z"/>
	<path class="st0" d="M323.9,298.5c9,2.2,14.1,7.3,14.3,16.8c-2.7,0.2-5.7,0.6-9.1-0.1C327.5,309.8,325.8,304.3,323.9,298.5z"/>
	<path class="st0" d="M342.3,315.5c-1-3.4-1.8-6.1-2.8-9.6c8.2,3.4,15.5,6.4,23.3,9.6C355.8,315.5,349.2,315.5,342.3,315.5z"/>
	<path class="st0" d="M172.6,346.8c4.6,1.2,4.6,1.2,4.3,20.5C171.7,361.5,174.9,354,172.6,346.8z"/>
	<path class="st0" d="M110.7,277.1c-3.2-4.4-0.9-7.1,2.3-9.6C112.3,270.6,111.5,273.6,110.7,277.1z"/>
	<path class="st0" d="M155.7,351.3c-1.8-0.3-2.5-1.9-3.8-3C155.9,347,155.9,347,155.7,351.3z"/>
	<path class="st0" d="M241.1,240.9c-0.2,0-0.4,0.1-0.6,0.1c0-0.2,0.1-0.4,0.1-0.6c0.1,0.2,0.3,0.4,0.4,0.6
		C241,241,241.1,240.9,241.1,240.9z"/>
	<path class="st0" d="M276.3,267.7c-0.2,0.1-0.4,0.1-0.4,0.1C275.8,267.8,276,267.8,276.3,267.7
		C276.2,267.7,276.3,267.7,276.3,267.7z"/>
	<path class="st1" d="M195.1,197c-0.4-0.4-0.7-0.7-1.1-1.1C194.3,196.3,194.7,196.7,195.1,197z"/>
	<path class="st1" d="M196.1,198c-0.4-0.4-0.7-0.7-1.1-1.1C195.3,197.3,195.7,197.7,196.1,198z"/>
	<path class="st1" d="M197.1,199c-0.4-0.4-0.7-0.7-1.1-1.1C196.3,198.3,196.7,198.7,197.1,199z"/>
	<path class="st1" d="M198.1,200c-0.7-0.1-1-0.4-1.1-1.1C197.3,199.3,197.7,199.7,198.1,200z"/>
	<path class="st1" d="M199.1,201c-0.7-0.1-1-0.4-1.1-1.1C198.3,200.3,198.7,200.7,199.1,201z"/>
	<path class="st1" d="M194.1,196c-0.4-0.4-0.7-0.7-1.1-1.1C193.3,195.3,193.7,195.7,194.1,196z"/>
	<path class="st1" d="M193.1,195c-0.4-0.4-0.7-0.7-1.1-1.1C192.3,194.3,192.7,194.7,193.1,195z"/>
	<path class="st1" d="M192.1,194c-0.4-0.4-0.7-0.7-1.1-1.1C191.3,193.3,191.7,193.7,192.1,194z"/>
	<path class="st1" d="M191.1,193c-0.4-0.4-0.7-0.7-1.1-1.1C190.3,192.3,190.7,192.7,191.1,193z"/>
	<path class="st1" d="M182.1,184c-1.1,0.4-1.1-0.3-1.1-1.1C181.7,182.9,182,183.3,182.1,184z"/>
</g>
</svg>
